<svg viewBox="0 0 960 960" xmlns="http://www.w3.org/2000/svg"><g fill="none" fill-rule="evenodd"><g stroke="#000"><path d="M234.537 43.03 881.06 92.672l49.37 57.377 6.727 681.406-51.794 62.37-667.282 23.77-168.02-53.906v-18.197L20 815.13l8.736-623.906 39.451-41.436z" stroke-linejoin="round" stroke-width="40"/><path d="m48.624 199.338 144.94-92.27m53.616-52.193-53.616 52.192-10.504 734.358 42.772 70.512M40.115 807.02l142.945 34.405m482.185-752.62c5.543 0 23.341 19.601 34.777 31.733s26.601 22.783 58.255 24.568c21.103 1.19 51.542 3.077 91.32 5.661l38.569 45.8 6.129 581.128-38.37 43.608-555.774 20.122-43.239-48.016 5.718-634.951 43.592-45.09c70.642 5.23 109.648 7.845 117.02 7.845 11.055 0 24.463-13.084 30.754-28.934 4.194-10.567 8.708-17.534 11.643-19.254z" stroke-linecap="round" stroke-linejoin="round" stroke-width="20"/><path d="M319.045 146.99c62.488 4.58 97.22 6.811 104.196 6.811 7.805 0 17.582 1.918 24.366 9.086 2.785 2.943 5.013 6.343 7.098 9.45 6.803 10.14 13.345 15.859 20.854 16.053l190.829 12.045c.435-.195.8-.375 1.11-.458.373-.1.89-.12 1.495-.197 4.958-.628 12.434-1.808 19.616-7.196 16.116-12.09 31.388-16.996 67.833-14.94 18.516 1.043 44.243 2.626 77.18 4.747l22.08 26.219 5.875 556.936-20.851 23.697-526.543 19.064-24.57-27.284 5.487-609.265z" stroke-width="20"/></g><path d="m497.239 98.84 148.866 10.423 7.169 67.084-148.876-9.264z" fill="#000"/><path d="m323.502 204.892 486.205 28.559 7.01 519.35-493.215 11.205z" stroke="#000" stroke-linecap="round" stroke-linejoin="round" stroke-width="20"/><path d="M315.183 605.248h408.445v39.128H315.183" fill="#000"/><path d="m448.6 759.56 1.442-122.362" stroke="#000" stroke-linecap="round" stroke-linejoin="round" stroke-width="20"/><path d="M427.882 293.318v111.13h80.054V301.834zm0 111.131h-45.66l3.277-103.177 42.383-7.954z" fill="#000"/><path d="M432.493 399.913v15.731l9.106 9.87 8.87-9.87v-15.73zM329 330l87 5m87 4 192 10m-371 3 76 4m101 6 152 7m-23.655 385.91-.03-530.623M511.331 754.91V637.197m-70.818-317.423c0-16.22 27.396-4.072 27.396-40.207S391.844 237.591 362 252.345c-19.896 9.836-32.593 18.91-38.091 27.222" stroke="#000" stroke-linecap="round" stroke-linejoin="round" stroke-width="20"/></g></svg>