<svg viewBox="0 0 960 960" xmlns="http://www.w3.org/2000/svg"><g fill="none" fill-rule="evenodd"><g stroke="#000" stroke-linejoin="round"><path d="m190.434 101.234 443.36 24.892v10.238l.51.137c14.171 3.897 27.505 12.31 39.324 24.973l.183.198.291-.224c16.255-12.494 33.767-18.63 51.313-18.111l.711.024 1.898.102c17.574 1.18 34.064 8.887 48.539 22.632 12.902 12.252 24.276 29.536 33.167 50.842 16.053 38.468 24.253 90.592 20.267 147.356-3.986 56.76-19.39 107.238-40.662 143.106-11.78 19.861-25.455 35.398-39.94 45.74-16.198 11.564-33.54 16.911-51.043 15.693-19.33-1.346-37.574-10.718-53.168-27.502a100.499 100.499 0 0 1-11.39 7.671V735.22l144.317 17.538v53.355l-3.34.152 59.455 6.807 42.153 61.683v39.91l-450.49 22.175L85.41 877.06v-89.302l86.477-1.007 1.713-48.07 9.231-.214z" stroke-width="40"/><path d="m104.477 808.076 294.162 42.004 32.905 51.693 423.879-20.326M583.331 740.02l184.467 22.428v34.934L433.01 812.777l-250.696-27.454 1.283-36.022z" stroke-linecap="round" stroke-width="20"/><path d="m192.637 757.189 241.053 24.88 324.108-10.763M250 745V577.886m0-79.31V171l317.482 11.705v320.134m0 75.034v161.382m-385.609-238.94 478.27 5.147v67.782l-478.27 4.927z" stroke-linecap="round" stroke-width="20"/></g><path d="m662.297 556.653 12.99 16.647v55.145h-48.04v-72.84zM372.46 530.269v-46.697l8.02-10.042h58.456l18.682 21.882v36.746h40.658l6.224 8.631 1.557 45.444-28.6 19.584H460.86c-3.456 11.75-6.994 17.625-10.614 17.625s-7.283-5.875-10.987-17.625h-5.531l-6.988-11.598h-42.3l-6.251-5.45 2.29-58.5z" fill="#000"/><path d="M670.11 502c22.03-36.771 37.733-88.771 41.846-147.159C719.463 248.267 685.75 157.432 634.957 140m-87.091 43.601c-25.146 37.017-43.346 92.991-47.822 156.53-4.416 62.693 5.432 119.94 24.63 160.001" stroke="#000" stroke-linecap="round" stroke-linejoin="round" stroke-width="20"/><path d="m670.778 190.998 39.993 2.525c43.312 3.006 73.513 75.148 67.456 161.133-5.997 85.126-45.283 151.906-88.094 150.316l-1.298-.069-34.834.008c25.404-33.804 44.043-88.144 48.414-150.372 4.695-66.854-8.19-126.974-31.637-163.54z" fill="#000"/><path d="M624.619 142.426v361.808M163.841 799.087l92.055-4.137m141.702 54.82 444.758-14.481M467.373 548.486c5.83-183.11-28.114-132.321-28.114-330.969 0-198.647 288.115-327.709 288.115-7.093" stroke="#000" stroke-linecap="round" stroke-linejoin="round" stroke-width="20"/></g></svg>