<svg viewBox="0 0 960 960" xmlns="http://www.w3.org/2000/svg"><g fill="none" fill-rule="evenodd"><path d="M22 105h916v750H22z" stroke="#000" stroke-linecap="round" stroke-linejoin="round" stroke-width="40"/><path d="M22 226.064c84.368 16.342 165.408 24.513 243.12 24.513 77.711 0 149.338-8.17 214.88-24.513 92.209-16.956 171.074-25.434 236.596-25.434S855.919 209.108 938 226.064" stroke="#000" stroke-linecap="round" stroke-linejoin="round" stroke-width="20"/><path d="M23 740.52c2.978-1.007 5.375-1.713 7.19-2.116 60.53-13.452 277.36 21.689 326.565 39.646 34.28 12.51 93.325 9.18 177.136-9.986 77.991-18.363 149.748-27.544 215.27-27.544S870.629 749.701 917 768.064l22 9.986V855H23c1.503-30.204 1.503-51.402 0-63.595-2.12-17.2-2.12-34.162 0-50.885zm384.152-307.127c19.186 3.026 35.622 9.951 49.308 20.777a220.258 220.258 0 0 1 5.556 4.536c7.707-1.312 14.976-1.968 21.808-1.968 52.085 0 111.84 17.961 146.732 87.711.464.928 1.612 4.191 3.444 9.789-1.939 4.176-3.168 6.781-3.689 7.814-34.927 69.347-94.524 87.224-146.487 87.224-5.963 0-12.26-.5-18.89-1.499a198.797 198.797 0 0 1-8.474 7.06c-13.68 10.82-30.107 17.744-49.282 20.772a5 5 0 0 1-5.38-6.898c2.733-6.416 4.672-12.895 5.818-19.435a79.952 79.952 0 0 0 1.087-18.47c-20.16-8.515-42.284-19.977-66.373-34.385-3.98.942-11.995 4.143-24.046 9.604-12.052 5.46-29.146 7.576-51.284 6.349 11.77-26.226 17.656-46.015 17.656-59.367 0-12.683-5.758-31.872-17.274-57.569l-.382-.849v-.949c22.138-1.227 39.232.889 51.284 6.35 12.05 5.46 20.067 8.66 24.046 9.602 24.138-14.437 46.304-25.916 66.497-34.438a80.038 80.038 0 0 0-1.211-15.278c-1.094-6.246-2.9-12.436-5.42-18.57l-.426-1.023a5 5 0 0 1 5.382-6.89zm122.522 62.74c-19.287 0-34.922 15.643-34.922 34.94 0 19.296 15.635 34.939 34.922 34.939 19.286 0 34.921-15.643 34.921-34.94 0-19.296-15.635-34.938-34.921-34.938zm13.095 16.014c7.233 0 13.096 5.866 13.096 13.103 0 7.236-5.863 13.102-13.096 13.102-7.232 0-13.095-5.866-13.095-13.102 0-7.237 5.863-13.103 13.095-13.103zM692.5 426c16.845 0 30.5 13.655 30.5 30.5S709.345 487 692.5 487 662 473.345 662 456.5s13.655-30.5 30.5-30.5zM584 261c27.614 0 50 22.386 50 50s-22.386 50-50 50-50-22.386-50-50 22.386-50 50-50z" fill="#000"/><path d="M121.39 432.89c-30.56 68.387-19.692 75.536 2.955 124.792 15.098 32.838 19.83 92.24 14.198 178.208m21.902-.184c2.988-71.012 7.569-95.518 22.012-131.06s30.638-73.395 30.638-100.658m-142.858 4.384c-5.205 21.385-4.832 52.69 6.067 68.53 10.9 15.84 34.969 32.691 39.414 57.193 2.963 16.334 2.963 50.266 0 101.795" stroke="#000" stroke-linecap="round" stroke-linejoin="round" stroke-width="20"/></g></svg>