<svg xmlns="http://www.w3.org/2000/svg" viewBox="0 0 960 960"><path d="M483.56 189.5c201.294 0 327.188 24.193 397.827 72.101.612.415 1.22.832 1.823 1.25l.077-.119c4.483 2.915 8.582 6.002 12.143 9.28 24.097 19.552 40.566 42.62 50.678 69.46 9.285 24.643 12.896 50.241 13.684 84.936l.05 2.408c.091 4.853.132 9.014.157 15.22v12.806c-.017 22.745-.272 34.634-1.347 49.302l-.206 2.714c-1.67 21.034-4.89 40.29-10.238 58.789-17.146 59.306-55.273 106.69-121.128 141.023-76.465 39.865-188.684 60.83-343.52 60.83-212.006 0-344.923-39.93-416.084-113.917-29.17-30.33-47.05-65.356-56.261-105.11-3.709-16.003-5.953-32.456-7.122-50.18-.823-12.484-1.064-23.23-1.092-40.484v-9.236c.015-20.833.18-30.992.877-43.106l.145-2.414c1.085-17.233 3.196-32.377 6.773-46.654 8.945-35.712 27.036-64.994 57.363-88.994 67.634-53.522 197.06-79.905 415.4-79.905zM52.492 358.074l-.138.424a145.287 145.287 0 0 0-2.757 9.62c-3.01 12.014-4.812 25.218-5.733 40.743-.584 9.865-.79 18.325-.846 33.458L43 453.84v6.472c.098 36.072 1.6 57.042 7.182 81.134l.24 1.02c7.713 32.589 22.222 60.788 45.884 85.39 28.723 29.864 70.582 53.899 128.226 71.216C290.754 718.964 376.394 729.5 483.56 729.5c148.937 0 255.075-19.83 325.029-56.3 56.052-29.222 87.05-67.747 101.192-116.662 4.653-16.093 7.462-33.19 8.9-52.267 1.011-13.413 1.281-24.287 1.316-45.06V447.16c0-5.454-.029-9.303-.075-12.958l-.095-5.726c-.61-29.506-3.354-50.681-9.987-69.693-19.28 20.254-62.953 36.494-126.286 49.389-80.011 16.29-186.92 25.64-298.156 25.825l-4.425.003c-112.445 0-220.708-9.374-301.527-25.828-64.072-13.045-108.023-29.514-126.954-50.098zm13.167-27.786-.058.09a112.316 112.316 0 0 0-3.377 5.56c1.546 7.33 11.113 16.096 29.371 24.914 21.32 10.296 52.634 19.74 91.841 27.722 78.609 16.004 184.217 25.24 294.203 25.423l4.387.003c111.185 0 218.135-9.26 297.538-25.426l3.652-.753c37.1-7.737 66.889-16.798 87.52-26.648l.669-.321c16.812-8.12 26.255-16.194 28.853-23.146a115.47 115.47 0 0 0-3.957-6.38c-6.01 5.857-13.852 11.08-23.46 15.918l-1.329.66c-21.45 10.542-52.573 19.725-91.846 27.429-77.518 15.206-183.713 23.99-294.474 24.164l-4.026.003c-111.97 0-219.53-8.807-297.832-24.167l-2.444-.484c-38.932-7.765-69.683-17.007-90.73-27.605-10.174-5.122-18.367-10.676-24.5-16.956zM483.56 229.5c-201.213 0-321.51 22.799-382.846 65.534l.804 1.233c-2.688 1.748-5.154 3.651-6.999 5.391l-.467.45.101.108c2.44 2.562 6.966 5.716 13.479 9.04l.518.262c17.63 8.877 46.057 17.339 82.885 24.563 74.783 14.67 178.483 23.246 286.847 23.416l3.953.003c109.551 0 214.594-8.601 290.132-23.42l3.292-.653c35.231-7.079 62.492-15.298 79.593-23.91 6.79-3.419 11.493-6.671 13.997-9.3l.1-.109-.105-.104-.263-.252a166.595 166.595 0 0 0-9.645-7.046C796.499 252.36 677.538 229.5 483.56 229.5zm-2.06 75c32.861 0 59.501 4.253 59.501 9.5s-26.64 9.5-59.5 9.5c-32.861 0-59.5-4.253-59.5-9.5s26.639-9.5 59.5-9.5zm-184.999-28c31.204 0 56.5 4.03 56.5 9s-25.296 9-56.5 9-56.5-4.03-56.5-9 25.296-9 56.5-9zm370 0c31.204 0 56.5 4.03 56.5 9s-25.296 9-56.5 9-56.5-4.03-56.5-9 25.296-9 56.5-9zm-185-29c28.995 0 52.5 3.806 52.5 8.5s-23.505 8.5-52.5 8.5-52.5-3.806-52.5-8.5 23.505-8.5 52.5-8.5z"/></svg>