<svg viewBox="0 0 960 960" xmlns="http://www.w3.org/2000/svg"><g fill="none" fill-rule="evenodd"><path d="M438.257 436.975c8.114-1.99 15.425-.894 21.628 2.405a28.53 28.53 0 0 1 3.437 2.154l64.495 31.536c.221-.126.442-.25.663-.374a38 38 0 0 1 35.392-.869l181.134 89.745c5.542 2.936 8.995 5.517 10.785 7.22 6.082 5.792 8.621 11.722 9.804 14.637 3.239 7.953 4.779 16.801 4.322 26.66l77.272 39.04c8.884 6.333 13.8 12.768 16.346 18.58l37.65 11.348 17.057 23.638c4.856 8.953 5.887 19.381-1.105 31.384-3.89 6.68-16.37 16.743-49.79 19.438l-39.485-21.87c-4.844.179-8.99-.054-12.446-.595-2.284-.359-3.974-.665-5.073-.9a28.402 28.402 0 0 1-3.227-.869c-.462-.157-1.09-.39-1.872-.728L730.911 691c-5.024 4.388-10.064 7.607-14.925 9.812-12.413 5.632-24.275 5.383-34.652.842-9.996-4.375-72.17-33.799-186.517-88.29l-3.47-1.653a38 38 0 0 1-20.887-26.718c-.19-.93-.36-1.864-.514-2.802l-.129-.826-.042-.024c-42.55-24.768-64.27-37.415-65.175-37.918l-.022-.012c-6.2-3.299-11.195-8.747-14.083-16.586-1.824-4.951-2.794-11.135-2.409-18.214.552-10.12 3.954-22.65 10.557-35.074 6.604-12.424 15.087-22.255 23.166-28.372 5.652-4.28 11.323-6.933 16.448-8.19z" stroke="#000" stroke-linejoin="round" stroke-width="40"/><path d="M723.364 692.513c-9.855 7.695-19.634 9.515-27.85 5.912-10.703-4.692-78.568-39.807-202.129-98.806-5.419-2.587-11.536-8.541-12.736-14.425-3.392-16.637.853-35.078 12.736-55.322 11.625-19.804 37.381-66.38 70.637-49.872l176.49 89.956c3.27 1.752 5.443 3.142 6.52 4.17 3.525 3.362 4.84 6.84 5.463 8.37 2.805 6.883 3.672 14.803 2.6 23.758" stroke="#000" stroke-linecap="round" stroke-linejoin="round" stroke-width="20"/><path d="M836.447 666.544c-4.736-2.518-13.807 5.279-20.26 17.416-6.454 12.136-7.845 24.017-3.11 26.535" stroke="#004dff" stroke-width="2"/><g stroke="#000" stroke-linecap="round" stroke-linejoin="round" stroke-width="20"><path d="M840.807 658.23c-6.359-3.382-18.538 7.087-27.202 23.382-8.664 16.296-10.533 32.246-4.174 35.628m-6.319-83.905c-7.037-3.741-20.513 7.843-30.101 25.875-9.587 18.031-11.655 35.682-4.619 39.423m-9.28-84.298c-7.037-3.741-20.513 7.843-30.101 25.875-9.587 18.031-11.655 35.682-4.619 39.423m174.472 14.897c-5.203-2.767-15.167 5.799-22.256 19.131-7.09 13.332-8.618 26.383-3.415 29.15"/><path d="M751.569 607.527c.029-10.136-2.974-17.93-9.093-21.183-12.964-6.893-35.006 9.209-49.233 35.965-14.226 26.756-15.25 54.034-2.285 60.927 6.693 3.559 15.806.989 25.014-6.013m-728.654-499.49c113.937 48.225 199.889 95.714 258.055 142.821l4.538 3.71 61.42 50.565 19.605 16.086 11.693 9.544 5.889 4.764 3.396 2.713 3.494 2.774 3.408 2.688 2.502 1.96 3.265 2.542 2.399 1.854 3.133 2.403 2.302 1.752 2.264 1.71 2.225 1.668 1.464 1.09 2.165 1.602 2.132 1.562 2.098 1.525 1.382.995 2.047 1.463 2.017 1.427 1.989 1.393 1.311.91 1.3.894 1.929 1.314 1.905 1.283 2.505 1.662 1.855 1.212 1.835 1.183 1.214.773 1.806 1.137 1.195.743 1.188.731 1.182.72 1.177.71 1.754 1.043 1.743 1.02 1.157.668-20.909 36.426-1.308-.756-1.311-.764-1.314-.775-1.317-.785-1.322-.796-1.99-1.214-2.002-1.24-1.342-.84-1.347-.853-1.355-.865-1.361-.878-1.369-.89-1.376-.905-2.081-1.38-1.398-.939-2.116-1.434-1.422-.974-2.154-1.489-1.45-1.011-1.462-1.028-2.215-1.57-2.243-1.609-1.512-1.092-2.295-1.671-2.327-1.71-2.361-1.752-2.397-1.792-1.618-1.218-2.46-1.863-1.66-1.266-2.526-1.936-2.568-1.982-2.611-2.029-2.656-2.076-3.614-2.843-2.767-2.19-3.766-3-2.053-1.643-2.567-2.071-2.238-1.815-7.122-5.802-13.18-10.79-21.644-17.783-53.912-44.387-.696-.57C166.48 310.295 84.33 264.62-25.71 217.829l-3.343-1.418 16.371-38.678z"/></g></g></svg>