<svg viewBox="0 0 960 960" xmlns="http://www.w3.org/2000/svg"><g fill="none" fill-rule="evenodd"><g stroke="#000" stroke-linejoin="round"><path d="M262.79 303.844 939 341.979v282.304l-675.436 28.796L21 607.6V371.993l241.79-68.15z" stroke-width="40"/><path d="M265 654.332v-349.27m253.333 97.31 233.334 6.857V526.77l-233.334 6.857z" stroke-linecap="round" stroke-width="20"/><path d="m480 371.628 310 10.514v243.486l-310 14z" stroke-linecap="round" stroke-width="20"/><ellipse cx="395.408" cy="467.954" rx="53.5" ry="71" stroke-linecap="round" stroke-width="20" transform="rotate(11 395.408 467.954)"/><path d="m394.529 396.312-.006.094c3.16-.013 6.342.28 9.524.898 31.715 6.165 51.36 42.367 43.878 80.858-6.725 34.6-33.081 59.274-61.377 59.431l-.004.077-11.385-.319a48.9 48.9 0 0 1-14.206-.655c-31.715-6.165-51.36-42.367-43.878-80.858 6.954-35.775 34.893-60.938 64.265-59.362zm477.696 122.341c22.732 4.928 45.508-16.02 50.87-46.79 5.363-30.77-8.717-59.71-31.45-64.638-22.731-4.928-45.507 16.021-50.87 46.791-5.362 30.77 8.718 59.71 31.45 64.637z" stroke-linecap="round" stroke-width="20"/><path d="m881 406-.029.51c2.296.032 4.607.266 6.917.715 25.353 4.928 41.057 33.867 35.076 64.637-5.896 30.335-30.667 51.124-55.658 46.985a39.213 39.213 0 0 1-13.867-.194c-25.353-4.928-41.057-33.867-35.076-64.637 5.362-27.584 26.33-47.275 48.88-47.507l.024-.34zM76.984 418.313v89.763m30.715-94.552v93.679m30.715-98.469v97.596m30.715-102.385v101.511m30.716-106.301v105.428" stroke-linecap="round" stroke-width="20"/></g><path d="M524.483 596.886c9.309 1.017 18.17-6.552 19.792-16.887 1.621-10.324-4.61-19.598-13.919-20.733-9.309-1.146-18.17 6.375-19.792 16.817-1.621 10.453 4.61 19.776 13.919 20.803zm51.764-2.586c9.31.99 18.17-6.45 19.792-16.598 1.622-10.137-4.61-19.238-13.919-20.347-9.308-1.119-18.17 6.273-19.791 16.528-1.622 10.267 4.61 19.417 13.918 20.417zm51.765-2.586c9.308.964 18.17-6.347 19.791-16.31 1.622-9.95-4.61-18.878-13.918-19.96-9.31-1.092-18.17 6.17-19.792 16.24-1.622 10.08 4.61 19.057 13.919 20.03zm51.764-2.586c9.309.937 18.17-6.244 19.792-16.02 1.621-9.764-4.61-18.52-13.919-19.575-9.309-1.065-18.17 6.068-19.792 15.95-1.621 9.895 4.61 18.699 13.919 19.645zm51.764-2.585c9.31.91 18.17-6.142 19.792-15.732 1.622-9.578-4.61-18.16-13.919-19.189-9.308-1.038-18.17 5.966-19.791 15.662-1.622 9.708 4.61 18.34 13.918 19.259z" fill="#000"/></g></svg>