<svg viewBox="0 0 960 960" xmlns="http://www.w3.org/2000/svg"><g fill="none" fill-rule="evenodd" stroke="#000" stroke-linecap="round" stroke-linejoin="round"><path d="M218.289 104.548v827.799l542.585-90.61V141.09l25.005-7.232V80.111l-562.492-52.54-30.966 6.836c-2.53 27.176-2.53 42.41 0 45.704s6.883 10.212 13.06 20.754z" stroke-width="40"/><g stroke-width="20"><path d="m217.289 94.548 542.585 36.541M215.46 893.301l540.21-90.193M215 94.856l543.296 39.357v61.576L215 169.099zm0 74.244 543.296 26.689v60.036L215 241.487z"/><path d="m215 241.487 543.296 14.338v60.037L215 313.874zm0 72.387 543.296 1.988v60.036L215 386.262z"/><path d="m215 386.262 543.296-10.364v60.036L215 458.65z"/><path d="m215 458.65 543.296-22.716v60.037L215 531.037z"/><path d="m216.767 530.923 543.296-35.067v59.996l-543.296 47.419z"/><path d="M215.883 603.348 759.18 555.93v60.016l-543.297 59.77z"/><path d="m215.883 675.715 543.297-59.77v60.017l-543.297 72.121z"/><path d="m216.767 747.967 543.296-72.124v59.996l-543.296 84.476zm-1.307 150.334 540.21-90.193M215 99.856l543.296 39.357v61.576L215 174.099zm0 74.244 543.296 26.689v60.036L215 246.487z"/><path d="m215 246.487 543.296 14.338v60.037L215 318.874zm0 72.387 543.296 1.988v60.036L215 391.262z"/><path d="m215 391.262 543.296-10.364v60.036L215 463.65z"/><path d="m215 463.65 543.296-22.716v60.037L215 536.037z"/><path d="m216.767 535.923 543.296-35.067v59.996l-543.296 47.419z"/><path d="M215.883 608.348 759.18 560.93v60.016l-543.297 59.77z"/><path d="m215.883 680.715 543.297-59.77v60.017l-543.297 72.121z"/><path d="m216.767 752.967 543.296-72.124v59.996l-543.296 84.476zM230 109l10.005 60.099M230 186l10.005 60.099M230 246l10.005 60.099M230 323l10.005 60.099M230 396l10.005 60.099M230 468l10.005 60.099M230 538l10.005 60.099M230 605l10.005 60.099M230 687l10.005 60.099M230 750l10.005 60.099M230 820l10.005 60.099m-5.003-855.201C239.001 68.774 236 93.76 226 99.856"/></g></g></svg>