<svg viewBox="0 0 960 960" xmlns="http://www.w3.org/2000/svg"><g fill="none" fill-rule="evenodd"><path d="M479.734 23.5c246.061 0 446.19 69.252 451.786 155.426l-.014.001c.093.347.138.737.134 1.168l-.014 1.914.014.625h0l-.027 1.154c-.016 2.659-.021 4.331-.024 5.463l-.001.261v.123l-.001.233c-.002.56-.004.956-.01 1.286-2.175 149.538-61.453 283.7-147.119 378.322-6.229 18.04-13.937 37.013-21.667 54.57C733.459 729.948 617.983 809 480 809c-104.167 0-195.507-45.052-246.642-112.7-1.56-.88-2.797-1.808-3.697-2.782-18.134-19.63-38.222-70.243-60.264-151.838-34.22-37.762-60.35-74.389-77.763-100.878-36.273-55.18-57.445-139.334-63.514-252.463a55.218 55.218 0 0 1-.292-5.705C27.828 94.747 230.153 23.5 479.734 23.5z" stroke="#000" stroke-width="40" stroke-linecap="round" stroke-linejoin="round"/><path d="M921.734 260.97c0-87.888-197.89-159.134-442-159.134s-442 71.246-442 159.134M479 401c155.331 0 283.719 40.583 304.162 93.253 1.622 3.762 2.553 8 2.782 12.716.038.676.056 1.353.056 2.031l-.035-1.54c.023.611.035 1.23.035 1.857l-.006-.552.006.235v.317c0 26.623-16.652 73.416-33.543 113.166C724.873 729.173 613.14 809 479.5 809c-101.215 0-189.865-45.79-238.911-114.36-.974-.659-1.777-1.34-2.407-2.045-18.448-20.631-38.993-75.63-61.637-164.994h-.01C173.556 521.557 172 515.342 172 509l.008.349-.008-.032.007-.001L172 509c0-59.05 134.713-107.032 301.923-107.986z" stroke="#000" stroke-width="20" stroke-linecap="round" stroke-linejoin="round"/><path d="M475.926 722.524c30.863 38.112 95.65 36.806 144.707-2.92 49.056-39.724 63.804-102.824 32.941-140.937-30.863-38.113-95.65-36.806-144.707 2.919-49.056 39.725-63.805 102.825-32.941 140.938z" fill="#000"/><path d="M593.805 617.031c11.513 14.218 5.706 39.066-14.206 55.19-19.912 16.125-45.425 16.64-56.938 2.421-11.513-14.217-5.705-39.066 14.206-55.19 19.912-16.124 45.425-16.639 56.938-2.42z" fill="#FFF" fill-rule="nonzero"/></g></svg>