<svg viewBox="0 0 960 960" xmlns="http://www.w3.org/2000/svg"><g fill="none" fill-rule="evenodd"><g stroke="#000"><path d="m479.501 59.659 1.125 1.892 2.584 4.32 2.548 4.236 2.513 4.152 1.663 2.734 2.458 4.018 2.426 3.943 2.393 3.862 2.358 3.778 1.558 2.482 1.54 2.443 1.527 2.407 1.515 2.376 2.234 3.481 1.482 2.295 2.183 3.354 2.15 3.275 1.423 2.149 1.404 2.108 1.39 2.074 1.38 2.046 2.034 2.987 2.001 2.908 1.326 1.907 1.307 1.866 1.3 1.84 1.909 2.676 1.885 2.607 1.85 2.522 1.227 1.654 1.21 1.612 1.195 1.578 1.189 1.551 1.557 2.006 1.62 2.06 1.134 1.424 1.722 2.144 1.204 1.484 1.838 2.247 1.914 2.315 2.64 3.16 2.069 2.45 2.13 2.504 2.198 2.563 2.265 2.622 2.332 2.681 2.4 2.741 2.47 2.805 3.385 3.818 1.754 1.968 3.567 3.98 2.767 3.068 3.782 4.172 2.926 3.21 3.997 4.365 4.122 4.476 4.241 4.582 3.269 3.517 5.585 5.982 5.776 6.151 2.373 2.519 3.606 3.817 4.91 5.18 2.507 2.638c.643.675.95 1.548.929 2.412a3.366 3.366 0 0 1-1.642 2.814l-44.837 26.783 9.241 19.103 1.895 3.886 1.268 2.58 2.19 4.414 2.175 4.33 1.246 2.46 1.842 3.6 1.23 2.383 1.222 2.35 1.216 2.322 1.212 2.295 1.212 2.277 1.794 3.338 1.2 2.21 1.19 2.175 1.187 2.15 1.182 2.122 1.178 2.096 1.178 2.078 1.741 3.037 1.173 2.021 1.724 2.938 1.157 1.947 1.148 1.912 1.144 1.885 1.14 1.86 1.138 1.839 1.411 2.25 1.405 2.209 1.134 1.76 1.662 2.543 1.122 1.69 1.111 1.653 1.1 1.615.57.83 1.094 1.576 1.1 1.564 1.099 1.539 1.095 1.514 1.093 1.488 1.091 1.464 1.09 1.438 1.087 1.414 1.08 1.383.883 1.113.902 1.123.936 1.151 1.42 1.724.999 1.195 1.014 1.203 1.048 1.23 1.594 1.851 1.111 1.277 1.13 1.288 1.156 1.308 1.188 1.334 1.81 2.015 1.254 1.383 1.284 1.409 2.612 2.839 2.045 2.2 2.1 2.242 2.16 2.288 2.226 2.339 3.047 3.178 2.37 2.453 3.24 3.33 3.35 3.416 2.591 2.627 3.534 3.56 1.821 1.824 2.77 2.764 3.785 3.759 3.897 3.847 4.008 3.933 4.117 4.02 4.226 4.107 4.332 4.189a3.367 3.367 0 0 1 1.036 2.374 3.367 3.367 0 0 1-1.989 3.14l-51.813 23.287 14.395 25.259 2.609 4.546 2.581 4.47 2.556 4.398 2.53 4.326 2.504 4.253 2.479 4.182 2.453 4.11 2.428 4.038 2.4 3.96 1.594 2.615 2.358 3.841 2.336 3.775 2.311 3.704 2.283 3.626 1.517 2.394 2.238 3.501 1.487 2.31 1.472 2.27 1.461 2.24 1.45 2.209 1.44 2.177 1.43 2.145 1.418 2.114 1.408 2.083 1.398 2.052 1.387 2.02 1.376 1.99 1.372 1.967 2.02 2.863 1.346 1.89 1.33 1.85 1.322 1.82 1.311 1.788 1.301 1.759 1.292 1.728 1.283 1.697 1.273 1.667 1.264 1.637 1.263 1.619 1.844 2.326 1.032 1.284 1.044 1.287 1.077 1.315 1.653 1.996 2.282 2.718 1.796 2.11 1.842 2.143 1.276 1.47 1.941 2.222 2.001 2.269 1.38 1.553 2.1 2.349 2.166 2.402 2.225 2.45 2.286 2.499 2.345 2.547 2.41 2.6 3.296 3.532 2.551 2.714 2.609 2.761 2.672 2.813 3.649 3.818 2.817 2.932 3.84 3.974 2.96 3.048 4.032 4.132 4.142 4.222 3.184 3.23 4.33 4.376 3.328 3.348 4.525 4.535 4.632 4.623c.664.658.996 1.524.998 2.39a3.367 3.367 0 0 1-.983 2.39c-.992.996-2.528 1.123-3.768 1.656-128.515 55.301-231.005 65.053-304.251 67.097L529 916h-81l.005-116.186c-74.795-1.015-186.398-8.286-321.917-67.433l-.533-.233c-1.17-.51-2.631-.624-3.572-1.569a3.365 3.365 0 0 1-.983-2.357 3.36 3.36 0 0 1 .88-2.3l5.848-5.844 4.455-4.47 4.35-4.384 5.282-5.351 4.11-4.188 4-4.099 3.894-4.011 3.788-3.924 3.68-3.838 3.572-3.747 2.62-2.766 4.204-4.47 1.655-1.77 2.405-2.588 1.58-1.707 1.556-1.69 3.008-3.289 2.204-2.429 2.828-3.143 2.058-2.31 1.354-1.53 2.588-2.949 1.884-2.17 1.234-1.434 1.783-2.089 1.724-2.042 1.127-1.349 1.097-1.322 1.071-1.303 1.047-1.284 1.023-1.267 1.12-1.401 1.245-1.575 1.237-1.585.665-.858 1.252-1.63 1.277-1.683 1.287-1.712 1.297-1.744 1.306-1.773 1.316-1.805 1.326-1.834 1.336-1.866 1.346-1.897 1.345-1.911c.234-.335.47-.67.705-1.008l1.36-1.958 1.381-2.005 1.393-2.036 1.402-2.067 1.414-2.099 1.424-2.13 1.434-2.161 1.445-2.193 1.456-2.224 1.467-2.255 1.477-2.287 1.489-2.319 1.503-2.356 2.262-3.573 1.53-2.435 1.539-2.461 1.552-2.498 2.34-3.794 2.367-3.865 1.6-2.63 2.408-3.985 2.437-4.062 2.462-4.134 2.485-4.201 1.675-2.848 1.686-2.88 2.544-4.37 2.57-4.442 1.734-3.012 2.613-4.563 13.514-23.736-51.804-23.283a3.367 3.367 0 0 1-1.989-3.14 3.367 3.367 0 0 1 1.037-2.375l5.396-5.22 4.201-4.088 4.092-4 4.953-4.872 3.845-3.807 3.734-3.718 3.624-3.632 3.516-3.547 3.407-3.462 3.294-3.372 2.406-2.48 2.346-2.434 3.025-3.162 2.916-3.077 2.124-2.262 2.056-2.205 1.35-1.459 1.95-2.123 1.284-1.409 1.857-2.052 1.796-2.006 1.181-1.332 1.7-1.932 1.646-1.897 1.59-1.853 1.523-1.802.997-1.194.973-1.178 1.392-1.707 1.338-1.67.987-1.254 1.084-1.398 1.065-1.397.59-.783 1.047-1.404.59-.8 1.072-1.471 1.097-1.526 1.1-1.552 1.101-1.577 1.105-1.602 1.108-1.627 1.095-1.63c.196-.292.392-.587.588-.883l1.085-1.644.59-.902 1.106-1.707 1.124-1.756 1.115-1.76.592-.943 1.12-1.8 1.138-1.846 1.142-1.872 1.145-1.899 1.15-1.924 1.154-1.951 1.163-1.986 1.735-2.998 1.173-2.052 1.173-2.07 1.178-2.095 1.182-2.123 1.186-2.149 1.191-2.175 1.196-2.203 1.2-2.228 1.205-2.256 1.21-2.282 1.214-2.31 1.22-2.335 1.224-2.362 1.232-2.396 1.849-3.628 1.86-3.69 1.254-2.508 1.88-3.79 1.89-3.852 1.27-2.61 9.239-19.098-44.837-26.783a3.368 3.368 0 0 1-1.642-2.814 3.367 3.367 0 0 1 .934-2.417l6.193-6.525 3.634-3.844 4.732-5.021 5.737-6.117 3.362-3.6 5.431-5.844 4.213-4.557 3.082-3.35 3.014-3.288 3.906-4.283 3.785-4.175 2.764-3.066 2.696-3.005 3.476-3.898 1.706-1.925 2.49-2.821 3.208-3.66 2.335-2.686 2.265-2.622 2.202-2.568 2.818-3.316 2.041-2.425 1.334-1.596 1.921-2.317 1.262-1.534 1.81-2.22 1.19-1.473 1.707-2.134 1.649-2.085 1.586-2.034 1.673-2.178 1.197-1.578 1.78-2.38 1.22-1.65 1.232-1.683 1.849-2.555 1.269-1.773 1.899-2.681 1.295-1.848 1.303-1.873 1.321-1.914 1.991-2.91 1.355-1.999 1.364-2.025 1.382-2.066 2.088-3.147 2.12-3.224 1.444-2.212 2.898-4.479 2.225-3.471 2.999-4.721 1.53-2.43 1.546-2.462 3.113-4.999 2.378-3.85 1.61-2.618 2.43-3.975 2.464-4.058 2.498-4.136 2.53-4.215 2.563-4.293z" stroke-width="40"/><path d="M851.177 732.502c-2.848 2.862-6.554 4.419-10.279 6.021-161.004 69.262-282.41 68.627-357.555 69.25l-3.26.008-2.108.004c-75.005-.171-201.473-.171-359.819-69.262-3.717-1.622-7.43-3.16-10.279-6.02M331.664 246.56c60.682-13.346 104.284-26.142 130.805-38.387 26.522-12.244 58.938-32.706 97.248-61.385M348.71 309.318c32.94 9.715 70.552 15.036 112.836 15.961 42.284.926 88.76-9.052 139.427-29.932-44.117 72.063-96.623 122.803-157.519 152.22s-124.745 45.426-191.548 48.026c68.054 43.906 143.919 65.86 227.594 65.86s155.953-16.975 216.833-50.925c-49.627 81.815-125.085 138.4-226.374 169.754-101.29 31.354-217.82 46.021-349.59 44" stroke-linecap="round" stroke-linejoin="round" stroke-width="20"/></g><g fill="#000"><circle cx="535.201" cy="239.652" r="24.516"/><circle cx="381.944" cy="397.05" r="30.218"/><circle cx="570.234" cy="462.047" r="34.779"/><circle cx="306.824" cy="633.25" r="34.779"/><circle cx="644.353" cy="701.668" r="39.34"/></g></g></svg>