<svg viewBox="0 0 960 960" xmlns="http://www.w3.org/2000/svg"><g stroke="#000" fill="none" fill-rule="evenodd" stroke-linecap="round" stroke-linejoin="round"><path d="M384.231 411.536c9.297 1.307 15.775 9.903 14.469 19.2l-7.41 52.732c16.793 12.904 28.352 36.871 23.353 72.436-6.895 49.061-44.136 92.284-69.438 94.295-.787.063-3.19.127-5.566-.32-2.437-.457-4.848-1.429-5.487-1.725-23.166-10.732-45.716-61.196-38.991-109.043 4.796-34.128 21.304-53.788 40.038-62.19l7.596-54.041c1.307-9.298 9.903-15.775 19.2-14.469l22.236 3.125z" stroke-width="40"/><path d="M343.902 659.468c25.292-1.938 62.443-44.518 69.245-92.917 6.42-45.679-15.183-72.011-39.83-80.113a54.725 54.725 0 0 0-9.035-2.144l-1-.14a54.7 54.7 0 0 0-7.828-.463c-26.314.332-55.253 19.553-61.79 66.068-6.633 47.2 16.005 97.037 39.185 107.67.639.293 3.05 1.257 5.488 1.713 2.377.445 4.778.386 5.565.326z" stroke-width="20"/><path d="M187.37 372.037c8.29 4.408 11.437 14.702 7.03 22.992l-25.087 47.182c11.328 17.88 13.943 44.396-2.962 76.19-23.322 43.862-73.116 71.877-97.551 65.145-.76-.21-3.037-.968-5.114-2.199-2.13-1.261-4.058-2.999-4.556-3.495-18.054-18.007-21.883-73.228.86-116.003 16.223-30.51 38.467-43.4 58.934-44.929l25.71-48.352c4.409-8.29 14.702-11.437 22.992-7.029l19.744 10.498z" stroke-width="40"/><path d="M64.625 591.397c24.408 6.785 73.957-20.77 97.026-64.156 21.772-40.949 10.573-73.172-9.769-89.218a54.182 54.182 0 0 0-7.74-5.1l-.892-.474a54.121 54.121 0 0 0-7.187-3.103c-24.814-8.65-58.602-.355-80.772 41.342-22.498 42.311-18.43 97.083-.338 115.02.499.494 2.43 2.225 4.561 3.486 2.078 1.23 4.352 1.992 5.111 2.203z" stroke-width="20"/><path d="M773.373 372.037c-8.29 4.408-11.437 14.702-7.029 22.992l25.086 47.182c-11.328 17.88-13.943 44.396 2.963 76.19 23.321 43.862 73.115 71.877 97.551 65.145.76-.21 3.036-.968 5.113-2.199 2.13-1.261 4.059-2.999 4.557-3.495 18.054-18.007 21.883-73.228-.86-116.003-16.224-30.51-38.468-43.4-58.935-44.929l-25.71-48.352c-4.408-8.29-14.701-11.437-22.991-7.029l-19.745 10.498z" stroke-width="40"/><path d="M896.118 591.397c-24.407 6.785-73.956-20.77-97.025-64.156-21.773-40.949-10.574-73.172 9.768-89.218a54.182 54.182 0 0 1 8.632-5.574 54.121 54.121 0 0 1 7.187-3.103c24.814-8.65 58.602-.355 80.773 41.342 22.497 42.311 18.43 97.083.337 115.02-.498.494-2.43 2.225-4.56 3.486-2.078 1.23-4.353 1.992-5.112 2.203z" stroke-width="20"/><path d="M599.651 408.72c9.298-1.307 17.894 5.17 19.2 14.468l7.412 52.73c19.7 7.776 37.417 27.629 42.416 63.193 6.895 49.062-16.99 100.875-40.758 109.783-.739.277-3.03 1-5.438 1.227-2.469.232-5.054-.038-5.75-.146-25.227-3.931-60.813-46.225-67.537-94.071-4.797-34.129 5.653-57.578 21.346-70.819l-7.595-54.04c-1.307-9.298 5.171-17.894 14.469-19.2l22.235-3.126z" stroke-width="40"/><path d="M629.224 658.163c23.778-8.834 47.753-60.006 40.95-108.405-6.419-45.679-34.442-65.037-60.37-66.031a54.64 54.64 0 0 0-9.274.43l-1 .14c-2.56.383-5.12.953-7.652 1.713-25.204 7.573-47.723 34.026-41.186 80.54 6.634 47.2 42.132 88.868 67.345 92.7.695.105 3.28.367 5.748.133 2.407-.227 4.7-.945 5.439-1.22z" stroke-width="20"/><path d="M66.195 293.11c83.164 78.192 219.186 117.288 408.066 117.288 188.881 0 324.934-39.096 408.16-117.287" stroke-width="34"/><path d="M86.217 497.221c-2.376 6.596-3.759 11.745-4.148 15.447-.39 3.702-.565 9.376-.527 17.02m261.365 36.653c.145 7.01.7 12.312 1.663 15.908.964 3.595 2.833 8.955 5.608 16.078m254.138-22.394c2.188 6.66 4.268 11.569 6.241 14.726 1.973 3.157 5.328 7.736 10.064 13.736m221.794-84.547c4.524 5.355 8.292 9.127 11.303 11.315 3.012 2.189 7.838 5.177 14.477 8.967" stroke-width="20"/></g></svg>