<svg viewBox="0 0 960 960" xmlns="http://www.w3.org/2000/svg"><g fill="none" fill-rule="evenodd" stroke="#000" stroke-linejoin="round"><path d="M154.461 80.895a110 110 0 0 1 30.799-2.057l705.299 52.34c13.575 1.008 25.613 7.166 34.257 16.475 8.644 9.31 13.894 21.77 13.894 35.383v568.975c0 13.111-4.88 25.196-13.014 34.41-8.133 9.215-19.518 15.56-32.527 17.188L199.66 890.415a110 110 0 0 1-60.96-9.837l-87.415-41.632a51.956 51.956 0 0 1-21.61-19.187 51.956 51.956 0 0 1-8.03-27.76V151.044a51.906 51.906 0 0 1 11.62-32.764 51.906 51.906 0 0 1 29.669-18.12z" stroke-width="40"/><g stroke-linecap="round"><path d="M171.061 97.839v776m62.468-721.761v656.284l425.676-49.915V182.012z" stroke-width="20"/><path d="M408.018 674.075c92.93 21.454 188.538-48.974 213.549-157.306 25.01-108.332-30.049-213.544-122.978-234.999-92.93-21.454-188.538 48.974-213.549 157.306-25.01 108.332 30.05 213.544 122.978 234.999z" stroke-width="20"/><path d="M408.018 674.075c92.93 21.454 188.538-48.974 213.549-157.306 25.01-108.332-30.049-213.544-122.978-234.999-92.93-21.454-188.538 48.974-213.549 157.306-25.01 108.332 30.05 213.544 122.978 234.999zM827.48 203.562v24.05h53.445V205.38z" stroke-width="20"/><path d="M271.295 158.385v645.102m35.613-642.869v638.524m35.614-636.292v631.947m35.613-629.714v625.369m35.614-623.136v618.791m35.613-616.559v612.213m35.614-609.98v605.635m35.613-603.402v599.057m30.928-597.118v593.345m35.614-591.113v586.768m35.613-584.535v580.189m35.614-577.956v573.611M233.529 185.48l425.676 19.107M233.529 223.48l425.676 19.107M233.529 261.48l425.676 19.107M233 473l425-8m-424 63.109 425.205-13.065m0 44.293L234 574.007M233 670l425.205-33.927M233 627l425.205-33.927m1 85.949L234 718.2m425.205 1.822L234 759.2m-1-338.877h426.205m0-46.627L233 365.219m1-53.834 424 12.729" stroke-width="13"/></g></g></svg>