<svg xmlns="http://www.w3.org/2000/svg" viewBox="0 0 960 960"><g fill="none" fill-rule="evenodd"><path d="M885.152 275.078c12.979 0 24.729 5.261 33.234 13.766 8.505 8.506 13.766 20.256 13.766 33.234v272.84c0 11.934-4.473 22.92-11.909 31.267-7.436 8.345-17.836 14.05-29.692 15.422L217.001 719.5a120 120 0 0 1-49.735-4.716L56.69 680.065a46.936 46.936 0 0 1-23.807-17.028 46.936 46.936 0 0 1-9.113-27.814V334.81c0-12.05 4.557-23.125 12.112-31.494s18.106-14.032 30.094-15.261l120.46-12.35a120 120 0 0 1 12.24-.627z" stroke="#000" stroke-width="40" stroke-linejoin="round"/><path d="M738.227 405.763c17.868 5.124 37.038-7.057 42.815-27.207 5.778-20.15-4.023-40.638-21.892-45.761-17.868-5.124-37.038 7.057-42.815 27.206-5.778 20.15 4.023 40.638 21.892 45.762zm87.693-7.157c16.858 4.833 34.942-6.658 40.393-25.667 5.45-19.01-3.796-38.338-20.653-43.171-16.857-4.834-34.941 6.657-40.392 25.666-5.451 19.01 3.796 38.338 20.653 43.172z" fill="#000"/><path stroke="#000" stroke-width="20" stroke-linecap="round" stroke-linejoin="round" d="M193.562 295.078v407m75.855-37.414 579.433-65.666c8.593-.974 15.086-8.244 15.086-16.892V496.27c0-9.389-7.611-17-17-17a17 17 0 0 0-1.03.031L265.26 514.54c-12.667.768-22.546 11.265-22.546 23.956v102.322c0 13.255 10.745 24 24 24a24 24 0 0 0 2.702-.153zm-26.702-96.887 621.221-44.84m-621.221 91.161 621.221-56.094"/></g></svg>