<svg viewBox="0 0 960 960" xmlns="http://www.w3.org/2000/svg"><g fill="none" fill-rule="evenodd"><g stroke="#000" stroke-linejoin="round"><path d="m249.699 70.678 512.496 33.21 9.36 130.81-.001 548.609 152.872 36.904v100.153l-21.029 2.372-498.79 18.276L110 827.635V144.07z" stroke-width="40"/><path d="m255 807 .764-590.297M568.099 396C598.972 396 624 422.863 624 456s-25.028 60-55.901 60c-.368 0-.734-.004-1.1-.011l-.173.003-.925.008C535.028 516 510 489.137 510 456s25.028-60 55.901-60c.368 0 .734.004 1.1.011l.173-.003z" stroke-linecap="round" stroke-width="20"/></g><ellipse cx="329.232" cy="356.735" fill="#000" rx="26.729" ry="28.539"/><ellipse cx="329.232" cy="445.735" fill="#000" rx="26.729" ry="28.539"/><path d="m751.554 243.412-495.79-18.71L116.402 285.8V198l137.618-68.724 497.534 27.635" fill="#000"/><path d="M454.874 304.965v208.816c0 23.196 18.804 42 42 42h127.17c23.195 0 42-18.804 42-42V309.395c0-22.627-17.925-41.187-40.539-41.975l-127.17-4.43c-23.181-.807-42.628 17.332-43.436 40.513a42 42 0 0 0-.025 1.462z" stroke="#000" stroke-linecap="round" stroke-linejoin="round" stroke-width="20"/><path d="M414.021 299.19c.698-20.673 18.008-36.867 38.663-36.168H496v.477a42.66 42.66 0 0 1 2.462.014l127 4.423c22.613.787 40.538 19.348 40.538 41.975V514c0 23.196-18.804 42-42 42H497c-.334 0-.668-.004-1-.012V556l-.969-.045-.18-.009-43.38-2.046c-20.667 0-37.42-16.769-37.42-37.455L414 300.455c0-.422.007-.843.021-1.264z" stroke="#000" stroke-linecap="round" stroke-linejoin="round" stroke-width="20"/><path d="M700.248 364.117c11.85 49.723 17.775 84.561 17.775 104.516v116.573" stroke="#000" stroke-linecap="round" stroke-linejoin="round" stroke-width="40"/><rect fill="#000" height="79.373" rx="16" width="52.915" x="691.258" y="495.89"/><path d="m904.832 839.7-493.83 17.689-3.035 63.486M256 807l156.002 53.389m-157.11-53.171 524.747-15.995M108.253 198l145.767-68.724 506.143 30.736M254.02 72.98v48.296" stroke="#000" stroke-linecap="round" stroke-linejoin="round" stroke-width="20"/></g></svg>