<svg viewBox="0 0 960 960" xmlns="http://www.w3.org/2000/svg"><g fill="none" fill-rule="evenodd"><g stroke="#000" stroke-linecap="round" stroke-linejoin="round"><path d="m468.71 40.091 320.84 24.654c9.899.76 17.544 9.015 17.544 18.944v85.673c0 9.692-7.295 17.83-16.929 18.887l-72.045 7.902-5.058 205.16c-.589 23.871-20.11 42.916-43.987 42.916h-60.25v40.91l97.302 5.728-.024-.365c4.63-.09 8.93.284 12.9 1.123l1.345.08.165.266c5.692 1.404 10.675 3.805 14.948 7.203 11.347 9.022 18.357 29.423 18.357 31.144s-30.571 18.39-29.107 40.07c.39 5.782.593 19.482.606 41.102v4.998c-.022 32.5-.426 81.082-1.213 145.744l-1.698-25.636-.25 35.29 65.945 6.331c10.77 1.035 18.993 10.084 18.993 20.904v81.028c0 11.375-9.057 20.682-20.428 20.993l-312.118 8.517a100 100 0 0 1-11.654-.362l-248.503-22.27c-7.219-.648-12.75-6.697-12.75-13.945V109.35a20 20 0 0 1 16.119-19.62l250.95-49.64z" stroke-width="40"/><path d="m807.094 780.039-334.29 8.474a26 26 0 0 1-2.19-.037l-168.758-9.959c-13.74-.81-24.468-12.19-24.468-25.955v-534.47c0-12.953 9.534-23.93 22.359-25.744l169.44-23.964a26 26 0 0 1 5.063-.217l332.844 18.225" stroke-width="20"/><rect height="25" rx="10" stroke-width="20" width="54" x="219" y="885"/><rect height="25" rx="10" stroke-width="20" width="62" x="453" y="902"/><rect height="25" rx="10" stroke-width="20" width="56" x="714" y="897"/><path d="M346.87 187.473c4.566 119.098 6.85 185.88 6.85 200.342 0 21.695 2.746 43.513 42.993 46.276 26.832 1.842 101.722 1.842 224.671 0M488.833 439c0 15.464 22.46 28 50.167 28 27.706 0 50.167-12.536 50.167-28" stroke-width="20"/><path d="M336.306 496.465H279.5c-30.376 0-55 24.624-55 55v120.682c0 30.375 24.624 55 55 55h49.582zm0 0h356.345" stroke-width="40"/></g><ellipse cx="539" cy="490.5" fill="#000" rx="44" ry="23.5"/><path d="M724.104 762.23c-64.954 6.395-126.656 9.593-185.104 9.593-87.673 0-202.694 2.87-202.694-30.74V496.465m0 143.746h388.405" stroke="#000" stroke-linecap="round" stroke-linejoin="round" stroke-width="20"/><path d="M341 640h377v126H341z" fill="#000"/></g></svg>