<svg viewBox="0 0 960 960" xmlns="http://www.w3.org/2000/svg"><g fill="none" fill-rule="evenodd" stroke="#000" stroke-linecap="round" stroke-linejoin="round"><path d="m90.786 64.276 101.105 4.49m128.943 5.728 43.313 1.924 278.158 12.354m74.943 3.328 44.06 1.957m36.847 1.637 46.622 2.07M388.904 744.209 576 730" stroke-width="40"/><path d="M206 925c0-6.964 3-294.964 9-864m63.5 868V362m52 559V159m-52-98v115m351 706V657m66 222V350m52 521V394m-101-335v291m97-286v195" stroke-width="20"/><path d="M161.254 45.444 149.517 928.64c12.24 5.959 22.433 8.938 30.578 8.938 12.218 0 24.158.763 25.742-1.173 1.584-1.935-1.584-5.9 0-11.38s23.586-6.537 27.23-4.472c3.643 2.065 2.248 11.488 18.238 11.488s27.584.195 27.584-2.35c0-2.544.58-11.83.58-14.178s4.198-4.845 11.724 2.913c7.526 7.757 9.454 10.709 23.463 9.233 14.008-1.476 15.878-1.377 15.878-6.474s-1.26-9.743.414-11.78c1.673-2.037 14.128 4.253 27.418 5.18 13.29.928 23.915 6.39 26.312-6.91 2.397-13.299 5.24-307.744 5.24-352.73 0-44.984 3.366-512.238 1.683-517.954-1.193-4.052-21.97-6.665-40.352-1.262-7.138 2.098-14.922 9.677-19.555 12.471-1.61.972-11.094 7.238-9.925.042.448-2.763.982-5.055.982-5.172 0-.42 1.892-21.268-20.072-17.037-21.964 4.23-20.638 20.839-22.214 31.805-1.576 10.965-6.908-12.413-9.67-22.109s-6.686-15.862-25.628-11.663-10.515 17.254-22.687 14.459c-12.17-2.796 4.48-14.46-22.762-14.46-21.557 0-28.558 2.15-32.906 5.4-.504.376-3.278 2.347-4.728 6.855-.5 1.554-.777 4.595-.831 9.124zm425.644 16.939c-3.605 263.998-5.407 404.725-5.407 422.18 0 26.47 0 376.075 2.763 390.044 2.763 13.968 2.019 14.18 3.882 16.68 1.864 2.502 17.093 7.246 25.096 5.465 8.003-1.78 14.649-5.038 13.683-11.66-.965-6.624 12.848-4.874 19.537 0 6.689 4.872 27.109 10.823 39.862 7.848 12.753-2.976 10.15-4.592 9.225-8.565-.925-3.974.208-13.686 7.055-7.259s7.62 8.3 16.173 10.784c8.552 2.484 21.949 2.81 25.41 0 3.46-2.809 3.684-4.61 3.684-8.187v-8.195c0-2.815 5.575-1.486 11.52 2.473 5.946 3.958 22.253 7.993 32.262 6.857 10.009-1.135 9.86-4.2 9.86-15.35 0-11.148-4.31-514.425-4.31-535.048s-3.576-156.557-5.55-175.385c-1.974-18.827-5.743-80.044-5.743-90.303s-14.997-10.509-26.518-6.938c-11.521 3.57-15.55 7.817-16.312 6.02-.507-1.198-.391-4.895.348-11.091-13.904-3.07-23.888-2.764-29.952.918-9.096 5.523-14.347 9.153-14.347 3.443s-15.534-9.445-34.727-2.03c-19.194 7.415-16.686 7.075-17.94 3.537-.54-1.521.215-7.844-6.122-9.685-8.399-2.44-24.593-.22-27.098 0-4.563.402-10.419 1.344-17.568 2.826a11 11 0 0 0-8.766 10.621z" stroke-width="40"/></g></svg>