<svg viewBox="0 0 960 960" xmlns="http://www.w3.org/2000/svg"><g fill="none" fill-rule="evenodd" stroke="#000" stroke-linecap="round" stroke-linejoin="round"><path d="M589.886 72.78c35.17 5.801 63.68 36.36 63.68 68.254v677.932c0 31.895-28.51 62.453-63.68 68.254l-238.111 39.276c-35.17 5.801-63.68-19.28-63.68-56.021V89.525c0-36.74 28.51-61.822 63.68-56.021z" stroke-width="20"/><path d="M351.775 33.504 589.886 72.78c35.17 5.801 63.68 36.36 63.68 68.254v677.932c0 31.895-28.51 62.453-63.68 68.254l-205.448 33.89c-33.914 11.155-94.98 6.255-101.888 2.09l-77.032-35.98c-15.353-8.111-17.424-36.36-17.424-68.254V138.172c.016-30.739.523-58.008 17.424-65.392l80.71-30.402c2.197-1.325 18.492-6.34 41.106-7.828 7.526-2.03 15.781-2.474 24.441-1.046z" stroke-width="40"/><g stroke-width="20"><path d="M459.95 586.653c54.17 28.904 121.357 4.5 150.067-54.508s8.071-130.275-46.098-159.18c-54.169-28.904-121.356-4.5-150.066 54.509-28.71 59.008-8.071 130.275 46.098 159.18z"/><path d="M480.66 595.453c-17.714-4.488-34.923-12.05-49.43-19.688-54.17-27.926-74.808-92.798-46.098-146.559C403.5 394.311 437.618 371.585 474 366.18l20.598-3.425"/></g></g></svg>