<svg viewBox="0 0 960 960" xmlns="http://www.w3.org/2000/svg"><g fill="none" fill-rule="evenodd"><g stroke="#000" stroke-linejoin="round"><path d="M490 52.255c68.482 3.428 124.332 62.797 124.745 132.604l3.512 592.794c.408 69.807-57.012 135.57-128.257 146.885s-128.665-39.675-128.257-113.89l3.512-630.221c.413-74.215 56.263-131.6 124.745-128.172z" stroke-linecap="round" stroke-width="20"/><path d="M425.474 107.858c16.704-16.958 39.685-26.895 65.044-25.641 26.395 1.305 50.277 13.387 67.653 31.637 17.437 18.313 28.415 42.929 28.575 69.596l3.51 585.694c.161 27.248-11.466 53.515-29.738 74.191-18.67 21.125-44.472 36.617-73.169 41.12-25.92 4.067-49.564-2.574-66.561-17.487-17.216-15.104-27.194-38.23-27.045-65.233l3.512-622.676c.159-28.272 10.765-53.482 28.219-71.201z" stroke-linecap="round" stroke-width="20"/><path d="M479.875 32.11c3.836-.046 7.458-.013 11.113.168 39.471 1.952 75.355 19.75 101.395 47.098 26 27.307 42.124 64.076 42.362 103.774l3.509 585.697c.234 39.311-15.769 77.61-42.27 107.598-26.236 29.688-62.645 51.091-102.884 57.405a147.438 147.438 0 0 1-18.728 1.74 26.216 26.216 0 0 1-4.54.054c-17.094-.072-33.2-3.25-47.86-9.036-35.763-9.302-52.252-21.1-75.017-37.703l-.71-.518C301.745 855.936 284 823.11 284 699.394v-465.01c0-35.924 11.012-109.599 42.887-140 30.054-28.663 73.231-47.334 80.502-49.843 25.348-8.748 53.131-12.416 72.486-12.432z" stroke-width="40"/></g><path d="M414.61 181.576c4.85-46.138 42.534-79.992 84.17-75.616 41.637 4.376 71.459 45.326 66.61 91.464-4.85 46.138-42.534 79.992-84.17 75.616-41.637-4.376-71.459-45.326-66.61-91.464zm57.44 6.037c-1.154 10.986 5.946 20.735 15.86 21.777 9.913 1.042 18.885-7.018 20.04-18.003 1.154-10.986-5.946-20.735-15.86-21.777-9.913-1.042-18.885 7.018-20.04 18.003z" fill="#000"/><ellipse cx="489.982" cy="757.116" rx="72.5" ry="87" stroke="#000" stroke-linecap="round" stroke-linejoin="round" stroke-width="20" transform="rotate(6 489.982 757.116)"/></g></svg>