<svg viewBox="0 0 960 960" xmlns="http://www.w3.org/2000/svg"><g fill="none" fill-rule="evenodd"><g stroke="#000" stroke-linejoin="round"><path d="m266.741 22.678 571.865 37.057 10.337 144.479v703.28l-581.712 29.21L112 866.486V103.973z" stroke-width="40"/><g stroke-linecap="round" stroke-width="20"><path d="m271.063 916.486 1.955-732.537L271.063 43m296.42 209.558c126.473 0 229 109.466 229 244.5s-102.527 244.5-229 244.5c-1.504 0-3.004-.016-4.502-.047l-.71.014-3.788.033c-126.473 0-229-109.467-229-244.5s102.527-244.5 229-244.5c1.504 0 3.005.015 4.502.046l.711-.014z"/><path d="M555.285 300.501c-87.978 9.173-157.889 84.15-165.996 178.232"/><path d="M555.285 300.501c-.147 24.632 1.346 34.718-.886 35.055-69.14 10.44-123.811 68.924-133.428 142.799-.222 1.708-10.783 2.11-31.682 1.203"/></g></g><ellipse cx="565.078" cy="124.558" fill="#000" rx="29.971" ry="32"/><path d="M338.483 113.475v34.529l108.602 5.272v-33.397z" fill="#000"/><path d="M828.943 204.928 273.018 183.95" stroke="#000" stroke-linecap="round" stroke-linejoin="round" stroke-width="20"/><path d="m649.405 92.558 4.533 71.263 137.407 6.51-3.862-69.494z" fill="#000"/></g></svg>