<svg viewBox="0 0 960 960" xmlns="http://www.w3.org/2000/svg"><g fill="none" fill-rule="evenodd" stroke="#000" stroke-linecap="round" stroke-linejoin="round"><path d="M737.978 835.356c-1.063-.744-2.233-1.488-3.615-2.127-1.808-.957-3.935-1.914-6.168-2.87-32.434-13.08-112.402-22.332-210.022-24.246V586.675c138.561-18.61 245.752-137.604 245.752-281.27 0-156.532-127.395-283.821-283.928-283.821-156.532 0-283.821 127.289-283.821 283.822 0 143.559 107.19 262.66 245.751 281.269v219.438c-97.62 1.914-177.587 11.165-210.021 24.245a89.53 89.53 0 0 0-6.274 2.871c-1.276.745-2.552 1.383-3.616 2.127-5.848 3.935-8.932 8.614-8.932 13.93 0 1.064.106 2.234.425 3.297.213.638.425 1.17.532 1.595l9.783 38.708c.106.426.213.851.425 1.276l.32.745.637 1.382.32.425c.318.532.531.958.957 1.49l.319.425c.319.425.744.957 1.17 1.382l.212.213c.319.425.744.744 1.17 1.17l.319.318c.319.32.638.532.957.851l.425.32c.425.425.957.744 1.489 1.169l.319.213c.425.319.85.638 1.276.85l.213.107c.531.319 1.17.744 1.807 1.17.532.318 1.064.637 1.702.956l.532.32c.531.319 1.063.531 1.595.85.531.213.957.532 1.488.745l.639.319c12.973 5.955 33.284 11.165 60.294 15.632h.213c1.276.212 2.552.425 4.04.638h.214c1.17.212 2.445.319 3.615.531l22.225 2.978 35.199 3.51 44.769 2.764 61.145 1.489h19.035l45.833-1.064h.319l40.196-2.126 41.898-3.722 24.565-3.084c1.17-.213 2.34-.32 3.403-.532l.744-.106c1.17-.213 2.446-.32 3.616-.532l4.36-.744c27.117-4.36 47.427-9.677 60.401-15.632l.213-.107 1.914-.957c.531-.319 1.17-.531 1.701-.85l.745-.426c.531-.319 1.063-.532 1.382-.85l.319-.213 1.595-.957.213-.107c.425-.212.744-.531 1.17-.85l.425-.32c.532-.425 1.063-.744 1.489-1.17l.319-.212c.319-.212.638-.532.957-.85l.319-.32 1.17-1.17.425-.531a7.45 7.45 0 0 0 .85-1.063l.532-.745v-.106c.213-.32.426-.744.638-1.064l.851-1.807s0-.107.106-.107l.638-1.488 9.89-39.24c.213-.425.425-.957.532-1.595.319-1.063.425-2.233.425-3.297-.213-5.104-3.19-9.89-9.039-13.824z" stroke-width="40"/><g stroke-width="20"><path d="M205.063 305.407c0-151.623 123.418-275.041 275.04-275.041 151.623 0 275.042 123.418 275.042 275.04 0 141.675-107.677 258.644-245.526 273.402-2.186.219-4.482.437-6.668.656h-.547a276.168 276.168 0 0 1-44.601 0h-.547c-2.186-.219-4.482-.437-6.668-.656C312.74 564.05 205.063 447.08 205.063 305.407zm24.929 536.142c.319-.213.638-.532 1.276-.957a20.654 20.654 0 0 1 2.233-1.276c1.276-.745 2.871-1.383 4.679-2.127 30.2-12.23 119.18-21.162 213.398-23.076v17.603c0 8.507 9.039 9.145 16.376 9.57 5.849.426 3.961.638 12.15.638 11.803 0 10.936-.212 16.784-.957 2.872-.319 5.637-.85 7.763-2.02 2.978-1.489 4.148-3.828 4.148-7.231v-17.603c94.217 1.914 183.134 10.847 213.228 23.076a71.065 71.065 0 0 1 4.68 2.127c.85.425 1.594.85 2.232 1.276.532.319.957.638 1.276.957l-1.17 4.466c-7.55 4.147-25.202 10.315-66.568 15.951-48.704 6.7-113.465 10.315-182.373 10.315-68.909 0-133.67-3.616-182.374-10.315-41.472-5.636-59.018-11.804-66.569-15.951l-1.17-4.466z"/><path d="M421.702 251.376c-23.576-9.773-47.57-13.413-73.021-9.624-58.039 8.635-96.191 59.697-87.563 117.48 6.36 42.602 27.876 76.732 58.569 105.762 5.041 4.769 11.197 8.697 17.441 11.8 14.72 7.312 25.511 3.715 33.585-10.44 1.933-3.39 3.524-6.98 5.2-10.514 12.845-27.072 28.924-51.985 49.515-73.898 1.843-1.96 3.495-4.1 5.207-6.123-.342-.34-.64-.7-.977-1.045-19.021-15.485-31.178-39.034-31.178-65.428 0-22.47 8.864-42.839 23.222-57.97zm275.716 123.401c1.603-6.693 1.935-13.93 1.51-20.832-.995-16.265-9.415-23.738-25.557-23.63-3.868.024-7.735.442-11.597.76-29.59 2.43-58.927 1.013-87.916-5.77-2.595-.607-5.246-.962-7.829-1.425-.125.465-.287.897-.416 1.358-3.894 24.02-18.101 46.152-40.765 59.27-19.291 11.169-41.157 13.683-61.244 8.882 3.26 25.09 11.992 47.488 27.822 67.448 36.098 45.518 98.793 52.883 144.137 16.762 33.432-26.63 52.105-62.053 61.855-102.823zm-248.252-150.5c.777 2.566 1.798 5.056 2.693 7.54.465-.126.92-.202 1.384-.321 22.76-8.661 49.062-7.386 71.789 5.78 19.347 11.211 32.491 29.009 38.402 48.925 20.103-15.435 35.126-34.288 44.48-58.103 21.33-54.311-3.724-112.652-57.755-134.043-39.835-15.773-79.884-14.266-120.093-2.305-6.603 1.965-13.037 5.307-18.803 9.141-13.591 9.031-15.844 20.12-7.657 34.138 1.961 3.357 4.263 6.518 6.475 9.726 16.945 24.57 30.426 50.85 39.085 79.522z"/><path d="M482.444 229.683c-23.25 0-44.16 9.816-58.972 25.468-13.77 14.56-22.273 34.155-22.273 55.774 0 25.395 11.66 48.054 29.906 62.95 13.994 11.428 31.86 18.298 51.339 18.298 44.872 0 81.245-36.375 81.245-81.248 0-44.87-36.373-81.242-81.245-81.242z"/></g></g></svg>