<svg viewBox="0 0 960 960" xmlns="http://www.w3.org/2000/svg"><g fill="none" fill-rule="evenodd" stroke="#000" stroke-linejoin="round"><path d="M419.188 39.045a66 66 0 0 1 47.423-17.93c15.548.509 29.932 2.71 43.163 6.53 12.99 3.748 25.424 9.062 37.3 15.95l1.184.693a51 51 0 0 1 25.044 41.73c8.093 187.478 13.141 328.846 15.148 424.104 1.855 88.039 2.045 180.881.569 278.53l-.05 3.236.947.235c27.078 6.701 48.052 12.258 62.925 16.661l.577.171c9.368 2.784 16.431 5.162 21.208 7.082 21.163 8.505 18.15 18.47 19.363 20.103l.016 38.061c-38.858 23.022-88.6 39.329-149.377 48.497-60.202 9.082-124.329 10.28-155.37 10.3h-2.265a1219.43 1219.43 0 0 1-14.233-.101c-.963-.012-1.622-.021-1.954-.021-5.608 0-18.296-5.623-30.39-16.036l-.81-.7-1.188-1.04c-3.808-3.349-7.486-6.78-10.458-9.587-7.338-6.933-13.94-16.146-19.525-27.85-.409-.856-.803-1.707-1.184-2.555-.164-.877-.325-1.776-.482-2.699-1.22-7.16-1.769-13.083-1.769-17.76 0-4.245.484-10.602 1.559-19.066l.182-1.421c2.656-13.584 10.627-23.807 27.876-30.786 10.998-4.449 27.169-7.56 48.804-11.217l.579-.099V95.948a55 55 0 0 1 16.83-39.599l.45-.43z" stroke-width="40"/><g stroke-linecap="round" stroke-width="20"><path d="m414.516 70.159 17.968-16.89a46 46 0 0 1 32.985-12.46c13.846.445 26.659 2.364 38.44 5.756 11.846 3.41 23.167 8.298 33.962 14.664a31 31 0 0 1 15.226 25.363c8.1 187.173 13.153 328.312 15.162 423.416 1.973 93.423 2.06 192.27.261 296.544a23 23 0 0 1-15.207 21.244c-7.488 2.695-15.714 4.757-24.678 6.185-23.07 3.676-67.225 5.9-80.104 2.95-6.92-1.585-18.013-6.652-33.281-15.202a23 23 0 0 1-11.762-20.068v-706a35 35 0 0 1 11.028-25.502zm34.015 766.772-4.004-791.283"/><path d="M319.612 831.775c-2.601 12.937 13.392 31.434 47.98 55.491 67.984 1.888 126.481-1.475 175.492-10.089 73.516-12.921 138.983-37.999 138.983-43.978M477.251 143.554c1.015 78.362 1.523 154.126 1.523 227.29 0 76.107-.284 187.675-.852 334.704-.056 14.553 11.695 26.396 26.248 26.452a26.35 26.35 0 0 0 5.169-.491l5.651-1.108c15.038-2.946 25.877-16.141 25.847-31.465-.283-144.502-1.124-253.866-2.522-328.092-1.335-70.87-3.734-143.715-7.196-218.534-.676-14.596-11.151-26.88-25.456-29.852l-2.255-.468c-11.754-2.442-23.262 5.106-25.704 16.86a21.738 21.738 0 0 0-.453 4.704zm3.995 25.288 50 4.312m-49.804 29.688 50 3.737m-49.805 30.263 50 3.162m-49.804 30.838 50 2.587m-49.804 31.413 50 2.012m-49.804 31.988 50 1.437m-49.805 32.563 50 .862m-49.804 33.138 50 .287m-49.804 33.713 50-.288m-49.805 34.288 50-.863m-49.804 34.863 50-1.438m-49.804 35.438 50-2.013m-49.805 36.013 50-2.588m-49.804 36.588 50-3.163m-49.804 37.163 50-3.738m-49.805 37.738 50-4.313"/></g></g></svg>