<svg viewBox="0 0 960 960" xmlns="http://www.w3.org/2000/svg"><g fill="none" fill-rule="evenodd"><path d="M822.5 309c28.995 0 52.5 23.505 52.5 52.5S851.495 414 822.5 414 770 390.495 770 361.5s23.505-52.5 52.5-52.5zm-188-288c47.773 0 86.5 38.727 86.5 86.5S682.273 194 634.5 194 548 155.273 548 107.5 586.727 21 634.5 21zM327.26 321.106c33.302 5.257 61.83 17.289 85.584 36.095a382.367 382.367 0 0 1 9.645 7.88c13.376-2.279 25.993-3.418 37.851-3.418 89.5 0 192.046 30.581 252.853 148.766l1.894 3.74.142.312.342.817.416 1.072.492 1.328.72 2.02 1.203 3.5.791 2.352 1.807 5.472-3.355 7.2-2.247 4.743-.8 1.633C653.974 665.09 550.532 696.146 460.34 696.146c-10.35 0-21.279-.868-32.786-2.604a324.694 324.694 0 0 1-10.729 9.074l-2.631 2.118c-.446.356-.896.713-1.35 1.072-23.744 18.798-52.256 30.827-85.537 36.088a8.671 8.671 0 0 1-4.755-.589c-4.41-1.88-6.462-6.981-4.583-11.395 4.743-11.147 8.109-22.402 10.097-33.764 1.875-10.717 2.504-21.412 1.887-32.085-28.817-12.184-59.946-27.838-93.386-46.963l-4.793-2.756c-.802-.463-1.604-.928-2.408-1.395l-4.84-2.827c-.81-.475-1.62-.952-2.432-1.43l-4.888-2.898-2.455-1.466-.727.18-1.18.32-.848.248-1.361.422-1.47.483-1.041.355-1.652.585-1.161.423-1.833.686-1.94.747-2.05.808-2.159.868-2.267.93-3.192 1.334-3.385 1.442-3.578 1.55-3.772 1.66-2.955 1.314-4.11 1.848-1.057.48c-20.918 9.485-50.589 13.162-89.013 11.03l1.332-2.989 1.303-2.955 1.273-2.923 1.243-2.89 1.214-2.859 1.184-2.825c.195-.469.389-.935.581-1.401l1.14-2.777 1.11-2.745 1.081-2.712 1.051-2.68 1.021-2.647.992-2.615.962-2.583.933-2.55.903-2.518c.148-.417.295-.833.44-1.247l.859-2.47.829-2.436.8-2.404.769-2.372.74-2.34.71-2.307.681-2.275.33-1.125.636-2.226.607-2.194.577-2.161c.094-.358.187-.714.278-1.069l.533-2.113.503-2.08.474-2.048c.076-.339.152-.676.226-1.012l.429-2 .4-1.966c.064-.325.127-.649.188-.971l.356-1.919.325-1.885c.156-.935.3-1.858.433-2.769l.252-1.804c.631-4.77.947-9.194.947-13.273 0-1.937-.077-3.961-.231-6.073l-.13-1.6a113.232 113.232 0 0 0-.453-4.144l-.232-1.714a96.16 96.16 0 0 0-.127-.87l-.275-1.764-.304-1.797c-.16-.906-.33-1.825-.51-2.756l-.377-1.879c-.13-.631-.266-1.269-.406-1.911l-.434-1.944-.464-1.977-.492-2.01a222.55 222.55 0 0 0-.521-2.042l-.55-2.075-.58-2.108-.3-1.067-.623-2.157-.652-2.19-.68-2.222a310.1 310.1 0 0 0-.352-1.124l-.724-2.271-.753-2.305c-.128-.387-.257-.775-.388-1.164l-.796-2.354-.826-2.386-.854-2.42-.884-2.451-.912-2.485-.941-2.518-.97-2.55-1-2.583-1.028-2.615-1.597-3.985-1.1-2.698-1.13-2.73-1.159-2.765-1.187-2.795c-.2-.47-.402-.94-.605-1.41l-1.231-2.846-1.26-2.878-1.29-2.91L84 427.419v-1.649a445.31 445.31 0 0 1 3.32-.17l3.274-.142 3.231-.112c33.158-1.009 59.25 2.673 78.273 11.045l7.079 3.181 3.868 1.713 3.675 1.605 3.481 1.496 3.289 1.388 2.34.97 2.95 1.2 2.086.827 2.612 1.01 1.234.463 1.76.646 1.652.584 1.542.524.969.315.92.288 1.289.382.799.22.75.193c.122.03.24.06.358.087 15.608-9.344 30.741-17.974 45.4-25.892l4.612-2.476c14.558-7.768 28.641-14.822 42.25-21.163l4.28-1.979a685.507 685.507 0 0 1 18.876-8.317c.158-8.782-.544-17.63-2.103-26.541-1.898-10.85-5.034-21.605-9.407-32.263l-.74-1.775c-1.871-4.417.19-9.515 4.602-11.388a8.671 8.671 0 0 1 4.74-.583z" stroke="#000" stroke-linecap="round" stroke-linejoin="round" stroke-width="40"/><path d="M540.5 430c-33.413 0-60.5 27.087-60.5 60.5s27.087 60.5 60.5 60.5 60.5-27.087 60.5-60.5-27.087-60.5-60.5-60.5z" stroke="#000" stroke-linecap="round" stroke-linejoin="round" stroke-width="20"/><path d="M556.5 458.5c14.912 0 27 12.088 27 27s-12.088 27-27 27-27-12.088-27-27 12.088-27 27-27z" fill="#000"/><path d="M305.896 414c7.44-2.555 11.549-4.011 12.328-4.369 42.18-19.358 81.778-33.23 136.967-37.69M305.896 643.94c7.44 2.555 11.549 4.011 12.328 4.369 42.18 19.358 81.778 33.23 136.967 37.691M220.75 453.483c-14.866 28.765-22.152 52.304-21.857 70.618.296 18.313 8.4 45.544 24.313 81.69m423.934-68.209c12.433 3.584 21.79 5.737 28.072 6.46 6.281.723 15.638.723 28.072 0" stroke="#000" stroke-linecap="round" stroke-linejoin="round" stroke-width="20"/></g></svg>