<svg viewBox="0 0 960 960" xmlns="http://www.w3.org/2000/svg"><g fill="none" fill-rule="evenodd"><g stroke="#000"><ellipse cx="235.897" cy="417.747" fill="#000" rx="28.966" ry="25.747" stroke-width="6"/><ellipse cx="305.494" cy="524.874" fill="#000" rx="30.517" ry="27.126" stroke-width="6"/><ellipse cx="207.391" cy="497.747" fill="#000" rx="28.966" ry="25.747" stroke-width="6"/><ellipse cx="331.529" cy="442.115" fill="#000" rx="28.046" ry="24.368" stroke-width="6"/><path d="M651.243 186.08c60.121-23.773 132.108-16.063 188.97 26.785 42.718 32.19 68.741 78.074 76.365 126.185 7.681 48.466-3.281 99.188-34.571 140.71-25.305 33.582-60.055 56.031-98.182 66.56-36.613 10.112-76.349 9.206-113.742-3.44l-228.539 74.052C404.664 667.348 341.294 701 269 701c-56.897 0-108.334-20.853-145.595-54.328C85.326 612.462 62 565.137 62 513c0-5.39.25-10.726.74-16.001A172.9 172.9 0 0 1 62 481c0-39.683 13.514-76.548 36.742-106.994 23.502-30.805 56.999-55.024 96.368-68.68l3.463-1.17a221.82 221.82 0 0 1 25.832-6.783z" stroke-linejoin="round" stroke-width="40"/><path d="M697.323 487.867c68.627 26.506 146.103 11.27 188.45-42.139 51.585-65.058 31.513-162.122-44.832-216.797M70.472 481c0 92.784 87.542 168 195.53 168 71.735 0 134.448-33.192 168.47-82.676M434 565l258.758-77.979" stroke-linecap="round" stroke-linejoin="round" stroke-width="20"/></g><path d="m688.696 284.688 8.599 22.029a8 8 0 0 1-4.988 10.52l-29.625 9.59a8 8 0 0 0-4.737 11.097l18.44 38.095a8 8 0 0 0 9.227 4.253l28.832-7.546a8 8 0 0 1 9.1 4.006l14.83 28.105a8 8 0 0 0 9.4 3.921l36.543-11.093a8 8 0 0 0 4.857-11.182l-12.26-24.962a8 8 0 0 1 5.162-11.268l24.423-6.37a8 8 0 0 0 5.112-11.368l-19.017-37.395a8 8 0 0 0-9.258-4.086l-29.691 8.19a8 8 0 0 1-9.47-4.536l-10.32-23.856a8 8 0 0 0-9.325-4.574l-30.365 7.77a8 8 0 0 0-5.469 10.66z" fill="#000"/><path d="M429.5 228.621c-24.219-30.552-54.156-50.824-89.813-60.817C286.204 152.814 287.5 61.264 297 34.668" stroke="#000" stroke-linecap="round" stroke-linejoin="round" stroke-width="40"/></g></svg>