<svg viewBox="0 0 960 960" xmlns="http://www.w3.org/2000/svg"><g fill="none" fill-rule="evenodd"><g stroke="#000" stroke-linecap="round" stroke-linejoin="round"><path d="M758.451 808.107 758 685m.451-97.954V229.644l-483.298-55.956v727.675m0 0L275 633m399.39-368.383-399.237-34.973" stroke-width="20"/><path d="M455.603 253.931 813.607 649.65l-11.12 27.717L319.19 730.65l-44.037-98.836" stroke-width="20"/><path d="m275.153 578.613 58.9 122.742 479.554-52.706m-538.454-52.527 458.157-35.02m-79.017-87.91-379.14 12.666m297.685-103.226-297.685 4.736m230.741-77.051-230.741-1.442" stroke-width="20"/><path d="m762.139 807.375 115.293-22.885v-661.6L113.838 26.887v905.61l161.315-31.134" stroke-width="40"/><path d="m758.451 229.644-84.061 34.973v229.595" stroke-width="20"/><path d="m226.057 910.874 61.557-12.307V693.138l29.461 48.45 340.656-37.064 5.207 90.369L758 808.107" stroke-width="40"/></g><path d="m456.205 247.13 218.185 17.487v229.595z" fill="#000"/></g></svg>