<svg viewBox="0 0 960 960" xmlns="http://www.w3.org/2000/svg"><g fill="none" fill-rule="evenodd" stroke="#000" stroke-linejoin="round"><path d="M93.379 63.837a34 34 0 0 1 7.178-.4l721.805 36.33c9.28.467 17.511 4.615 23.341 10.968 5.83 6.352 9.258 14.91 8.929 24.194l-21.549 607.605a33.937 33.937 0 0 1-8.452 21.254 33.937 33.937 0 0 1-20.005 11.09l-693.95 114.205a33.964 33.964 0 0 1-19.774-2.68 33.964 33.964 0 0 1-14.865-13.315L46.3 823.76a34 34 0 0 1-4.881-17.553V101.213a33.93 33.93 0 0 1 8.096-22.023A33.93 33.93 0 0 1 69.95 67.656z" stroke-width="40"/><g stroke-linecap="round"><path d="m156.725 878.792-12.8 2.226c-21.764 3.785-42.476-10.79-46.262-32.555a40 40 0 0 1-.592-6.854V94.167c0-12.703 10.298-23 23-23h7.052M916.01 203.45c13.607 3.143 27.61-7.18 31.276-23.057 3.665-15.876-4.395-31.293-18.004-34.435-13.608-3.142-27.61 7.182-31.276 23.058-3.665 15.876 4.395 31.293 18.003 34.435z" stroke-width="20"/><path d="M923 145v.436a21.928 21.928 0 0 1 6.282.522c13.609 3.142 21.669 18.559 18.004 34.435-3.036 13.15-13.164 22.49-24.285 23.525L923 204l-.551-.037a21.93 21.93 0 0 1-5.998-.415L852 199.098V145z" stroke-width="20"/><path d="m168.46 155.623-6.283 635.811m61.845-633.839-5.928 625.496m61.49-623.525-5.572 615.183m61.134-613.211-5.217 604.868m60.779-602.896-4.862 594.554m60.424-592.582-4.507 584.24m60.068-582.269-4.15 573.926m59.712-571.954-3.795 563.612m59.357-561.64-3.44 553.297m62.66-551.796-6.742 543.454m63.339-541.045-7.422 532.702m64.018-532.702L775 699" stroke-width="30"/></g></g></svg>