<svg viewBox="0 0 960 960" xmlns="http://www.w3.org/2000/svg"><g fill="none" fill-rule="evenodd" stroke="#000" stroke-linejoin="round"><path d="m288.697 56.735 428.638 46.203c22.214 2.395 40.221 20.738 40.221 40.97v676.183c0 20.233-18.007 38.576-40.22 40.97l-428.639 46.204c-22.213 2.394-40.22-14.47-40.22-37.665V94.4c0-23.196 18.007-40.059 40.22-37.665z" stroke-linecap="round" stroke-width="20"/><path d="M249.277 42.936c9.726-5.35 21.267-7.915 33.68-6.598l435.307 46.204c15.99 1.697 30.46 9.055 40.936 19.564 11.233 11.267 17.8 26.02 17.8 41.296v676.196c0 15.276-6.567 30.03-17.8 41.296-10.477 10.509-24.946 17.867-40.936 19.564l-433.59 46.021-3.02 2.532-8.88-1.306c-22.62-3.328-41.085-11.32-56.095-23.65-8.029-6.596-15.492-18.686-20.039-38.094-2.874-12.269-3.405-22.436-2.33-30.65a361.95 361.95 0 0 1-.31-14.868V143.01c.015-21.763.675-39.738 2.689-47.946.577-2.354 1.197-4.457 1.957-6.485 3.033-7.682 7.268-14.144 22.058-27.422 10.004-8.982 19.743-14.637 28.573-18.22z" stroke-width="40"/><g stroke-linecap="round" stroke-width="20"><path d="m302.644 106.755 407.39 38.28c5.801.545 10.505 5.258 10.505 10.526v267.086c0 5.269-4.704 9.474-10.506 9.394l-407.389-5.677c-5.802-.08-10.505-4.928-10.505-10.828V116.45c0-5.9 4.703-10.24 10.505-9.694zM493.897 817.33c85.64 10.514 163.772-51.884 174.514-139.372 10.742-87.487-49.974-166.934-135.613-177.45-85.64-10.515-163.772 51.884-174.514 139.371-10.742 87.488 49.974 166.935 135.613 177.45z"/><path d="M506.328 716.09c30.907 3.794 59.105-18.725 62.982-50.3 3.877-31.574-18.036-60.247-48.943-64.042s-59.106 18.725-62.983 50.3c-3.876 31.574 18.036 60.246 48.944 64.041z"/></g></g></svg>