<svg viewBox="0 0 960 960" xmlns="http://www.w3.org/2000/svg"><g fill="none" fill-rule="evenodd"><g stroke="#000" stroke-linecap="round" stroke-linejoin="round"><path d="M500.807 24c66.515 0 193.824 10.173 225.13 19.537 28.8 8.615 30.145 16.825 30.175 27.562v.704c0 .708-.004 1.427-.004 2.157 0 1.395.095 11.209.263 27.53v.036c20.313 1.484 33.905 3.628 40.775 6.432 11.596 4.732 37.431 28.17 46 91.954 1.714 12.757 3.498 25.835 5.314 38.98l.546 3.946c.364 2.631.73 5.264 1.097 7.897l.55 3.948c6.61 47.372 13.444 94.297 18.747 128.917 7.366 48.082 6.115 115.444-29.837 142.895-18.885 14.42-44.942 28.55-78.171 42.391 1.113 104.422 1.96 185.925 1.96 193.668 0 22.648-.618 27.727-4.942 32.603-1.59 1.794-4.214 4.524-7.872 8.191l-1.056 1.056c-2.768 2.762-6.07 6.008-9.906 9.737 9.983 1.693 19.71 4.554 29.18 8.581 14.206 6.042 14.46 19.335 14.46 33.778l.001.438c.013 5.48.26 13.443.473 21.553l.034 1.316.034 1.316.032 1.314c.295 12.253.414 23.971-.573 27.051-1.762 5.5-13.523 17.278-22.984 18.67-9.46 1.393-281.768 6.834-298.76 6.834-16.99 0-304.935 3.191-337.084 1.527-32.15-1.664-49.906-3.73-57.198-11.584-7.293-7.854-10.174-15.427-10.174-22.769 0-4.814.169-13.664.174-22.726v-1.36c-.006-4.31-.052-8.625-.174-12.535-.392-12.553 6.065-16.225 10.174-17.21 2.595-.623 3.336-.802 4.018-.964l.17-.04 1.321-.307c6.804-1.575 24.067-5.583 41.442-9.685l2.172-.513c18.09-4.278 35.834-8.553 41.535-10.186 12.962-3.712 19.92-6.571 29.436-6.571h82.608c13.034-3.205 18.562-6.027 16.585-8.465-2.966-3.658-20.683-23.041-20.683-31.269V758.41l7.564-590.794-29.788-82.58c.566-3.126 4.037-6.818 10.413-11.076s12.481-7.941 18.315-11.048c-.12-6.56 15.52-14.519 46.918-23.876 43.33-12.913 104.332-14.793 165.61-15.01l3.996-.013 3.996-.007c2.664-.004 5.327-.006 7.988-.006z" stroke-width="40"/><path d="M764.534 221.36c10.263 70.49 17.118 120.412 20.565 149.767 4.744 40.388 15.115 80.793-15.986 115.495a98.65 98.65 0 0 1-4.875 5.06c-.97.937-.871-89.17.296-270.322zm-5.778 572.619c4.323-4.876 4.94-9.955 4.94-32.598 0-22.644-7.241-676.302-7.241-688.474M60.795 850.899h235.123c28.711 0 72.979-3.954 101.251-5.696s167.502-15.06 223.077-15.06h147.745c8.928 0 10.413.033 13.057 5.93m-493.707-27.766c3.226 2.125 12.009 3.187 26.349 3.187s156.538-.217 426.593-.65M265.51 145.507c13.536 38.123 22.26 61.615 26.173 70.478 5.87 13.294 34.87 47.947 68.689-13.646 33.819-61.594 57.902-123.681 65.017-141.953s8.682-31.622-9.311-28.138c-17.993 3.485-78.028 27.382-106.938 38.2-28.91 10.82-76.73 23.277-62.58 9.635" stroke-width="20"/><path d="M264.342 688.549c58.12-4.656 119.68-6.984 184.677-6.984 97.497 0 187.401 1.908 226.144 3.492 38.743 1.583 86.858 3.55 87.696 7.529" stroke-width="20"/></g><path d="M672.068 144.63c17.642.97 31.945 17.046 31.945 35.907v377.552c0 18.86-14.303 34.936-31.945 35.906-17.643.97-31.945-13.775-31.945-32.933V177.564c0-19.158 14.302-33.903 31.945-32.933z" fill="#000"/></g></svg>