<svg xmlns="http://www.w3.org/2000/svg" viewBox="0 0 960 960"><g fill="none" fill-rule="evenodd" stroke="#000" stroke-linejoin="round"><path d="M464.785 147.052c43.542 0 87.084 16.61 120.306 49.832a171.96 171.96 0 0 1 11.092 12.207l.801.982.628.018c44.248 1.435 84.222 19.78 113.67 48.781l.926.92C742.972 290.556 762 333.056 762 380c0 32.938-9.373 63.686-25.586 89.73a170.794 170.794 0 0 1-58.26 56.85l-.326 140.974-3.904 7.777a25 25 0 0 1-3.123 4.772l-.167.195.059.047a20.716 20.716 0 0 1 7.638 15.661l.004.408a20.666 20.666 0 0 1-9.959 17.676l-9.493 5.75 11.488 9.141a21.102 21.102 0 0 1 7.964 16.513 21.283 21.283 0 0 1-6.234 15.049l-5.272 5.273 5.276 5.277a21.272 21.272 0 0 1 6.23 15.04 21.017 21.017 0 0 1-8.89 17.166l-14.075 9.943 10.792 8.548 23.514 15.226-86.252 87.153a26.916 26.916 0 0 1-19.14 7.957c-6.91 0-13.82-2.636-19.092-7.909a27 27 0 0 1-3.501-4.308l-38.413-58.706a27 27 0 0 1-4.353-13.081l-2.008-31.784-.015-283.788c-21.813-10.756-40.986-26.052-56.282-44.657l-.516-.633-.496-.012a170.713 170.713 0 0 1-36.372-5.05l-.318-.081-100.263 99.93-8.26 2.742a25 25 0 0 1-5.332 1.143l-.508.045.024.22c1.05 10.849-6.55 21.651-19.855 22.968l-.426.038-16.02-3.774 1.685 14.838a21.103 21.103 0 0 1-6.036 17.295 21.283 21.283 0 0 1-14.462 6.235l-8.04.003v7.49a21.273 21.273 0 0 1-6.222 15.033 21.016 21.016 0 0 1-17.333 6.02l-18.069-3.098 1.59 13.724 5.854 27.393L88.68 711a26.916 26.916 0 0 1-19.16-7.908A26.915 26.915 0 0 1 61.612 684a27 27 0 0 1 .57-5.516l14.345-68.742a27 27 0 0 1 6.162-12.321l21.046-23.916 200.276-200.55c-9.721-28.088-11.874-58.214-6.448-87.203 6.094-32.555 21.728-63.68 46.917-88.868 33.222-33.222 76.764-49.832 120.305-49.832z" stroke-width="40"/><g stroke-linecap="round"><path d="M464.785 157.052c40.983 0 81.966 15.634 113.234 46.903 31.27 31.269 46.903 72.251 46.903 113.234 0 40.982-15.634 81.965-46.903 113.234-21.817 21.817-48.365 36.02-76.34 42.617a160.891 160.891 0 0 1-80.713-1.798l-1.01-.29L317.265 573.3l-6.02 1.998a15 15 0 0 1-4.245.756l-.481.008h-9.883l1.863 10.202c.632 3.46-.474 7.01-2.96 9.498a10.666 10.666 0 0 1-9.762 2.896l-.33-.076-24.703-6.073 3.282 28.887a11.103 11.103 0 0 1-3.176 9.1 11.282 11.282 0 0 1-7.637 3.304l-.345.005h-17.444v17.485c0 2.987-1.187 5.852-3.298 7.966a11.016 11.016 0 0 1-9.322 3.125l-.342-.053-30.132-5.19 3.182 27.455 3.383 15.833L88.643 701a16.947 16.947 0 0 1-12.052-4.98A16.947 16.947 0 0 1 71.61 684a17 17 0 0 1 .264-2.982l.095-.49 14.346-68.743a17 17 0 0 1 3.578-7.406l.302-.352 20.838-23.679L315.602 375.5c-10.956-28.07-13.694-58.606-8.21-87.908 5.736-30.64 20.453-59.93 44.16-83.637 31.268-31.269 72.25-46.903 113.233-46.903zm44.782 84.635c-8.06 0-16.12 3.075-22.269 9.224-6.149 6.15-9.224 14.209-9.224 22.268s3.075 16.12 9.224 22.269c6.15 6.15 14.21 9.224 22.269 9.224 8.06 0 16.12-3.075 22.268-9.224 6.15-6.15 9.224-14.209 9.224-22.269s-3.074-16.119-9.224-22.268c-6.149-6.15-14.208-9.224-22.268-9.224z" stroke-width="20"/><path d="M722.2 266.99c21.908-25.125 35.177-57.98 35.177-93.933 0-78.976-64.024-143-143-143-78.977 0-143 64.024-143 143 0 37.467 14.409 71.569 37.988 97.066" stroke-width="40"/><path d="M583.44 542.364 583 847M348.128 422.383l-215.722 215.1" stroke-width="20"/></g></g></svg>