<svg viewBox="0 0 960 960" xmlns="http://www.w3.org/2000/svg"><g fill="none" fill-rule="evenodd" stroke="#000" stroke-linecap="round" stroke-linejoin="round"><path d="M237.7 150c17.102 0 27.688 2.225 32.338 6.516 2.514 2.32 2.603 7.429 2.614 8.149 1.618 110.77 11.96 190.135 31.027 238.098 17.623 44.331 59.427 75.045 89.703 110.121 8.405-10.439 15.652-21.588 20.645-33.992 16.415-40.776 25.318-108.25 26.711-202.424.01-.612.086-4.956 2.25-6.929 4.003-3.647 13.117-5.539 27.84-5.539h.345c14.722 0 23.836 1.892 27.838 5.54 2.165 1.972 2.242 6.316 2.25 6.928 1.394 94.173 10.297 161.648 26.712 202.424 11.78 29.264 36.11 51.548 58.6 74.008 3.932-5.967 7.348-12.233 10.034-18.906 14.663-36.431 22.616-96.716 23.86-180.855.009-.547.077-4.427 2.01-6.19 3.576-3.259 11.717-4.949 24.869-4.949h.308c13.152 0 28.201 1.69 31.776 4.95 1.934 1.762 2.003 5.642 2.01 6.19 1.245 84.138 2.29 144.423 16.953 180.854 9.236 22.947 27.108 41.09 44.924 58.753a91.156 91.156 0 0 0 4.492-10.092c11.933-32.002 18.406-84.96 19.419-158.87.006-.48.062-3.89 1.636-5.437 1.654-1.628 9.64-2.81 18.191-3.527l.952-.078.955-.074.956-.07.956-.066c5.091-.343 10.081-.522 13.769-.533h.593c10.703 0 17.329 1.485 20.239 4.348 1.574 1.548 1.63 4.957 1.636 5.437 1.012 73.91 2.007 126.868 13.94 158.87C859.282 631.548 913 655.615 913 709.038s-28.33 75.961-34.327 79.787c-5.996 3.825-47.937 8.175-81.566 8.175h-15.759c-33.628 0-71.025-4.35-77.02-8.175-2.146-1.369-7.148-5.131-12.689-11.844-11.229.64-23.02 1.019-34.457 1.019h-19.364c-41.32 0-87.271-4.952-94.639-9.307-3.119-1.843-11.156-7.504-19.388-18.034-13.57.837-27.997 1.341-41.952 1.341H460.16c-46.256 0-97.695-5.543-105.943-10.417-3.656-2.16-13.344-9.002-23-21.877C307.873 722.221 278.16 724 250.09 724h-25.18c-53.73 0-113.482-6.52-123.063-12.252C92.267 706.014 47 672.236 47 592.172s95.191-116.134 124.321-189.41c19.067-47.962 29.41-127.328 31.027-238.097.01-.72.1-5.829 2.614-8.15 4.65-4.29 15.236-6.515 32.337-6.515z" stroke-width="40"/><g stroke-width="20"><path d="M694.549 548.95c20.63 49.954 88.047 74.544 88.047 129.127 0 54.582-32.059 77.61-38.844 81.52s-49.103 8.352-87.156 8.352M525.743 497.036c22.07 55.658 94.189 83.055 94.189 143.868 0 60.814-34.295 86.471-41.554 90.826-7.259 4.355-52.528 9.306-93.236 9.306M292.629 409.23c26.973 67.972 115.115 101.43 115.115 175.698s-41.914 105.602-50.786 110.92c-7.802 4.41-13.744 7.202-17.828 8.374-9.536 2.736-24.023 5.806-43.461 9.21m-57.337-562.837V-24.33M472-24l.015 288.32m176.451 77.694L648-24m141.098 438.41L789-24"/><ellipse cx="231.459" cy="695.398" rx="129.964" ry="18.566"/><ellipse cx="462.324" cy="719.395" rx="122" ry="24"/><ellipse cx="628.919" cy="755.381" rx="114" ry="17.138"/><ellipse cx="798.443" cy="775.519" rx="99.972" ry="14.282"/></g></g></svg>