<svg viewBox="0 0 960 960" xmlns="http://www.w3.org/2000/svg"><g stroke="#000" fill="none" fill-rule="evenodd"><path d="m44 315 .058-1.72C47.908 256.636 241.612 211 480 211c240.796 0 436 46.562 436 104" stroke-width="20" stroke-linejoin="round"/><ellipse stroke-width="20" stroke-linejoin="round" cx="480" cy="345" rx="426" ry="103"/><path d="M480 22c87.808 0 167.823 9.512 228.13 24.986 58.76 15.077 97.678 37.141 114.37 59.904h9.927l.006 136.385c24.826 8.39 44.96 17.735 59.6 27.586 22.707 15.28 32.93 32.492 33.89 48.988l.077 2.326v24.122c-.673 18.845-13.668 38.89-43.797 56.095-23.14 13.214-56.629 25.279-98.124 35.225C705.934 456.35 598.542 468 480 468c-118.178 0-225.274-11.579-303.352-30.21-41.446-9.89-74.952-21.884-98.19-35.03-30.21-17.089-43.47-37.046-44.4-55.804L34 322.199l.079-2.35c.96-16.495 11.182-33.709 33.888-48.987 14.64-9.852 34.773-19.197 59.6-27.586l.007-136.386h9.928l.318-.431c16.662-22.339 54.73-43.964 111.947-58.929l2.102-.545C312.177 31.512 392.192 22 480 22z" stroke-width="40" stroke-linejoin="round"/><path d="M480 275c145.25 0 263 31.34 263 70s-117.75 70-263 70-263-31.34-263-70 117.75-70 263-70zm.5 5C345.466 280 236 309.101 236 345s109.466 65 244.5 65S725 380.899 725 345s-109.466-65-244.5-65z" stroke-width="9" fill="#000"/><path d="M480 282c86.842 0 163.623 11.732 210.147 29.694C680.514 341.017 590.106 364 480 364s-200.514-22.983-210.15-52.305C316.376 293.732 393.158 282 480 282z" stroke-width="20" stroke-linecap="round" stroke-linejoin="round"/></g></svg>