<svg viewBox="0 0 960 960" xmlns="http://www.w3.org/2000/svg"><g fill="none" fill-rule="evenodd" stroke="#000" stroke-linejoin="round"><path d="M472.955 21c2.775.006 5.39.04 7.847.104a265.34 265.34 0 0 1 12.045-.064c72.622 1.26 138.365 31.248 185.956 78.704C726.54 147.346 756 212.494 756 283.85v392.28c0 71.356-29.46 136.506-77.197 184.112-47.59 47.46-113.333 77.451-185.954 78.717a265.604 265.604 0 0 1-32.271-1.393c-18.763-.82-33.788-1.97-45.079-3.422-5.828-.75-12.354-1.825-19.586-3.236-64.608-8.122-121.765-39.344-162.667-85.023C192.614 800.509 168 740.879 168 675.401V281.58c0-65.744 24.814-125.59 65.74-171.032 41.202-45.747 98.756-76.883 163.74-84.658 9.569-1.744 24.784-3.168 45.664-4.129 10.74-.494 20.15-.746 28.225-.761z" stroke-width="40"/><g stroke-linecap="round" stroke-width="20"><path d="M313.09 102.845c45.933-45.028 109.384-72.288 179.481-71.074 69.98 1.213 133.332 30.07 179.191 75.741 45.937 45.748 74.316 108.35 74.316 176.936v392.06c0 68.585-28.379 131.19-74.316 176.94-45.859 45.674-109.211 74.537-179.19 75.755-70.097 1.22-133.549-26.035-179.482-71.06-45.943-45.034-74.372-107.853-74.372-177.797V280.647c0-69.943 28.429-132.765 74.372-177.802z"/><path d="M506.35 101.066c50.778.76 96.748 21.697 130.024 54.861 33.276 33.078 53.858 78.383 53.858 128.163v392.78c0 49.78-20.582 95.087-53.858 128.167-33.276 33.167-79.246 54.107-130.023 54.872s-96.748-18.945-130.024-51.501c-33.276-32.643-53.857-78.131-53.857-128.642V281.222c0-50.51 20.581-96 53.857-128.645 33.276-32.559 79.246-52.273 130.024-51.511z"/></g></g></svg>