<svg viewBox="0 0 960 960" xmlns="http://www.w3.org/2000/svg"><g fill="none" fill-rule="evenodd"><path d="M479.476 40.96c7.789 0 19.297-3.895 45.633 29.947 12.007 15.43 28.797 41.194 52.845 84.372 58.823 105.613 118.445 347.642-.496 557.733-.503.888-2.83 7.648-5.36 14.896l-.272.779-.136.39-.563 1.617c-2.328 6.717-4.707 13.375-5.102 15.88-.847 6.939-1.468 14.645-2.093 22.969-.413 9.581-.825 19.716-1.062 29.288-.236 11.058-.235 21.537.005 31.357v9.93l-30.18 42.848-18.845 22.747-.11.086-.028.04a379.1 379.1 0 0 1-.163.22l-.488.653c-4.884 6.506-10.058 11.972-31.884 13.216-.385.022-.764.042-1.141.06-.372-.018-.749-.038-1.13-.06-23.742-1.348-28.142-7.584-31.672-12.778l-.235-.345-.116-.17-.233-.34a45.853 45.853 0 0 0-.35-.501l-.04-.056-.032-.025-18.846-22.747-30.18-42.848v-9.929c.241-9.837.242-20.335.005-31.414-.16-8.593-.554-17.584-.93-26.223l-.132-3.016c-.629-8.377-1.253-16.129-2.11-23.1-.33-2.33-2.454-8.538-4.905-15.132l-.352-.945-.355-.947-.359-.948-.36-.947c-3.002-7.875-6.072-15.355-6.74-16.547-117.41-209.615-57.98-450.421.654-555.691 23.81-42.75 40.5-68.425 52.457-83.895 26.273-33.992 37.884-30.41 45.4-30.423z" stroke="#000" stroke-width="40" stroke-linejoin="round"/><path d="M333.286 483.96s73.244-11 146.488-11c87.09 0 146.512 11 146.512 11" stroke="#000" stroke-width="20" stroke-linejoin="round"/><path d="M395.215 824.96c-6.528 38 21.355 57 83.65 57s88.844-19 79.646-57c-25.166 6.047-51.677 9.07-79.532 9.07-27.854 0-55.776-3.023-83.764-9.07z" fill="#000"/><path d="M394.286 763.96c22.619 5.334 55.286 8 98 8m-98 25c22.619 4.667 55.286 7 98 7m-123.851-85.307c48.535 4.666 85.056 7 109.565 7s57.468-2.334 98.877-7" stroke="#000" stroke-width="20" stroke-linejoin="round"/></g></svg>