<svg viewBox="0 0 960 960" xmlns="http://www.w3.org/2000/svg"><g fill="none" fill-rule="evenodd" stroke="#000" stroke-linejoin="round"><path d="M302.185 356.09c42.404-1.414 88.78 14.608 114.423 23.643 1.502.53 2.93 1.032 4.275 1.503 26.06 9.11 102.888 41.527 170.839 75.709 36.67-4.572 72.681-7.544 109.948-9.547 5.15-.277 34.603-1.407 67.397 1.03 23.898 1.775 51.192 6.355 64.792 10.306 40.126 11.658 73.27 30.813 91.465 54.131 9.536 12.22 15.211 25.63 16.43 39.84 1.14 13.293-1.585 27.417-9.373 42.1-20.777 39.169-76.397 71.52-145.538 90.318-69.471 18.888-151.763 24.564-220.194 12.556-85.266-14.963-162.069-45.701-230.43-92.156l-1.433-.626-1.006.256c-35.495 9.022-68.345 17.618-93.552 24.51l-1.031.283C147.409 655.082 97.382 662 71.85 662c-7.989 0-15.351-2.776-21.815-7.908-5.606-4.452-10.557-10.828-14.428-18.462-7.112-14.028-10.553-32.396-9.355-47.607a21.636 21.636 0 0 1-.252-3.32c0-13.295 12.213-34.017 40.047-55.658 20.933-16.276 50.232-33.622 85.729-48.856 16.257-6.977 35.096-13.668 55.777-19.583l.816-.232c-4.727-23.46-1.486-47.692 16.001-69.41l.63-.775c19.45-23.63 47.253-33.1 77.185-34.098z" stroke-width="30"/><g stroke-linecap="round" stroke-width="20"><path d="m349.207-7.456-23.975 364.084m12.697 231.756c68.55 48.458 145.988 80.29 232.313 95.497 129.487 22.81 310.082-20.163 349.888-95.497 27.45-51.948-20.392-94.939-89.455-115.081-12.955-3.778-38.962-8.093-61.72-9.79-31.86-2.377-60.476-1.284-65.48-1.014-36.835 1.987-72.432 4.932-108.674 9.461m-108.484 18.114c-30.864 6.427-63.252 14.208-98.082 23.649-132.2 35.83-173.615 47.834-214.303 57.762S42 606.295 42 585.3s45.423-60.377 116.692-91.082c58.702-25.291 152.173-46.59 243.079-40.011M662 514c19.67 11.178 79.622 51.678 85.255 54.965 5.634 3.287-22.295 52.139-30.225 47.757"/><path d="M43.697 574.477C33.202 595.901 45.919 646 70.877 646c24.957 0 73.832-6.932 163.524-31.306C324.09 590.319 512.72 544.034 571 534m101-16.06c31.505-3.427 65.496-5.122 103.009-3.014 80.48 4.523 155.755 21.303 135.719 87.074"/><path d="M255 427c1.738 6.185 5.819 17.95 14 33m33 44c7.24 8.15 15.545 16.542 25.056 24.996m68.41 47.644c18.176 9.96 38.639 19.47 61.664 28.18 156.477 59.19 246.759 43.92 348.087 12.024 45.492-14.32 76.753-36.91 93.783-67.771"/><path d="M277 543c-6.14-5.1-17.854-16.74-29-32m-20.77-40.251c-8.014-23.363-8.34-48.783 9.917-70.976 44.77-54.425 142.493-17.3 179.554-4.335S594.438 469.032 664 514"/><path d="M229.914 466.98c-4.035-29.084 7.827-56.22 54.83-46.915 60.949 12.066 141.189 33.133 253.384 93.947 74.798 40.543 134.508 74.932 179.132 103.168"/><path d="M96 589c19.669-17.871 96.748-68.41 174.219-82.51 46.76-8.51 93.021-14.536 156.781-3.49m129 33a976.176 976.176 0 0 1 15.516 6.625c1.781.779 23.246 10.889 62.14 30.809 14.762 7.56 42.543 22.082 83.344 43.566M417.812 2.658l-11.794 383.898M599.533 2.658l47.414 457.661"/></g></g></svg>