<svg viewBox="0 0 968 967" xmlns="http://www.w3.org/2000/svg"><g fill="none" fill-rule="evenodd" stroke="#000" stroke-linejoin="round"><path d="M132.036 195.105c95.415-33.522 263.376-17.013 438.196 53.618 132.744 53.633 240.717 128.652 303.333 202.59l9.182 10.925 2.463 2.959 1.357 1.655.607.761c26.33 33.735 44.134 65.33 53.771 94.606 9.147 27.786 7.532 59.296-6.23 94.551a97.838 97.838 0 0 1-3.16 9.067c-9.194 22.756-26.192 41.102-50.227 54.657-22.465 12.669-51.375 21.152-85.502 25.102-64.214 7.433-147.757-1.066-240-24.93a595.447 595.447 0 0 1-27.193 8.504c-85.98 24.654-169.419 27.709-235.435 13.175C221.14 726.48 170.281 689.57 152.9 639.115c-.288-.837-2.901-12.525-5.593-25.367l-.19-.909-.475-2.282-.32-1.544-.319-1.54-.201-.977c-2.449-11.862-4.687-23.021-5-25.037-2.48-15.952 1.476-44.328 4.114-60.767l.016-.109-.082-.067c-45.408-37.784-79.694-76.54-100.256-113.099l-.659-1.178c-23.616-42.545-28.769-82.378-15.208-115.943l.208-.512c4.523-15.008 10.896-28.236 19.027-39.73 14.3-20.214 38.992-37.837 75.202-51.6l2.514-.948 5.092-1.934z" stroke-width="40"/><g stroke-linecap="round" stroke-width="20"><path d="M186.888 538.512c59.76 45.11 136.975 88.332 226.458 124.486 241.902 97.735 445.62 96.37 485.48-2.288 39.86-98.658-99.23-257.25-341.133-354.984s-458.772-87.179-498.632 11.48c-22.17 54.87 15.084 125.435 94.134 194.08"/><path d="M566.851 312.11c-47.99-.27-101.917 7.128-157.263 22.999-163.08 46.762-276.731 149.369-253.846 229.179m389.233 105.059c142.772-53.619 234.519-158.24 209.423-245.758m-599.79 172.063c25.2 87.886 159.14 128.08 309.16 97.462 1.914-.39 6.28-1.392 13.098-3.005"/><path d="M59.05 316C57.407 364.69 96.616 423.46 164 480m40 26c58.241 44.283 130.972 86.068 213.048 120.117 224.62 93.186 433.545 103.014 486.952 15.75"/><path d="M691.835 372.354c-10.614-4.222-21.962-7.845-33.946-10.843-66.04-16.527-151.376-14.114-239.394 11.125-172.016 49.325-289.141 167.151-261.608 263.173 27.534 96.022 189.3 133.877 361.316 84.553m90.203-33.091c120.903-58.324 194.372-150.959 171.952-229.144-2.414-8.419-5.86-16.39-10.252-23.895M111.613 180.231 174.439.331m304.819 189.787L481.462.331m390.278 433L735.807 2.166"/></g></g></svg>