<svg viewBox="0 0 960 960" xmlns="http://www.w3.org/2000/svg"><g fill="none" fill-rule="evenodd"><path d="m480 0 .001 197.109" stroke="#000" stroke-linecap="round" stroke-linejoin="round" stroke-width="20"/><path d="M938.303 558.255C909.86 354.873 715.516 197.502 480.001 197.502c-235.13 0-429.223 156.857-458.16 359.757" stroke="#004dff" stroke-width="2"/><g stroke="#000" stroke-linecap="round" stroke-linejoin="round"><ellipse cx="480.001" cy="557.89" rx="457.961" ry="38.735" stroke-width="20"/><path d="M479.93 198C715.323 198 909.567 355.344 938 558.693l-.404-2.825c.269.542.404 1.085.404 1.632 0 .228-.024.456-.07.684l.07.51c.035.251-.135.5-.505.744l-.064-.001C925.43 579.8 725.22 596 480 596c-252.946 0-458-17.237-458-38.5l.025.26-.025-.063.01-.076-.01-.121c0-.37.062-.737.185-1.104C51.759 354.159 245.425 198 479.93 198z" stroke-width="40"/></g></g></svg>