<svg viewBox="0 0 960 960" xmlns="http://www.w3.org/2000/svg"><g fill="none" fill-rule="evenodd"><path d="M588.535 43.213c.313 13.741-48.007 25.965-107.93 27.303-59.923 1.338-108.754-8.717-109.07-22.458-.313-13.741 48.008-25.965 107.93-27.303 59.923-1.338 108.754 8.717 109.07 22.458z" stroke="#000" stroke-linejoin="round" stroke-width="20"/><path d="M559.535 42.252c.158 7.382-35.305 14.21-79.211 15.25-43.907 1.04-79.628-4.102-79.79-11.485-.158-7.382 35.306-14.208 79.212-15.248 43.908-1.04 79.63 4.101 79.789 11.483m39 93.383-.135 137.693v.01c-3.157 17.659-54.455 32.778-117.594 34.19-65.447 1.465-118.847-12.345-119.271-30.842V140.64c.27 11.608 53.534 19.839 118.992 18.375 64.888-1.454 117.377-11.875 118.008-23.38" fill="#000"/><g stroke="#000" stroke-linejoin="round"><path d="M589.109 183.635c.01.667-.03 1.334-.15 2" stroke-width="20"/><path d="m589.499 58.964.019-14.358s.038-3.431 0-5.072c-.248-10.582-49.272-18.078-109.498-16.745-60.235 1.333-108.86 10.992-108.612 21.574v830.285c-.61 2.545-.924 5.137-.866 7.766.723 31.251 50.129 55.502 110.364 54.169 60.226-1.333 108.47-27.747 107.745-58.99l.724-693.211v-.01z" stroke-width="40"/></g></g></svg>