<svg viewBox="0 0 960 960" xmlns="http://www.w3.org/2000/svg"><g fill="none" fill-rule="evenodd" stroke="#000" stroke-linecap="round" stroke-linejoin="round"><path d="m437.817 24.65 12.18 4.92c14.85 6 22.024 22.902 16.025 37.752l-17.739 43.91c29.848 28.931 40.167 76.579 22.462 120.4-2.154 5.331-46.033-7.37-98.008-28.37-51.975-20.999-92.363-42.344-90.21-47.674l.696-1.685c18.053-42.83 58.067-69.245 99.1-69.321l17.742-43.908c6-14.85 22.902-22.024 37.752-16.025z" stroke-width="40"/><path d="M470.745 231.632c22.24-52.468-1.97-111.29-54.072-131.382s-112.368 6.154-134.607 58.622c40.454 19.78 71.622 33.89 93.504 42.328 20.047 7.73 51.772 17.875 95.175 30.432z" stroke-width="20"/><path d="m475.738 79.861 56.36 29.14c14.553 4.375 21.829 20.347 21.829 47.915v699.418" stroke-width="30"/><path d="M480 854c48.908 0 89.533 11.464 97.56 26.531H579L589.698 907H587c0 17.673-47.906 32-107 32s-107-14.327-107-32c0-1.978.6-3.914 1.75-5.793L381 880.53h1.44C390.467 865.464 431.092 854 480 854z" stroke-width="40"/></g></svg>