<svg viewBox="0 0 960 960" xmlns="http://www.w3.org/2000/svg"><g fill="none" fill-rule="evenodd" stroke="#000" stroke-linecap="round" stroke-linejoin="round"><path d="M479.713 87.967c121.924 0 236.6 19.31 322.768 54.397 84.074 34.145 132.232 80.77 132.232 128.103a70.31 70.31 0 0 1-.338 6.877l2.262 120.443c.05 1.06.076 2.12.076 3.18l-.008.65.008.35-.011-.001-.004.393c-.957 45.946-49.253 91.099-132.944 124.254-86.641 34.414-201.948 53.354-324.541 53.354-122.594 0-237.9-18.94-324.542-53.354-83.93-33.25-132.261-78.566-132.95-124.647h-.008l.003-.334a66.794 66.794 0 0 1 .09-4.192l2.712-126.473h.196a69.798 69.798 0 0 1-.001-.5c0-47.333 48.157-93.958 132.232-128.103 86.168-35.088 200.844-54.397 322.768-54.397z" stroke-width="40"/><g stroke-width="20"><path d="M479.764 580.18c-119.78 0-232.44-18.94-317.093-53.354-82.596-33.49-129.907-79.222-129.907-125.646 0-46.425 47.311-92.156 129.907-125.647 84.653-34.414 197.313-53.353 317.093-53.353s232.44 18.94 317.094 53.353c82.596 33.49 129.906 79.222 129.906 125.647 0 46.424-47.31 92.156-129.906 125.646-84.654 34.415-197.313 53.354-317.094 53.354z"/><path d="M479.764 542.086c-109.58 0-212.646-14.865-290.091-41.878-75.563-26.287-118.845-62.182-118.845-98.622 0-36.439 43.282-72.334 118.845-98.622 77.445-27.012 180.511-41.878 290.091-41.878s212.647 14.866 290.092 41.878c75.563 26.288 118.845 62.183 118.845 98.622 0 36.44-43.282 72.335-118.845 98.622-77.445 27.013-180.511 41.878-290.092 41.878z"/></g></g></svg>