<svg viewBox="0 0 960 960" xmlns="http://www.w3.org/2000/svg"><g fill="none" fill-rule="evenodd" stroke="#000"><path d="M395 771c28.855 5.08 114.784 13 166 13m-161 27c32.668 5.402 112.446 13 161 13" stroke-linecap="round" stroke-width="15"/><path d="M388 746c5.756 15.953 8.634 35.246 8.634 57.878v51.638c29.804 42.775 55.58 66.08 77.332 69.917.959.17 4.541.567 7.534.567 3.699 0 6.92-.441 8.24-.698 21.603-4.212 47.145-27.474 76.626-69.786v-51.638c0-22.632 2.878-41.925 8.634-57.878" stroke-linecap="round" stroke-linejoin="round" stroke-width="20"/><path d="m569 852-9.32 12.448c-11.477 24.39-22.04 36.717-31.692 36.98-13.942.381-28.631.572-44.068.572a16.45 16.45 0 0 1-1.92-.11c-.62.072-1.261.11-1.92.11-15.437 0-30.126-.19-44.068-.572-9.651-.263-20.215-12.59-31.692-36.98L395 852c25.254 1.583 53.614 2.375 85.08 2.375.659 0 1.3.037 1.921.11.62-.073 1.26-.11 1.92-.11 31.465 0 59.825-.792 85.079-2.375z" fill="#000" stroke-width="2"/><g stroke-linecap="round" stroke-linejoin="round"><path d="M480.5 23.316c-145.819 0-264.028 118.162-264.028 263.923 0 61.167 20.816 117.475 55.754 162.23l.571.95c65.306 84.587 100.195 151.997 104.223 199.625v79.95h206.946v-79.95c3.87-47.435 37.417-113.267 102.69-197.839l3.162-4.083c34.308-44.535 54.71-100.327 54.71-160.883 0-145.76-118.21-263.923-264.028-263.923zM376.843 733.378c6.175 23.731 9.262 47.748 9.262 72.05 0 24.303.309 41.926.926 52.869l50.64 59.327c13.879 13.128 27.608 19.692 41.188 19.692M582.93 733.378c-6.174 23.731-9.261 47.748-9.261 72.05 0 24.303-.309 41.926-.926 52.869l-50.64 59.327c-13.88 13.128-27.609 19.692-41.188 19.692" stroke-width="40"/><path d="M465.03 300c-18.933 0-50.714 46.625-60.01 84.5-11.255 45.857 2.82 84.5 14.024 84.5 20.459 0 37.044-37.832 37.044-84.5S439.503 300 419.044 300 382 337.832 382 384.5" stroke-width="20"/><path d="M511.015 300c-18.933 0-50.714 46.625-60.01 84.5-11.254 45.857 2.82 84.5 14.024 84.5 20.459 0 37.044-37.832 37.044-84.5S485.488 300 465.029 300" stroke-width="20"/><path d="M575.427 384.13c-.434-16.415-.917-27.723-1.45-33.926-2.158-25.154-9.005-48.695-24.364-48.695-12.389 0-45.572 54.266-52.622 82.991-11.255 45.857 2.82 84.5 14.024 84.5 20.458 0 37.043-37.832 37.043-84.5S531.473 300 511.015 300M382 384.5c0 56.098 31.795 123.135 39.735 183.687 1.132 8.639 1.78 17.145 1.78 25.47V677.5m152-293c0 64.101-41.515 142.486-41.515 209.157 0 30.32-.692 58.268-2.077 83.843" stroke-width="20"/></g></g></svg>