<svg viewBox="0 0 960 960" xmlns="http://www.w3.org/2000/svg"><g fill="none" fill-rule="evenodd" stroke="#000" stroke-linecap="round" stroke-linejoin="round"><path d="M488.802 228.5c170.575 0 317.591 31.374 384.828 76.594 0 2.832.065 5.591.183 8.274 41.356 16.032 65.133 34.802 65.133 54.864v59.536c0 58.945-205.277 106.732-458.5 106.732s-458.5-47.787-458.5-106.735v-59.533c0-21.748 27.94-41.976 75.922-58.846 64.125-47.518 215.011-80.886 390.934-80.886z" stroke-width="40"/><path d="M480.446 277.5c-253.223 0-458.5 47.707-458.5 106.557v59.437c0-58.847 205.283-106.554 458.5-106.554 253.223 0 458.5 47.707 458.5 106.56v-59.443c0-58.85-205.277-106.557-458.5-106.557z" stroke-width="20"/></g></svg>