<svg viewBox="0 0 960 960" xmlns="http://www.w3.org/2000/svg"><g stroke="#000" fill="none" fill-rule="evenodd" stroke-linecap="round" stroke-linejoin="round"><path d="M645.546 857.355C716.747 859.931 765 868.453 765 877.999v35.259C765 924.162 687.993 933 593 933c-94.042 0-170.458-8.662-171.977-19.416l-.023-.326v-35.259c0-10.05 54.679-18.453 131.705-20.515" stroke-width="40"/><path d="M612.479 768.498c18.46-29.781 82.602-137.602 192.423-323.461L448.645 187.396l-10.961-29.848 377.26 221.314 83.07 28.466-262.806 388.561c.123-1.479.123-2.484 0-3.017-.93-4.027-1.159-15.078-2.016-17.934-.941-3.135-5.606-4.657-7.68-5.067-7.497-1.48-13.536-.562-13.033-1.373z" stroke-width="20"/><rect stroke-width="20" x="565.918" y="770.556" width="67.274" height="104" rx="6"/><path d="m348.114 69.609 39.095 9.747c15.54 3.875 24.998 19.614 21.123 35.154l-18.506 74.233c46.404 33.847 69.687 97.059 53.888 160.425-1.921 7.708-64.405-1.233-139.56-19.972-75.154-18.738-134.522-40.177-132.6-47.885h0l.628-2.438c16.466-62.078 66.137-105.915 122.269-113.91L312.96 90.73c3.875-15.54 19.614-24.997 35.154-21.122z" stroke-width="40"/><path d="M443.714 349.168c20.34-76.069-24.096-151.899-99.251-169.371-75.155-17.473-152.569 30.028-172.909 106.097 59.157 19.286 104.517 32.598 136.08 39.936 28.917 6.722 74.277 14.502 136.08 23.338zm-75.696-267.82c2.719-35.136 11.79-55.858 27.21-62.167 23.132-9.462 72.509-3.997 81.56 33.948 9.05 37.944-50.235 87.99-25.864 110.52m363.458 218.096-9.48 63.93 59.875 8.15 19.892-50.164zm-9.48-11.455c13.816 2.683 27.899.294 42.248-7.165 21.523-11.189 76.453-56.821 36.886 32.781M667.848 676.403 851.445 453.44m-456.03-289.791 72.332 17.209m56.555 60.526L765 351.936" stroke-width="20"/></g></svg>