<svg viewBox="0 0 960 960" xmlns="http://www.w3.org/2000/svg"><g fill="none" fill-rule="evenodd" stroke="#000" stroke-linecap="round" stroke-linejoin="round"><g stroke-width="20"><path d="M743.324 833.567c-122.65 102.72-276.17 123.562-342.201 46.596l-9.562-12.803c-51.5-79.645-3.99-216.01 112.26-313.371 59.706-49.946 128.372-82.251 193.349-90.811 11.37-1.489 22.437-2.233 33.053-2.233 49.316 0 89.748 16.078 115.874 46.522 66.031 77.114 19.952 223.38-102.773 326.1z"/><path d="M516.458 202.011c48.65 0 88.622 16.055 114.677 46.474l.785.926 203.665 243.305-.966.912c4.203 3.773 8.14 7.84 11.795 12.196 65.796 78.57 19.881 227.594-102.408 332.252-122.214 104.659-275.188 125.894-340.984 47.476l-.545-.746L222.16 653.574a119.562 119.562 0 0 1-14.213-14.297l-9.528-13.045c-51.317-81.148-23.396-230.224 92.442-329.422 59.494-50.888 127.916-83.802 192.661-92.524 11.33-1.517 22.358-2.275 32.936-2.275z"/><path d="M707.126 783.754c-92.943 76.004-209.28 91.425-259.317 34.477l-7.246-9.473c-39.026-58.93-3.024-159.829 85.07-231.867 45.245-36.956 97.28-60.858 146.518-67.192 8.616-1.102 17.003-1.652 25.048-1.652 37.371 0 68.01 11.896 87.808 34.422 50.038 57.058 15.12 165.28-77.88 241.285z"/></g><path d="M350.732 27.268c153.3 0 277.573 54.246 277.573 121.162 0 3.55-.35 7.066-1.036 10.539v71.761a122.762 122.762 0 0 1 7.016 7.452l.805.94 208.978 247.014-.99.925a122.832 122.832 0 0 1 12.102 12.382c67.512 79.767 20.4 231.063-105.08 337.316-125.402 106.254-282.366 127.813-349.879 48.2l-.559-.758-185.02-234.756a122.03 122.03 0 0 1-14.584-14.515l-9.777-13.243c-30.73-48.08-33.768-119.648-7.344-190.931-65.572-22.783-108.308-58.599-109.74-99.005l-.03-1.577h-1.051V147.387l1.053-.001C74.456 80.95 198.232 27.268 350.732 27.268z" stroke-width="40"/><path d="M455.951 206.01c-24.554-2.634-50.302-4.035-76.838-4.035-169.188 0-306.342 56.972-306.342 127.252 0 41.389 47.57 78.163 121.237 101.403" stroke-width="20"/></g></svg>