<svg viewBox="0 0 960 960" xmlns="http://www.w3.org/2000/svg"><g stroke="#000" fill="none" fill-rule="evenodd" stroke-linecap="round" stroke-linejoin="round"><path stroke-width="20" d="m480-63 .014 460.214"/><ellipse stroke-width="20" cx="480.014" cy="693.332" rx="375.881" ry="31.793"/><path d="M479.942 398C673.191 398 832.658 527.081 856 693.904l-.216-1.483a2.875 2.875 0 0 1 .205 1.323l.011.16a.384.384 0 0 1-.008.146l-.048-.001C852.447 711.193 685.47 725 480 725c-207.66 0-376-14.103-376-31.5 0-.111.007-.222.02-.333l-.02-.08C127.748 526.66 287.01 398 479.942 398z" stroke-width="40"/></g></svg>