<svg viewBox="0 0 960 960" xmlns="http://www.w3.org/2000/svg"><g fill="none" fill-rule="evenodd" stroke="#000" stroke-linecap="round" stroke-linejoin="round"><path d="M490.696 21.13c77.198-1.347 140.42 7.923 144.546 20.897L637 42l-1.608 170.67-2.523.046c-5.659 6.044-67.8 11.81-143.708 13.134-74.8 1.306-136.39-2.164-143.786-7.856L345 218l.001-.345c-.24-.266-.365-.536-.37-.81-.005-.293.127-.587.392-.88l2.273-165.634a4.678 4.678 0 0 1-.498-1.987c-.238-13.638 64.187-25.823 143.898-27.214z" stroke-width="40"/><g stroke-width="20"><path d="M502.005 205h24.259l134.98 1096.32-140.778-832.643-5.747 918.514-40.164-1046.384-2.156 10.67-202.732 1003.037L453.01 211.6l9.458-6.601h39.538z"/><path d="M520.823 207.121v15.507l-7.23 1170.15-44.766-1180.804zm112.466-13.976c-.111-6.364-64.82-10.396-144.53-9.005s-144.24 7.679-144.128 14.044"/></g></g></svg>