<svg viewBox="0 0 960 960" xmlns="http://www.w3.org/2000/svg"><g fill="none" fill-rule="evenodd"><path d="M358.815 124.746c12.866-1.131 24.588-.963 35.169.43 13.124 1.729 27.833 6.412 44.059 14.304a37.508 37.508 0 0 1 18.298 19.434 37.484 37.484 0 0 1 .735 26.809l-1.283 3.535c-1.49 4.102-2.961 8.175-4.412 12.218l-2.169 6.061c-33.499 93.927-56.36 171.852-68.507 233.796-16.786 85.601-19.632 181.533-16.587 253.46l.088 2.048 1.604-1.929c45.55-55.21 82.77-136.832 108.838-225.322l.915-3.127c6.927-23.795 13.414-47.051 19.57-69.468l2.628-9.585 2.587-9.472 8.794-32.277 2.446-8.952 2.42-8.82c16.008-58.209 30.424-107.188 45.598-140.421 15.378-33.682 32.87-51.05 50.547-54.447 34.174-6.567 100.353 10.34 104.002 12.58a47.321 47.321 0 0 1 18.324 20.812 46.968 46.968 0 0 1 3.481 27.445c-7.651 44.84-13.371 77.708-17.159 98.603-2.332 12.87-5.244 28.6-8.734 47.19l-.028.145.822-.981c48.593-57.99 100.591-112.625 142.941-150.273l1.667-1.477c.596-.528 1.48-1.26 2.66-2.186l26.28-20.602-1.633 132.834c-2.89 3.8-4.888 6.383-5.986 7.757l-4.403 5.509-.984 1.23-38.055 47.613c-1.147 1.56-11.94 16.425-23.726 32.673l-.778 1.073-.39.538-.782 1.078-1.567 2.16L804.47 399l-.777 1.072-.776 1.07-.775 1.069-1.924 2.654-.764 1.054c-11.045 15.238-20.749 28.645-21.684 30.007-38.637 56.248-89.708 169.751-153.59 340.287-3.776 10.08-10.362 22.151-19.95 36.117-.163.238-.326.474-.49.71-.21.25-.423.5-.638.746-10.183 11.684-25.548 18.424-41.926 17.158l-1.668-.133-1.67-.143-1.645-.152-1.596-.158c-6.077-.622-11.554-1.42-16.435-2.379l-1.317-.266-1.293-.275a105.249 105.249 0 0 1-7.122-1.803l-1.576-.474-1.143-.359-1.1-.358c-.403-.133-.81-.269-1.22-.409l-1.098-.379a73.483 73.483 0 0 1-.651-.23l-1.154-.414-1.173-.431-.664-.249-1.196-.455-1.24-.482-1.234-.489-.683-.275-1.235-.503-.693-.286-1.263-.529a251.93 251.93 0 0 1-.703-.297l-1.292-.554-.714-.309-1.34-.586-1.377-.612-1.396-.628-1.397-.637-.747-.343-1.409-.654-.76-.355-1.452-.686-1.48-.706-.751-.36a52.697 52.697 0 0 1-25.23-25.884 52.867 52.867 0 0 1-3.965-13.142l-.019-.113-1.18 1.545c-16.02 20.778-34.324 37.73-54.787 48.332l-1.75.888-.104.065c-9.222 5.652-25.665 10.31-50.52 6.052l-.788-.138c-16.462-2.924-37.08-9.82-61.912-23.282-21.09-11.433-36.927-34.174-47.071-65.88-6.303-19.698-10.502-42.929-12.912-68.485l-.07-.747-.23.309c-.623.83-1.244 1.653-1.864 2.469l-.929 1.219-1.488 1.935-.802 1.034-1.554 1.987c-5.554 7.06-11.029 13.579-16.42 19.558l-1.509 1.662a278.151 278.151 0 0 1-12.342 12.694c-39.99 38.49-71.134 63.083-96.205 79.767-3.322 2.21-12.833 8.391-28.543 18.525l-.1-112.438a3522.49 3522.49 0 0 0 7.848-8.689c47.557-52.969 82.72-100.984 105.33-144.15a972.272 972.272 0 0 0 44.37-97.308c14.35-36.665 43.383-137.82 54.571-176.748 2.074-7.214 3.545-12.33 4.212-14.57l31.045-104.225a43.145 43.145 0 0 1 14.224-20.775 43.19 43.19 0 0 1 23.22-9.306z" stroke="#000" stroke-width="32" stroke-linejoin="round"/><path d="M337.816 149.733c-42.4 136.536-68.817 248.933-79.252 337.19-16.281 137.695-13.593 284.056 45.913 317.165 59.506 33.11 92.732 25.332 101.826 15.036 9.094-10.295-47.536 7.247-54.166-68.992-6.631-76.24-6.933-202.323 14.054-312.172 13.295-69.585 39.18-158.527 77.655-266.827h0c3.646-10.262-.918-21.633-10.647-26.527-14.736-7.413-28.055-11.924-39.955-13.533-9.597-1.297-20.231-1.418-31.9-.363h0a27.2 27.2 0 0 0-23.528 19.023zm295.21-9.502a161.658 161.658 0 0 1 34.131 1.785 1502.08 1502.08 0 0 1 27.424 4.635h0c16.88 3.013 28.165 19.083 25.27 35.983-16.577 96.769-32.947 186.76-49.11 269.973-14.15 72.845-39.085 187.755-74.808 344.728h0c-3.78 16.612-19.15 27.954-36.138 26.669-12.509-.947-22.656-2.567-30.442-4.862-8.047-2.371-18.38-6.643-31-12.816h0c-15.957-7.806-24.06-25.896-19.261-43 34.849-124.194 62.644-234.643 83.386-331.346 24.38-113.666 37.193-220.485 39.614-238.124 1.568-11.43 2.876-21.009 3.924-28.734h0c1.858-13.707 13.198-24.156 27.01-24.89z" stroke="#000" stroke-width="16" stroke-linecap="round" stroke-linejoin="round"/><g transform="translate(273 132)" fill="#000"><ellipse cx="95.554" cy="74.8" rx="22.789" ry="20.4"/><ellipse cx="118.342" cy="11.2" rx="24.788" ry="11.2"/><ellipse cx="77.162" cy="144.4" rx="22.789" ry="20.4"/><ellipse cx="388.211" cy="67.6" rx="22.789" ry="20.4"/><ellipse cx="377.017" cy="138.8" rx="22.789" ry="20.4"/><ellipse cx="365.022" cy="210" rx="22.789" ry="20.4"/><ellipse cx="351.429" cy="282" rx="22.789" ry="20.4"/><ellipse cx="335.437" cy="354" rx="22.789" ry="20.4"/><ellipse transform="rotate(12 317.046 432.4)" cx="317.046" cy="432.4" rx="22.789" ry="20.4"/><ellipse transform="rotate(10 297.855 512.4)" cx="297.855" cy="512.4" rx="22.789" ry="20.4"/><ellipse transform="rotate(10 278.664 591.6)" cx="278.664" cy="591.6" rx="22.789" ry="20.4"/><ellipse cx="57.172" cy="217.2" rx="22.789" ry="20.4"/><ellipse cx="39.581" cy="294" rx="22.789" ry="20.4"/><ellipse cx="27.587" cy="370.8" rx="22.789" ry="20.4"/><ellipse cx="22.789" cy="444.4" rx="22.789" ry="20.4"/><ellipse cx="25.188" cy="521.2" rx="22.789" ry="20.4"/><ellipse cx="31.585" cy="597.2" rx="22.789" ry="18.8"/></g></g></svg>