<svg viewBox="0 0 960 960" xmlns="http://www.w3.org/2000/svg"><g fill="none" fill-rule="evenodd"><path d="M638.982 738.201c-24.027 7.829-79.558 10.691-156.815 10.807-77.257-.116-136.122-2.978-160.15-10.807M661.494 486.95c-27.44 7.829-90.859 10.691-179.09 10.807-88.231-.116-155.457-2.978-182.898-10.807" stroke="#000" stroke-width="18"/><path d="M367.941 857.973h70.237v41.141c-14.874 3.292-29.746 4.492-44.618 3.601a161.318 161.318 0 0 1-15.571-1.695 168.07 168.07 0 0 1-10.048-1.906zm16.209 0h37.82v-46.828h-37.82zm154.88 0h37.82v-46.828h-37.82z" stroke="#000" stroke-linejoin="round" stroke-width="18"/><path d="M394.842 811.145v46.828h10.805v-46.828zm-3.878 46.828h-11.316v43.32A173.763 173.763 0 0 0 395.856 903v-45.027z" fill="#000"/><path d="M522.822 857.973h70.237v41.141c-14.874 3.292-29.746 4.492-44.62 3.601-5.19-.31-10.38-.875-15.57-1.695a167.947 167.947 0 0 1-10.047-1.906z" stroke="#000" stroke-linejoin="round" stroke-width="18"/><path d="M549.722 811.145v46.828h10.806v-46.828zm-3.878 46.828h-11.316v43.32A173.763 173.763 0 0 0 550.737 903v-45.027z" fill="#000"/><path d="m380.521 801.239-.455-.011c-14.837-.715-41.187-35.844-56.452-51.31l-1.349-1.351c-2.453-2.51-2.917-3.902-3.029-8.268l-.091-3.36c-1.551-54.411-5.755-86.173-5.755-193.687 0-25.48-7.34-44.09-24.77-55.88-32.174-24.195-142.93-141.368-169.983-347.148-13.114-4.398-21.42-9.843-22.033-19.661l-.019-.353a95.712 95.712 0 0 0-.18-2.92l-.145-1.87c-.06-.766-.116-1.517-.161-2.253a53.05 53.05 0 0 1-.099-3.223c.016-.373.029-.743.051-1.11.08-1.34.275-2.635.652-3.891.191-.64.431-1.27.727-1.89 1.94-4.078 6.447-7.637 15.783-11.368C156.35 74.445 428.037 70.687 483.2 70.051s321.88 4.567 364.587 21.634l1 .406c8.66 3.584 12.913 7.032 14.783 10.962.296.62.536 1.25.727 1.89.377 1.256.573 2.55.652 3.89.022.368.035.738.051 1.11a53.05 53.05 0 0 1-.099 3.224c-.03.49-.065.988-.103 1.492l-.203 2.63a119.52 119.52 0 0 0-.13 1.932l-.05.99c-.435 10.04-8.782 15.563-22.052 20.013-27.053 205.78-137.81 322.953-169.983 347.147-17.43 11.79-24.77 30.402-24.77 55.88 0 108.612-4.29 139.917-5.802 195.36l-.044 1.688c-.112 4.366-.576 5.757-3.03 8.268l-1.348 1.35c-15.265 15.467-41.615 50.596-56.452 51.31l-.455.012z" stroke="#000" stroke-width="36"/></g></svg>