<svg viewBox="0 0 960 960" xmlns="http://www.w3.org/2000/svg"><g fill="none" fill-rule="evenodd"><path d="M679.84 183.336c-12.4-88.666-97.125-157.272-199.8-157.272-102.505 0-187.122 68.382-199.737 156.838" stroke="#004dff" stroke-width="2"/><g stroke="#000" stroke-linecap="round" stroke-linejoin="round"><ellipse cx="480.041" cy="183.177" rx="199.651" ry="16.887" stroke-width="20"/><path d="M479.97 26C582.76 26 667.583 94.759 680 183.622l-.201-1.391c.134.255.201.511.201.769 0 .112-.013.224-.038.335l.038.287c.019.135-.097.267-.342.397l-.01-.001C673.452 192.933 586.435 200 480 200c-110.457 0-200-7.611-200-17l.024.246-.024-.06.01-.072L280 183c0-.193.038-.386.113-.578C293.12 94.14 377.641 26 479.97 26zm46.01 843.197c62.293 2.254 104.508 9.71 104.508 18.061v30.847c0 9.54-67.371 17.272-150.478 17.272-82.275 0-149.13-7.579-150.458-16.987l-.02-.285v-30.847c0-8.793 47.836-16.144 115.224-17.948 2.585-.07 80.567-.137 81.225-.113zm-45.7-2.935L480 183" stroke-width="40"/></g></g></svg>