<svg viewBox="0 0 960 960" xmlns="http://www.w3.org/2000/svg"><g fill="none" fill-rule="evenodd" stroke="#000" stroke-linejoin="round"><path d="M372.82 22c.774 0 1.519.005 2.236.016 2.124-.038 3.757.02 5.407.147l82.135 6.297c14.683 1.126 28.011 7.875 37.644 17.974C510.083 56.753 516 70.476 516 85.026V427h212.88c14.522 0 27.732 6.148 37.27 16.274 9.119 9.68 14.85 23.029 14.85 37.825 0 14.632-5.605 27.85-14.549 37.503-9.39 10.134-22.427 16.37-36.793 16.59l-.583.004-213.076 2.336.001 337.442c0 14.55-5.917 28.273-15.758 38.592-9.633 10.1-22.961 16.848-37.644 17.974l-82.135 6.297c-1.849.142-3.676.19-5.476.15-.698.008-1.423.013-2.175.013h-.74c-7.887-.019-30.469-.843-50.09-12.933C305.57 914.954 295 898.393 295 878.56V81.942c0-12.076 4.608-23.128 12.408-32.397 7.5-8.914 18.059-16.081 29.004-20.571C343.926 25.89 366.537 22 372.821 22z" stroke-width="40"/><g stroke-linecap="round" stroke-width="20"><path d="M509.729 538.379v336.326c0 18.748-17.08 35.145-38.15 36.624l-89.701 6.298c-21.07 1.479-38.149-12.934-38.149-32.191V74.026c0-19.257 17.08-33.67 38.149-32.19l89.702 6.297c21.069 1.479 38.149 17.876 38.149 36.624V439"/><path d="M468.139 437.967c-9.633-10.696-22.608-17.25-36.88-17.25-29.726 0-53.823 28.43-53.823 63.5s24.097 60.438 53.823 60.438c14.506 0 27.672-3.708 37.352-14.716"/><path d="m468.878 527.507-39.403-2.171c-3.601-.17-5.778-.287-6.53-.353-20.76-1.833-37.067-20.192-37.067-42.57 0-23.593 18.129-42.72 40.49-42.72 1.29 0 15.46-.395 42.51-1.186"/><path d="M729 439v.02c17.21.702 31 19.452 31 42.48s-13.79 41.778-31 42.48v.507l-255.409 3.506c-.196.005-.393.007-.591.007-17.673 0-32-19.923-32-44.5s14.327-44.5 32-44.5z"/></g></g></svg>