<svg xmlns="http://www.w3.org/2000/svg" viewBox="0 0 960 960"><g fill="none" fill-rule="evenodd" stroke-linejoin="round" stroke="#000"><path d="M174.82 248.756c82.673-47.926 193.75-75.564 315.043-71.328 124.33 4.342 235.616 41.352 315.203 97.205C888.363 333.091 936.813 412 933.873 496.178a207.75 207.75 0 0 1-.579 9.86l-.004 18.24c-2.627 79.602-56.275 151.04-144.017 200.582-83.05 46.893-196.408 74.025-320.55 69.687-122.78-4.29-232.893-38.55-312.277-90.165-83.841-54.513-133.15-128.246-132.435-206.724l.093-4.31V434.1l3.892.107.124-.684c13.605-72.72 65.796-137.121 144.108-183.254z" stroke-width="40"/><ellipse stroke-width="20" stroke-linecap="round" transform="rotate(2 479.501 479.924)" cx="479.501" cy="479.924" rx="435.055" ry="283"/><path d="M327.038 444.78c1.849-52.94 70.264-93.519 152.81-90.636 82.545 2.883 147.962 48.136 146.114 101.075-1.849 52.94-70.264 93.519-152.81 90.636-82.545-2.882-147.962-48.135-146.114-101.075zm135.437-.147c-.173 4.968 5.965 9.214 13.71 9.485 7.747.27 14.166-3.538 14.34-8.505.173-4.968-5.965-9.214-13.71-9.484-7.747-.271-14.166 3.537-14.34 8.504z" stroke-width="20" stroke-linecap="round"/></g></svg>