<svg viewBox="0 0 960 960" xmlns="http://www.w3.org/2000/svg"><g fill="none" fill-rule="evenodd"><g stroke="#000" stroke-linejoin="round"><path d="M169.431 532.024V315.499l145.792-21.87 171.908 10.935V713.01l-171.908 26.14-113.954-8.702" stroke-linecap="round" stroke-width="40"/><path d="M315.223 293.629V739.15" stroke-linecap="round" stroke-width="20"/><path d="m21.235 563.36 40.47-22.682H173.73l25.457 198.438-32.796 17.999c-32.09 6.257-57.077 8.606-74.96 7.047-17.882-1.558-33.27-3.908-46.161-7.047z" stroke-linecap="round" stroke-width="40"/><path d="m40.63 739.48 42.17-8.849 111.746-9.15m-110.819 1.725L61.704 540.678" stroke-linecap="round" stroke-width="20"/><path d="m664.964 560.01 172.09 16.42 9.125 56.98-11.513 34.12-336.132 40.199V567.191l166.43-7.18z" stroke-width="40"/><path d="m525.326 621.568 7.02 42.897-7.02 19.545" stroke-linecap="round" stroke-width="20"/><path d="M525 621.644 820.09 595l5.91 37.677L591.743 658M562 662l-30 3" stroke-linecap="round" stroke-width="20"/></g><path d="M570.303 628.7c3.445-2.83 7.753-4.214 12.118-3.444s7.94 3.543 10.21 7.38c2.309 3.905 3.27 8.91 2.358 14.084s-3.528 9.548-7.034 12.427c-3.444 2.83-7.753 4.214-12.117 3.444-4.365-.77-7.94-3.544-10.21-7.38-2.31-3.906-3.271-8.91-2.359-14.084s3.528-9.548 7.034-12.427z" stroke="#004dff" stroke-width="2"/><path d="M575.664 663.576c9.303 1.64 18.396-5.829 20.31-16.682 1.914-10.854-4.076-20.983-13.38-22.623-9.303-1.64-18.396 5.828-20.31 16.682-1.913 10.854 4.077 20.982 13.38 22.623z" stroke="#000" stroke-linecap="round" stroke-linejoin="round" stroke-width="20"/><path d="M612.032 643.078c3.245.573 6.417-2.033 7.085-5.819.667-3.786-1.422-7.32-4.668-7.892-3.245-.572-6.417 2.034-7.085 5.82-.667 3.786 1.423 7.32 4.668 7.891zm21.348-2.784c3.245.572 6.417-2.033 7.085-5.82.667-3.786-1.422-7.319-4.668-7.891-3.245-.572-6.417 2.033-7.085 5.82-.667 3.785 1.422 7.319 4.668 7.89zm21.348-2.784c3.245.572 6.417-2.034 7.085-5.82.667-3.786-1.422-7.32-4.668-7.892-3.245-.572-6.417 2.034-7.085 5.82-.667 3.786 1.422 7.32 4.668 7.891z" fill="#000"/><path d="m572.409 622 .017.003.05.01L582 623.83l-.04.343c.211.028.423.06.635.098 9.303 1.64 15.293 11.769 13.38 22.623-1.915 10.853-11.008 18.322-20.311 16.682a14.842 14.842 0 0 1-4.361-1.495l-1.192-.18a14.823 14.823 0 0 1-6.617-.998l-.494-.075.029-.119c-7.335-3.197-11.699-12.128-10.026-21.612 1.847-10.476 10.382-17.798 19.339-16.82z" stroke="#000" stroke-linecap="round" stroke-linejoin="round" stroke-width="20"/><path d="m836.422 645.517 17.324 9.156c4.781 4.4 11.241 6.6 19.38 6.6 11.804 0 34.04-3.552 66.707-10.654L919.44 510.272h-67.29l-19.444 16.981v53.643" stroke="#000" stroke-linejoin="round" stroke-width="40"/><path d="m855.971 510.272 15.807 120.382 71.312-6.609" stroke="#000" stroke-linecap="round" stroke-linejoin="round" stroke-width="20"/><ellipse cx="401.733" cy="613.798" rx="42.966" ry="56" stroke="#000" stroke-linecap="round" stroke-linejoin="round" stroke-width="20" transform="rotate(7 401.733 613.798)"/><ellipse cx="385.733" cy="613.798" fill="#000" rx="24.552" ry="32" transform="rotate(7 385.733 613.798)"/></g></svg>