<svg viewBox="0 0 960 960" xmlns="http://www.w3.org/2000/svg"><g fill="none" fill-rule="evenodd"><g stroke="#000" stroke-linejoin="round"><path d="m586.37 85.318 1.405 14.841 55.841-7.91 241.397-1.5v577.959l-239.95 18.648-166.651-37.518-.069.322c-1.48 6.717-5.615 13.83-14.178 20.553l-.447.348c-6.587 5.07-16.357 10.184-28.784 14.663-20.978 7.562-50.321 13.772-83.106 16.632-32.783 2.86-62.761 1.824-84.737-1.99-13.016-2.26-23.526-5.603-30.895-9.455-14.28-7.466-19.292-17.446-20.089-26.53-.74-8.433 1.984-17.951 11.925-26.918 5.182-4.675 12.89-9.468 22.903-13.776 13.453-5.789 31.643-11.038 52.745-14.934.073-.93.103-1.802.084-2.616-.073-3.202-1.05-6.546-2.704-10.09l-.116-.242L89.793 609.32h-43.21L21.398 117.202l36.32-19.415z" stroke-width="40"/><path d="m578.092 95.166 44.013 469.422L85.476 599.27 58.421 107.543z" stroke-linecap="round" stroke-width="20"/><path d="m550.38 126.334 38.427 409.843-474.569 30.67-23.635-429.563zm95.448-14.642v554.95M308.934 587.77c4.28 7.034 6.508 13.586 6.686 19.656.279 9.515-4.28 24.736-13.673 45.664 16.142 4.176 33.385 5.485 51.728 3.925 18.343-1.56 31.774-5.478 40.292-11.752-6.911-19.26-10.367-33.738-10.367-43.436 0-6.592 1.596-13.594 4.79-21.008m216.89 163.907 180.271 55.152v29.657L296.9 889.404 142.555 819.34v-29.402z" stroke-linecap="round" stroke-width="20"/><path d="m152.555 793.883 144.548 67.202 478.448-58.934" stroke-linecap="round" stroke-width="20"/></g><path d="M790.634 744.7c0-12.708 20.002-33.858 62.82-33.858s76.318 13.774 89.013 43.275 4.176 45.21-30.98 45.21c-17.907 0-57.882-7.553-84.01-19.904-25.168-11.898-36.843-28.487-36.843-34.723z" stroke="#004dff" stroke-width="2"/><path d="M790.634 744.7c0-12.708 20.002-33.858 62.82-33.858s76.318 13.774 89.013 43.275 4.176 45.21-30.98 45.21c-17.907 0-57.882-7.553-84.01-19.904-25.168-11.898-36.843-28.487-36.843-34.723z" stroke="#000" stroke-linecap="round" stroke-linejoin="round" stroke-width="20"/></g></svg>