<svg viewBox="0 0 960 960" xmlns="http://www.w3.org/2000/svg"><g fill="none" fill-rule="evenodd" stroke="#000" stroke-linejoin="round"><path d="M391.9 687.019c42.869 1.797 73.465 2.696 91.788 2.696 18.714 0 52.502-.938 101.362-2.813 14.35-.55 26.428 10.635 26.978 24.984a26 26 0 0 1 .008 1.757L606.5 902.892c-.365 12.48-9.55 22.94-21.88 24.913-32.064 5.131-64.128 7.697-96.191 7.697-32.064 0-64.128-2.566-96.192-7.697-12.329-1.974-21.514-12.433-21.88-24.913l-5.534-189.136c-.42-14.353 10.875-26.33 25.229-26.75a26 26 0 0 1 1.85.013zm29.486-657.227c8.39-3.254 16.859-3.064 25.314.296 6.25 2.483 12.688 7.025 18.821 13.471 11.573 12.163 22.775 32.266 31.94 49.238 4.703 8.71 8.626 16.427 11.86 20.35 6.516 7.9 16.79 33.438 25.15 66.53a313.699 313.699 0 0 1 17.71-21.13c40.27-43.9 103.834-78.04 130.183-91.305 24.948-12.56 44.602-17.85 57.788-19.282 18.41-2.001 27.93 3.535 32.08 7.464 4.5 4.258 6.601 9.223 7.117 14.344.446 4.422-.267 9.345-3.33 14.435-2.108 3.504-5.993 7.918-13.083 11.75-6.95 3.757-11.018 8.57-15 15.981l-.087.161.052-.007c2.68-.395 5.464-.767 8.355-1.115l.87-.103c5.106-.601 11.071-2.108 17.035-3.702l1.788-.48 2.67-.72c11.666-3.132 22.719-5.663 29.598-5.556 8.635.134 14.359 3.208 18.102 6.655 5.13 4.724 9.116 11.35 7.04 22.38-1.505 8.003-12.012 25.78-44.496 58.428-44.167 44.39-69.428 75.716-87.004 97.509-15.73 19.503-26.247 31.95-37.358 39.903-12.75 9.125-40.63 19.328-64.703 20.853l-.555.033-.377.322c-10.51 8.86-28.174 16.006-47.41 22.357l-.803.264-2.24.734-1.518.497-.712.233-2.104.688-2.096.688c-4.403 1.45-8.789 2.92-13.03 4.461-4.488 6.22-9.577 10.452-14.819 13.094-6.78 3.418-14.215 4.689-22.358 3.063-6.45.843-11.318-.904-15.155-3.11-3.773-2.168-7.376-5.431-9.824-10.531a51.41 51.41 0 0 1-.432-.394l-.14-.129-.238.19c-2.892 2.239-6.13 3.784-9.644 4.696l-.504.126c-4.154.998-8.817 1.094-13.778-.004-13.168-2.915-30.414-17.479-36.56-31.123-6.205-13.777-46.767-73.52-63.405-88.3-20.223-17.964-19.392-109.035-13.075-150.623 1.672-11.003 7.662-15.937 13.971-18.623 4.76-2.027 11.326-3.133 19.83.307 5.382 2.177 13.101 7.385 21.749 15.831a185.11 185.11 0 0 1 5.425 5.542c.555-10.438 1.465-20.159 2.688-28.887 1.914-13.658 4.652-25.072 7.873-33.436 5.647-14.663 13.858-21.61 20.829-24.314z" stroke-linecap="round" stroke-width="40"/><path d="M536.845 685.8c-3.445-25.435 4.63-48.435 24.227-69m-64.156 72.915c0-4.268 18.975-119.89 52.742-164m-35.138 164c18.984-88.975 41.984-141.641 69-158m-95.092 158c30.458-168.504 54.45-278.279 71.972-329.326m-196.21 16.323C437.517 492.234 474.18 595.264 474.18 685.8m-130.614-206c64.392 61.157 102.392 129.824 114 206m-66.197-45.499c10.898 3.707 39.34 32.786 39.34 49.175M448.528 380.8c8.989 47.818 38.632 212.224 33.382 305m17.087-311.536c.092 4.886.048 8.59-.061 10.142-4.422 62.539-10.508 298.186-10.508 301.394" stroke-linecap="round" stroke-width="20"/><g stroke-width="40"><path d="M569.38 616.368c9.258-25.426 27.173-37.425 55.262-30.24 28.088 7.186 60.244 20.997 82.99 14.092 22.745-6.906 8.837 9.07-16.103 21.081-24.94 12.01-36.018 28.68-73.825 28.68s-57.581-8.186-48.324-33.613zm120.09-109.092c33.713-4.95 69.727-7.663 91.194-.09 31.942 11.271 51.647 44.436 51.647 53.853 0 9.416-28.33 25.738-71.192 12.869-42.862-12.87-38.068-26.429-59.754-33.339s-39.21-.381-52.167-5.915a71.005 71.005 0 0 0-4.006-1.539c-7.285-2.592 9.412-4.98 20.39-10.537 10.791-5.461 15.734-14.104 23.888-15.302z" stroke-linecap="round"/><path d="M746.03 388.73c60.605-.96 110.177 14.754 113.7 19.771 3.757 5.35 6.017 12.805 2.786 22.375-1.285 3.807-3.715 8.302-7.65 12.803-4.78 5.465-12.134 11.34-21.763 15.748-12.648 5.79-29.371 9.196-48.771 5.556-28.632-5.373-47.868-5.911-63.907 5.818-4.368 3.194-9.005 8.285-14.347 13.904-21.31 22.413-50.175 50.208-92.689 50.208-30.287 0-44.31-9.565-51.53-18.858-6.601-8.496-8.747-18.429-7.58-28.413 1.133-9.698 5.7-19.369 11.048-26.34 11.132-14.51 24.886-28.145 89.591-56.742 24.48-10.82 58.285-15.31 91.112-15.83z"/><path d="M370.09 619.068c-14.49-15.626-30.176-20.036-58.078-20.036s-41.39 27.617-66.696 57.379c-25.306 29.76-66.49 62.498-39.562 62.498 26.929 0 100.653-20.125 122.66-43.617 22.007-23.493 56.167-40.598 41.677-56.224zm-26.823-139.412c-.91-14.43-17.296-30.39-49.16-38.565-54.898-14.085-124.305 1.638-151.83 26.137-27.527 24.499-67.068 78.408-44.696 83.057 22.372 4.65 55.433-39.99 101.382-41.491 45.949-1.5 33.31 18.057 83.32 18.057s61.642-36.763 60.984-47.195zm-213.83-316.61c9.985 27.187 55.15 138.065 86.025 167.891 30.874 29.827 97.224 85.926 148.56 56.122 51.338-29.804 27.056-84.9-27.702-124.014-54.758-39.115-216.868-127.186-206.883-99.999z" stroke-linecap="round"/></g><path d="M521.223 357.948c24.652-9.04 54.132-15.818 66.252-28.122 8.172-8.295 44.18-34.907 69.868-72.607 26.548-38.961 51.274-87.728 61.505-109.854 7.035-15.214 10.052-27.027 14.502-36.1 8.284-16.89 16.404-24.828 28.524-31.38 18.63-10.07-13.517-40.16-68.682-12.387-25.146 12.66-85.982 45.038-124.439 86.962-7.513 8.191-50.968 34.745-47.53 58.293 4.22 28.905 7.411 67.967 7.34 75.69-.282 31.14-12.32 71.331-7.34 69.505z" stroke-linecap="round" stroke-width="20"/><path d="M428.618 48.439c25.441-9.868 51.815 61.112 65.274 77.432 13.458 16.32 41.4 116.401 33.188 188.28-8.211 71.878-35.446 85.309-82.397 0-46.951-85.31-41.506-255.845-16.065-265.712z" stroke-linecap="round" stroke-width="20"/></g></svg>