<svg viewBox="0 0 960 960" xmlns="http://www.w3.org/2000/svg"><g fill="none" fill-rule="evenodd" stroke="#000" stroke-linecap="round" stroke-linejoin="round"><path d="M362.47 503.775h325.74c14.362 0 26.774 9.727 27.814 24.049.068.89.084 1.784.056 2.676l-10.87 356.14c-.379 12.404-9.471 22.811-21.712 24.852-63.791 10.637-126.868 15.955-189.23 15.955-62.222 0-124.44-5.295-186.656-15.884-12.201-2.076-21.247-12.466-21.625-24.838l-8.729-285.942m381.655-469.971c15.237 11.524-7.853 30.858-15.803 30.858-.257 0-.61.06-1.053.175a319.134 319.134 0 0 1 13.25 4.78c53.708 20.738 107.436 83.135 110.6 133.095 3.162 49.96-74.317 82.178-118.03 115.136-43.712 32.958-22.737 15.384-15.574-8.24s-35.774-34.429-62.273-64.154c-26.498-29.725-61.57-37.558-110.806-85.302-8.521-8.264-14.182-16.378-17.499-24.218-23.399 5.865-43.724 12.039-53.108 13.207-16.337 2.034-5.405 1.461 0-13.605 5.406-15.067 5.125-36.067 0-57.448-5.124-21.38 8.459-41.487 50.252-59.267 41.793-17.779 204.807 3.458 220.044 14.983z" stroke-width="40"/><path d="M716.995 370.697c.467 38.647 13.509 110.722 66.168 189.556 69.553 104.126 62.398 102.614 78.784 129.295 16.385 26.681-2.14 35.626 7.122 35.626 9.263 0 42.606-152.909 4.313-260.192s-55.762-137.764-79.56-144.41c-8.234-2.298-18.9-2.403-29.593-.767" stroke-width="40"/><path d="M656.56 177.856c-50.409-19.862-107.438-25.827-147.136-12.913-39.698 12.913-83.112 53.894-36.9 99.62 46.211 45.726 79.128 53.228 103.998 81.696s65.17 38.817 58.447 61.442c-6.722 22.625-26.41 39.456 14.618 7.892 41.027-31.565 113.747-62.42 110.777-110.268-2.969-47.848-53.396-107.607-103.804-127.469z" stroke-width="20"/><path d="M349.052 146.068c-5.456-34.366-52.987-30.638-125.818 17.99-72.831 48.627-129.613 178.645-161.88 210.79-32.268 32.144-58.068 67.946 21.798 31.737 79.867-36.209 83.866-35.857 132.43-56.107 48.565-20.249 96.148-65.613 110.536-98.563 14.389-32.949 28.39-71.481 22.934-105.847z" stroke-width="40"/><path d="M490.324 286.292c11.793 120.996 17.69 194.543 17.69 220.64m26.595-198.274c-11.867 93.154-17.8 159.245-17.8 198.274M331.914 239.105c18.344 12.323 166.22 192.394 171.16 250.392" stroke-width="20"/><path d="M516.913 501.53c19.665-23.93 34.886-38.882 45.661-44.856 39.408-21.845 90.877-40.133 154.408-54.866" stroke-width="20"/><path d="M360.174 393.904c-33.032-25.633-54.28-21.275-85.867-10.637-31.588 10.637-67.735 61.7-67.735 102.842 0 41.143-14.13 116.243-42.257 131.54-28.125 15.296 139.727 24.831 195.86-105.654 13.413-31.182 33.032-92.457 0-118.09z" stroke-width="40"/><path d="M350.258 396.612c98.584 29.02 149.523 63.67 152.816 103.946m-186.668 78.103L716 579" stroke-width="20"/></g></svg>