<svg viewBox="0 0 960 960" xmlns="http://www.w3.org/2000/svg"><g fill="none" fill-rule="evenodd" stroke="#000" stroke-linejoin="round"><path d="M589.403 25.87c6.49-2.876 14.076-3.953 22.083-1.599 7.687 2.26 13.507 7.262 17.452 13.64 4.052 6.555 5.628 14.628 6.112 17.746 11.922 60.049 24.776 180.36 6.956 280.999l-.153.84.364-.373c14.729-15.084 29.371-25.544 42.013-31.037l.574-.246c10.23-4.344 19.586-5.68 27.508-4.756 10.452 1.219 19.124 6.013 25.564 14.462 6.072 7.965 8.693 20.198 2.417 37.408-4.247 11.644-12.759 26.292-21.7 41.342-.23.385-.458.771-.684 1.151l-1.451 2.445-.993 1.678-.974 1.65-.945 1.604c-7.23 12.295-14.182 24.471-17.1 34.712-2.129 7.468-8.575 22.643-17.143 42.436-10.335 23.873-23.825 55.01-35.567 87.301-1.405 3.865-2.79 7.745-4.15 11.63l-.845 2.425.232.123a46.147 46.147 0 0 1 10.388 7.628l.399.394c8.324 8.324 13.473 19.824 13.473 32.527 0 .446-.006.891-.02 1.337l-7.668 263.72a45.897 45.897 0 0 1-12.312 30.007 45.897 45.897 0 0 1-29.05 14.424c-43.01 4.34-86.742 6.512-131.197 6.512-44.681 0-89.364-2.194-134.049-6.582a45.896 45.896 0 0 1-29.13-14.391 45.896 45.896 0 0 1-12.355-30.052l-7.666-263.638c-.369-12.697 4.444-24.342 12.522-32.905a46.068 46.068 0 0 1 14.589-10.396l.367-.164-.414-.353a3614.399 3614.399 0 0 0-10.442-8.844l-1.753-1.48-1.62-1.369c-42.107-35.567-87.579-151.217-95.882-180.813-1.877-6.694-1.441-13.915 1.184-20.581 2.387-6.058 6.595-11.588 12.045-15.55 5.174-3.762 11.414-6.128 18.22-6.45 5.735-.27 11.97.873 18.331 4.313 7.994 4.323 20.136 13.715 34.524 26.576l.134.12-.795-2.164c-25.122-68.618-36.15-117.981-40.167-147.467l-.165-1.234c-2.609-19.749-.916-33.07 2.12-42.39 5.866-18.005 16.784-24.578 24.675-28.978 6.58-3.68 13.875-4.803 21.97-2.643 4.865 1.299 10.254 3.982 15.528 8.21 7.606 6.099 15.35 15.77 20.657 27.115 2.3 4.915 5.503 13.725 9.437 24.73 4.23 11.836 9.428 26.564 15.519 41.357l.118.286.083-2.615.094-2.697c.785-21.663 5.054-79.27 14.27-121.222 3.3-15.021 7.313-28.163 11.829-37.57 7.344-15.298 17.05-21.99 25.584-23.87 9.658-2.126 20.003.15 30.034 8.815 6.187 5.343 12.467 13.656 18.146 23.757 15.421 27.426 27.433 68.863 29.317 78.36 3.14 15.818 5.489 33.492 7.246 51.827l.179 1.892.956-3.482c15.702-56.989 32.741-109.772 40.707-129.065l.496-1.185c4.423-10.425 8.013-19.454 11.051-27.092 4.947-12.436 8.667-21.523 11.952-27.372 1.528-2.72 7.707-10.77 16.97-14.875z" stroke-width="40"/><g stroke-linecap="round" stroke-width="20"><path d="M335.479 600.254c49.773 3.393 98.85 5.09 147.227 5.09 48.07 0 96.142-1.676 144.213-5.026 14.324-.998 26.746 9.805 27.744 24.13a26 26 0 0 1 .051 2.6l-8.239 269.893c-.38 12.452-9.538 22.884-21.836 24.873-48.684 7.876-96.84 11.813-144.466 11.813-47.486 0-94.97-3.914-142.45-11.744-12.261-2.021-21.378-12.438-21.757-24.86l-8.243-270.036c-.439-14.353 10.841-26.343 25.194-26.781a26 26 0 0 1 2.562.048zm111.228-12.532C415.57 508.71 287.63 375.211 249.324 354.518M503.683 597.5c-4.018-59.933-8.307-163.04-8.307-207.595 0-63.072 57.08-250.308 72.783-287.278 11.06-26.035 17-43.488 22.048-52.464 1.09-1.936 7.905-9.45 15.99-7.077 8.083 2.374 9.253 14.37 9.548 15.849 12.485 62.65 26.281 193.322 2.584 295.072-24.848 106.688-40.697 149.955-45.975 196.026-2.29 19.99-3.493 35.523-4.761 47.92"/><path d="M462.554 597.553c-2.092-33.408-6.116-68.58-12.073-105.516-13.773-85.397-47.892-147.845-72.671-183.154-24.78-35.309-42.724-98.554-50.398-114.941-7.673-16.387-21.894-28.39-29.88-23.928-7.986 4.463-22.43 11.712-17.166 51.512 5.263 39.8 24.142 118.078 75.567 233.225"/></g></g></svg>