<svg viewBox="0 0 960 960" xmlns="http://www.w3.org/2000/svg"><g fill="none" fill-rule="evenodd"><path d="M1.62 456.174c5.918-23.737 26.602-39.018 46.2-34.132 1.681.42 3.301.974 4.853 1.652L83 430.272V516l-57-7.686.085-.39c-19.408-5.048-30.353-28.135-24.465-51.75z" fill="#000"/><path d="M594.134 709.905c107.533 17.031 210.279-67.49 229.49-188.785 19.21-121.295-52.388-233.43-159.92-250.462-107.532-17.031-210.278 67.49-229.49 188.785-19.21 121.295 52.388 233.43 159.92 250.462z" stroke="#000" stroke-linecap="round" stroke-linejoin="round" stroke-width="20"/><path d="M449.995 403.175 450 464l-16.465.001c.212-1.518.439-3.037.68-4.558 3.141-19.833 8.516-38.684 15.78-56.268zM432.1 520.97l17.9 4.96-.001 66.336c-9.456-22.03-15.612-46.092-17.9-71.295zm108.176 168.588c67.479-5.252 128.19-47.222 161.13-109.545m24.066-76.5c2.204-17.31 2.367-34.401.68-50.99m-21.857-75.299c-23.887-47.444-64.9-84.242-115.961-99.93" stroke="#000" stroke-linecap="round" stroke-linejoin="round" stroke-width="20"/><path d="M633.19 507.05c13.235 2.096 25.88-8.307 28.245-23.236 2.365-14.928-6.447-28.73-19.682-30.826s-25.88 8.307-28.245 23.235c-2.365 14.929 6.448 28.73 19.682 30.826zm-174.787 8.052c14.476 2.293 28.307-9.085 30.893-25.413s-7.052-31.423-21.527-33.716c-14.476-2.293-28.307 9.085-30.893 25.413s7.052 31.424 21.527 33.716z" fill="#000"/><g stroke="#000" stroke-linejoin="round"><path d="M697.293 377.233v74.271l104.142 4.097c-1.37-13.19-4.264-26.252-8.681-39.184-4.418-12.932-9.766-26.878-16.046-41.838zm0 126.015v77.803l77.44 11.83c8.103-13.926 13.794-26.435 17.073-37.528 3.28-11.093 5.962-25.055 8.046-41.888l-80.205-10.217zM776.922 374l-.844 80m-1.142 57-.872 83" stroke-linecap="round" stroke-width="20"/><path d="M559.655 828.781C725.39 855.031 883.75 724.76 913.36 537.811c29.61-186.948-80.743-359.779-246.48-386.029s-324.097 104.021-353.706 290.97c-29.61 186.948 80.743 359.78 246.48 386.03z" stroke-linecap="round" stroke-width="20"/><path d="M578.35 131.586a292.019 292.019 0 0 1 91.41.025c88.595 14.033 162.564 67.045 210.29 141.797 47.061 73.71 68.526 168.599 52.899 267.27-14.7 92.817-59.583 172.317-121.07 227.663-62.892 56.608-143.106 87.973-226.577 83.18l-6.281-.43a293.525 293.525 0 0 1-35.639-5.032l-179.698-25.627a315.53 315.53 0 0 1-26.03-3.711l-3.033-.442c-84.726-16.644-154.81-66.761-199.7-135.295-44.324-67.67-64.076-153.34-48.829-242.297 13.707-79.966 53.444-149.34 108.473-200.002 56.118-51.664 128.12-83.846 204.666-88.182z" stroke-width="40"/></g></g></svg>