<svg viewBox="0 0 960 960" xmlns="http://www.w3.org/2000/svg"><g fill="none" fill-rule="evenodd"><g stroke="#000" stroke-linejoin="round"><path d="m396.337 109.755 391.553 21.034c72.702 3.906 129.65 63.996 129.65 136.803v434.435c0 71.112-54.408 130.401-125.258 136.496L400.73 872.205c-75.385 6.485-141.753-49.37-148.238-124.754a137 137 0 0 1-.504-11.742V246.557c0-75.663 61.337-137 137-137a137 137 0 0 1 7.35.198z" stroke-linecap="round" stroke-width="20"/><path d="M389 89.552a157 157 0 0 1 8.416.226l392 21.044c41.66 2.237 78.805 20.57 105.537 48.775 26.73 28.205 43.047 66.28 43.047 108V702.02c0 40.748-15.59 78.109-41.328 106.155s-61.627 46.778-102.225 50.268l-392 33.698c-17.666 1.518-34.899.047-51.201-3.99l-.059 4.224-210.48-99.529A119.894 119.894 0 0 1 91 749.156a119.9 119.9 0 0 1-18.988-63.462l-.007-1.272-.004-418.481c0-32.988 11.509-63.71 31.055-87.927 19.585-24.267 47.24-42 79.47-48.937l1.811-.377 154.497-31.062A159.712 159.712 0 0 1 389 89.552z" stroke-width="40"/><path d="M558.247 741.178c122.702 19.434 239.942-77.011 261.864-215.417 21.921-138.406-59.778-266.36-182.48-285.795-122.702-19.434-239.943 77.012-261.864 215.418s59.778 266.36 182.48 285.794z" stroke-linecap="round" stroke-width="20"/><path d="M392.996 393.08 393 460l-17.926.001c.218-1.538.45-3.077.693-4.617 3.472-21.919 9.334-42.785 17.23-62.305zm-19.571 133.29L393 531.86l-.006 73.24c-10.25-24.407-16.969-50.957-19.57-78.73zM496.79 717.96c76.999-5.992 146.274-53.882 183.86-124.997m27.463-87.293c2.514-19.752 2.7-39.254.776-58.184m-24.941-85.92c-27.257-54.138-74.056-96.127-132.32-114.028" stroke-linecap="round" stroke-width="20"/></g><path d="M602.813 509.706c15.101 2.391 29.53-9.479 32.229-26.513 2.698-17.035-7.357-32.783-22.46-35.175-15.1-2.392-29.53 9.478-32.229 26.513-2.698 17.034 7.358 32.783 22.46 35.175zm-199.445 9.189c16.518 2.616 32.3-10.367 35.251-28.999s-8.047-35.856-24.565-38.472c-16.517-2.616-32.3 10.367-35.25 28.998-2.951 18.632 8.047 35.856 24.564 38.473z" fill="#000"/><path d="M675.958 361.575v84.75L794.792 451c-1.564-15.052-4.866-29.956-9.906-44.713-5.04-14.756-11.144-30.67-18.31-47.74zm0 143.793v88.778l88.365 13.499c9.246-15.89 15.74-30.164 19.482-42.821 3.742-12.658 6.803-28.59 9.18-47.797l-91.519-11.659zM766.922 359l-.844 90m-1.142 65-.872 94" stroke="#000" stroke-linecap="round" stroke-linejoin="round" stroke-width="20"/><path d="M3.574 451.665c5.745-23.043 25.824-37.878 44.848-33.135.436.109.869.227 1.297.355l33.148 7.21v83.354l-48.794-6.6a29.674 29.674 0 0 1-6.457-.874c-19.023-4.743-29.788-27.268-24.042-50.31z" fill="#000"/></g></svg>