<svg viewBox="0 0 960 960" xmlns="http://www.w3.org/2000/svg"><g fill="none" fill-rule="evenodd"><g stroke="#000" stroke-linejoin="round"><path d="M334.51 303.866 939 342.108v282.076l-603.94 28.884L21 608.354V370.963z" stroke-width="40"/><path d="M336 656.332v-349.27m255.296 92.493 289.098 8.496v145.634l-289.098 8.496zM476.724 568.402c35.936 6.986 72.583-26.013 81.853-73.704 9.27-47.69-12.347-92.015-48.283-99s-72.583 26.013-81.853 73.704 12.347 92.015 48.283 99z" stroke-linecap="round" stroke-width="20"/><path d="m493 393-.024.403c3.729.02 7.483.384 11.237 1.113 39.295 7.638 63.634 52.491 54.364 100.182-9.024 46.424-46.568 78.424-84.802 73.047l-2.461-.07a60.719 60.719 0 0 1-20.495-.455c-39.295-7.638-63.634-52.49-54.364-100.182 8.274-42.57 40.531-73.011 75.31-73.626l.011-.15z" stroke-linecap="round" stroke-width="20"/></g><path d="M591.296 562.181c35.94-29.6 84.124-44.399 144.55-44.399 60.425 0 108.608 12.062 144.548 36.187z" fill="#000"/><path d="M591.296 451.911c35.94-29.6 84.124-44.4 144.55-44.4 60.425 0 108.608 12.063 144.548 36.187m-144.549 96.284-38.408-81.416M65.984 431.313v89.763m30.715-94.552v93.679m30.715-98.469v97.596m30.715-102.385v101.511m30.716-106.301v105.428" stroke="#000" stroke-linecap="round" stroke-linejoin="round" stroke-width="20"/></g></svg>