<svg viewBox="0 0 960 960" xmlns="http://www.w3.org/2000/svg"><g fill="none" fill-rule="evenodd"><path d="M172.633 220H534.37l47.928 97.669 113.989-1.686 185.94 21.52-.001 14.422 18.964 1.934 38.508 62.964-28.705 234.482L931 657.827v56.698l-450.262 26.811-100.207-60.901c-115.37 5.932-175.595 9.089-180.672 9.483-1.24.096-2.456.197-3.65.296-18.966 1.575-33.558 1.307-48.972-9.982-8.001-5.86-46.179-30.955-114.504-75.324l-11.132-7.228-1.731-259.766 143.566-3.532v-10.514l57.141-.847z" stroke="#000" stroke-linejoin="round" stroke-width="40"/><path d="M40.35 357.478c41.457 14.96 66.753 24.149 75.887 27.565 13.701 5.123 19.104 11.974 24.765 29.564 5.662 17.59 12.582 31.59 44.89 31.59 32.309 0 716.14-18.254 728.952-18.254 12.811 0 14.966-10.136 11.171-17.159" stroke="#000" stroke-linecap="round" stroke-linejoin="round" stroke-width="20"/><path d="m136.418 341.912 47.302 12.035 110.373 28.632 567.851-12.34h13.149v-12.76" stroke="#000" stroke-linecap="round" stroke-linejoin="round" stroke-width="20"/><path d="m334.74 382.58 7.29 13.719a25 25 0 0 0 22.736 13.26l382.993-10.109a8 8 0 0 0 6.346-12.58l-9.827-14.058-410.071 8.984z" fill="#000"/><path d="M360.23 674.26v-87.49c0-8.083 6.405-14.713 14.484-14.99l384.14-13.206c8.28-.285 15.222 6.196 15.506 14.475a15 15 0 0 1 .01.516v32.7" stroke="#000" stroke-linecap="round" stroke-linejoin="round" stroke-width="20"/><path d="m648.806 562.358 110.048-3.783c8.28-.285 15.222 6.196 15.506 14.475a15 15 0 0 1 .01.516v32.7z" fill="#000"/><g stroke="#000" stroke-linejoin="round" stroke-linecap="round" stroke-width="20"><path d="m360.23 625.318 125.262 71.29 395.208-25.39V643.42l-236.359-80.907-269.804 9.074c-5.423 1.24-8.958 2.644-10.606 4.214s-2.882 4.708-3.701 9.414z"/><path d="m360.23 593.405 125.699 68.186L880.7 643.42M216.143 331.803l374.286-4.24M166.158 686.582 166 446"/></g></g></svg>