<svg viewBox="0 0 960 960" xmlns="http://www.w3.org/2000/svg"><g fill="none" fill-rule="evenodd"><g stroke="#000" stroke-linejoin="round"><path d="M597.721 296.752a72 72 0 0 1 11.734.396l266.265 30.851c18.158 2.104 34.086 10.845 45.475 23.63 11.388 12.784 18.238 29.612 18.238 47.892V542.96c0 17.577-6.347 33.87-17.028 46.497-10.68 12.628-25.695 21.59-43.03 24.505l-524.159 88.165a72 72 0 0 1-36.719-3.4L68.787 607.21a71.916 71.916 0 0 1-34.25-26.37 71.916 71.916 0 0 1-12.975-41.233V392.998c0-19.212 7.543-36.731 19.884-49.678 12.34-12.946 29.479-21.32 48.67-22.239z" stroke-width="40"/><path d="M453.54 595.542c30.174 4.78 59.357-21.159 65.182-57.934 5.824-36.776-13.915-70.462-44.09-75.242-30.174-4.779-59.358 21.16-65.182 57.935-5.825 36.775 13.915 70.462 44.09 75.24z" stroke-linecap="round" stroke-width="20"/><path d="M449.166 623.151c42.686 6.761 83.97-29.932 92.21-81.955 8.24-52.024-19.685-99.678-62.37-106.44-42.687-6.76-83.97 29.933-92.21 81.957-8.24 52.023 19.684 99.678 62.37 106.438z" stroke-linecap="round" stroke-width="20"/></g><path d="M449.539 589.858c25.31 4.37 49.787-19.353 54.672-52.99 4.886-33.635-11.671-64.446-36.98-68.817-25.31-4.372-49.787 19.352-54.673 52.988-4.885 33.636 11.672 64.447 36.98 68.819z" fill="#000"/><path d="m338.314 403.494 581.207-47.071" stroke="#004dff" stroke-width="2"/><path d="m866.195 379.94-502.29 49.575c-17.4 1.718-30.661 16.352-30.661 33.836v156.096c0 18.778 15.222 34 34 34a34 34 0 0 0 5.245-.407l502.291-78.426c16.552-2.584 28.755-16.84 28.755-33.592V413.775c0-18.778-15.222-34-34-34a34 34 0 0 0-3.34.164z" stroke="#000" stroke-linecap="round" stroke-linejoin="round" stroke-width="20"/><path d="m874.311 353.136-522.235 49.111c-26.714 2.513-47.131 24.94-47.131 51.772v174.383c0 28.72 23.281 52 52 52a52 52 0 0 0 7.495-.543l524.993-76.467c25.92-3.775 44.987-26.242 44.495-52.432l-2.757-147.027c-.539-28.714-24.252-51.555-52.966-51.016a52 52 0 0 0-3.894.22z" stroke="#000" stroke-linecap="round" stroke-linejoin="round" stroke-width="20"/></g></svg>