<svg viewBox="0 0 960 960" xmlns="http://www.w3.org/2000/svg"><g stroke="#000" fill="none" fill-rule="evenodd"><path d="M690.375 54.703c14.643-5.271 89.288 14.005 126.086 28.869 23.641 9.55 64.703 33.507 123.002 72.265l-7.485 56.771C730.744 444.238 523.946 667.985 311.592 883.85c-15.625 16.564-29.971 21.508-68.924 21.508-33.228 0-73.829-10.523-122.842-45.381-48.83-34.728-92.014-112.474-93.66-118.468-1.098-3.998-2.715-20.354-4.142-49.242a489.366 489.366 0 0 1-.388-9.195l6.552-6.257C460.408 264.116 681.553 57.88 690.375 54.703z" stroke-width="40" stroke-linejoin="round"/><path d="M42 691.28c33.61 29.508 64.162 52.426 91.654 68.754 27.493 16.328 80.766 39.851 159.82 70.57L918 165.62M293.474 830.604v54.754" stroke-width="20" stroke-linecap="round" stroke-linejoin="round"/><path d="M820.952 193.014c19.919 4.372 38.562-4.21 41.642-19.168 3.079-14.958-10.572-30.628-30.491-35-19.92-4.372-38.563 4.21-41.642 19.168-3.08 14.959 10.572 30.629 30.49 35zm-155.608 97.467 47.59 23.487c6.439 3.178 9.082 10.973 5.905 17.411a13 13 0 0 1-2.245 3.213l-25.603 26.879a13 13 0 0 1-15.132 2.708l-48.679-23.844c-6.447-3.159-9.114-10.946-5.956-17.394a13 13 0 0 1 2.512-3.503l26.691-26.521a13 13 0 0 1 14.917-2.436zm-89.474 81.714 56.61 26.672c6.494 3.06 9.279 10.806 6.219 17.3a13 13 0 0 1-2.494 3.578l-34.102 34.654a13 13 0 0 1-14.774 2.658l-57.978-27.118c-6.503-3.042-9.31-10.78-6.268-17.284a13 13 0 0 1 2.752-3.85l35.47-34.207a13 13 0 0 1 14.566-2.403zM562.29 236.47l47.404 23.359c6.44 3.173 9.09 10.966 5.916 17.407a13 13 0 0 1-2.406 3.383L587.183 307a13 13 0 0 1-14.92 2.572l-48.068-23.268c-6.462-3.128-9.165-10.903-6.037-17.365a13 13 0 0 1 2.546-3.565l26.684-26.472a13 13 0 0 1 14.901-2.432zm189.3-35.157 43.656 21.039c6.468 3.117 9.184 10.887 6.068 17.355a13 13 0 0 1-2.406 3.434L775.926 266.7a13 13 0 0 1-14.915 2.65L716.375 248c-6.477-3.098-9.216-10.86-6.118-17.337a13 13 0 0 1 2.675-3.72l23.96-23.25a13 13 0 0 1 14.697-2.38zm-99.514-47.06 42.335 20.226c6.478 3.095 9.22 10.856 6.125 17.335a13 13 0 0 1-2.463 3.513l-22.095 22.455a13 13 0 0 1-14.836 2.628l-43.277-20.521c-6.488-3.076-9.253-10.83-6.177-17.316a13 13 0 0 1 2.734-3.8l23.038-22.159a13 13 0 0 1 14.616-2.36zm-181.08 168.902 47.022 21.965c6.505 3.039 9.315 10.775 6.276 17.28a13 13 0 0 1-3.048 4.13l-34.833 31.571a13 13 0 0 1-14.25 2.138l-45.551-21.361c-6.5-3.048-9.3-10.79-6.25-17.29a13 13 0 0 1 2.745-3.838l33.363-32.174a13 13 0 0 1 14.526-2.42z" stroke-width="10" fill="#000"/></g></svg>