<svg viewBox="0 0 960 960" xmlns="http://www.w3.org/2000/svg"><g fill="none" fill-rule="evenodd" stroke="#000" stroke-linecap="round" stroke-linejoin="round"><path d="m28.4 625.343 535.418-98.189a237 237 0 0 1 98.177 2.685l268.228 64.52a9 9 0 0 1 .156 17.462L422.324 743.666a270 270 0 0 1-171.347-11.979L26.98 638.693a7 7 0 0 1 1.421-13.35z" stroke-width="20"/><path d="m661.601 530.143 268.066 64.594a9 9 0 0 1 .156 17.46l-1.673.435-147.13 111.964c-6.378 1.892-12.686 3.763-18.926 5.612-5.878-5.466-11.848-7.322-17.904-5.57-11.615 3.36-271.13 76.154-293.622 82.072-16.515 4.345-21.265 9.794-28.863 21.48-31.815 8.554-54.54 14.215-68.185 16.987l-1.327.266c-16.164 3.197-35.332.788-45.202-1.15l-.77-.153c-2.872-.585-4.839-1.11-5.545-1.4-3.541-1.456-12.212-4.44-24.052-8.507-10.629-14.34-18.832-22.664-24.613-24.971-5.54-2.21-21.892-8.382-38.838-14.575l-2.166-.79c-18.424-6.715-37.035-13.258-42.776-14.6-5.204-1.216-11.003 1.298-17.398 7.54-22.669-10.213-40.41-20.146-46.118-28.17a460.98 460.98 0 0 1-2.92-4.157l-.908-1.312c-13.67-19.787-38.306-57.781-73.909-113.984l-.262-.11a7 7 0 0 1 1.423-13.349l535.121-98.306a237 237 0 0 1 98.341 2.694z" stroke-width="40"/><path d="M513.054 536.609 548.503 60.25l35.448-15.606-19.506 479.084zm-370.311 60.523L101.925 61.836 61.106 44.3l22.46 577.383z" stroke-width="20"/></g></svg>