<svg viewBox="0 0 960 960" xmlns="http://www.w3.org/2000/svg"><g fill="none" fill-rule="evenodd"><g stroke="#000" stroke-linecap="round" stroke-linejoin="round"><path d="M132.771 22.126 827.23 56.747c58.164 2.816 105.316 47.685 105.316 100.219v646.068c0 52.534-47.152 97.403-105.316 100.219l-694.46 34.621C74.607 940.69 27.455 895.82 27.455 837.656V122.344c0-58.164 47.152-103.034 105.316-100.218z" stroke-width="40"/><path d="M226.966 851.236c62.73 8.816 120.958-36.508 130.055-101.235 9.097-64.726-34.382-124.345-97.113-133.161-62.73-8.816-120.958 36.508-130.055 101.235s34.382 124.345 97.113 133.161zm0-507.809c62.73 8.816 120.958-36.508 130.055-101.235s-34.382-124.345-97.113-133.161-120.958 36.508-130.055 101.235c-9.097 64.726 34.382 124.345 97.113 133.16zm509.318-5.095c56.375 7.923 108.703-32.81 116.878-90.978s-30.899-111.746-87.274-119.669c-56.374-7.923-108.702 32.81-116.877 90.978s30.898 111.746 87.273 119.669zm0 472.356c56.375 7.923 108.703-32.809 116.878-90.977 8.175-58.169-30.899-111.747-87.274-119.67-56.374-7.922-108.702 32.81-116.877 90.978-8.175 58.169 30.898 111.746 87.273 119.67z" stroke-width="20"/></g><path d="m390.325 87.934 229.4 9.384v110.53l-229.4-3.129z" fill="#000"/></g></svg>