<svg viewBox="0 0 960 960" xmlns="http://www.w3.org/2000/svg"><g fill="none" fill-rule="evenodd" stroke="#000" stroke-linecap="round" stroke-linejoin="round"><path d="m499.95 23-80.965 2.531L399 31.051l24.427 107.232 12.351 5.62c6.356 26.033 12.282 66.057 14.445 102.132 3.538 58.996 3.538 98.13 0 188.965l81.124-1.825c3.537-90.836 3.537-129.969 0-188.966-2.468-41.159-9.835-87.458-17.148-112.255l8.801-2.032z" stroke-width="40"/><path d="M512.504 127.502c-2.07 0-34.403 3.289-97 9.867" stroke-width="20"/><path d="m376.198 435.105 299.497 4.432c20.218.3 36.452 16.775 36.452 36.996v395.962c0 19.394-14.975 35.497-34.318 36.902l-296.696 21.561a37 37 0 0 1-12.236-1.157l-58.22-15.562c-16.186-4.326-27.445-18.99-27.445-35.745V475.117c0-19.653 15.365-35.877 34.99-36.945l55.417-3.017a37 37 0 0 1 2.559-.05z" stroke-width="40"/><path d="M374.918 931.41V435.086" stroke-width="20"/></g></svg>