<svg viewBox="0 0 960 960" xmlns="http://www.w3.org/2000/svg"><g fill="none" fill-rule="evenodd"><path d="M480.5 45c211.323 0 383.035 77.45 386.448 173.581l.043 2.419H867v97h-.023l.023.89c0 22.347-12.437 44.712-25.359 64.929l-1.522 2.368-1.521 2.348-2.274 3.482-3.729 5.688-1.457 2.233-1.432 2.208-1.402 2.182C821.147 415.53 814 437.4 814 439c0 58.542-149.313 106-333.5 106S147 497.542 147 439c0-1.859-7.363-24.217-14.546-35.361l-1.406-2.17-1.434-2.195-5.937-9.02-1.513-2.31-1.516-2.331C107.255 364.929 94 341.9 94 318.89l.022-.89H94v-97c.593-97.249 173.408-176 386.5-176z" stroke="#000" stroke-width="40" stroke-linecap="round" stroke-linejoin="round"/><path d="M802.817 374.368c-59.32-38.29-180.4-64.518-320.125-64.518-143.92 0-268.06 27.827-325.3 68" stroke="#000" stroke-width="100" stroke-linecap="round" stroke-linejoin="round"/><ellipse fill="#000" cx="480" cy="464.801" rx="94.347" ry="31"/><path d="M867 337.801c0-70.137-173.042-126.994-386.5-126.994S94 267.664 94 337.8m716.156 93.546c-66.545-37.43-189.28-62.54-329.68-62.54-143.732 0-268.95 26.316-334.32 65.225" stroke="#000" stroke-width="20" stroke-linecap="round" stroke-linejoin="round"/></g></svg>