<svg viewBox="0 0 960 960" xmlns="http://www.w3.org/2000/svg"><g fill="none" fill-rule="evenodd"><g stroke="#000" stroke-linecap="round" stroke-linejoin="round"><path d="M100.89 21c.25.004.5.01.75.021l798.72 34.247C913.97 55.85 925 66.7 925 79.499v751.27c0 12.8-11.031 24.313-24.64 25.717L102.2 938.82c-.33.12-.656.18-.98.18-.311 0-.62-.008-.923-.023-.227.01-.453.017-.679.02l-.399.003c-4.87-.014-9.326-1.611-12.948-4.382-43.956-18.343-50.465-33.867-51.192-46.434L34 887.468V57.443l1.443-.451c1.134-11.387 5.114-22.056 18.87-25.466 11.052-2.739 23.394-5.573 37.028-8.503a22.272 22.272 0 0 1 9.08-2.022h.461l.009-.001z" stroke-width="40"/><path d="m108.92 33.026 778.595 33.38c13.265.568 24.019 11.142 24.019 23.617v732.24c0 12.476-10.754 23.698-24.019 25.066L108.92 927.635c-13.264 1.368-24.018-9.206-24.018-23.618V58.092c0-14.412 10.754-25.635 24.018-25.066z" stroke-width="20"/><path d="M460.089 671.999c111.734 36.304 232.235-26.357 269.146-139.958 36.911-113.602-23.744-235.125-135.478-271.43-111.734-36.304-232.235 26.358-269.146 139.96-36.912 113.6 23.744 235.123 135.478 271.428z" stroke-width="20"/><path d="M353.994 364.845 354 431h-18.049c.215-1.518.443-3.038.684-4.559 3.44-21.726 9.356-42.364 17.36-61.596zm-19.656 128.201L354 498.522l-.005 72.425c-10.398-24.048-17.161-50.345-19.657-77.9zm120.423 174.837c72.652-5.285 138.017-47.52 173.482-110.236m27.197-82.284a160.817 160.817 0 0 0-.553-46.012m-23.533-75.773c-25.718-47.744-69.876-84.774-124.851-100.56" stroke-width="20"/></g><path d="M554.875 476.753c12.542 1.986 24.526-7.872 26.767-22.02 2.24-14.147-6.11-27.226-18.653-29.213-12.542-1.986-24.526 7.872-26.767 22.02-2.24 14.147 6.11 27.226 18.653 29.213zm-165.641 7.631c13.718 2.173 26.825-8.61 29.276-24.083 2.451-15.474-6.683-29.78-20.4-31.952-13.719-2.173-26.826 8.61-29.277 24.084-2.45 15.473 6.683 29.779 20.401 31.951z" fill="#000"/><path d="M615.623 353.729v70.385l98.693 3.883c-1.299-12.5-4.041-24.879-8.228-37.134-4.186-12.256-9.255-25.472-15.206-39.65zm0 119.421v73.732l73.388 11.21c7.678-13.196 13.072-25.05 16.18-35.563 3.108-10.512 5.65-23.744 7.624-39.696l-76.007-9.682h-21.185zM690.922 351l-.844 75m-.142 54-.872 79" stroke="#000" stroke-linecap="round" stroke-linejoin="round" stroke-width="20"/></g></svg>