<svg viewBox="0 0 960 960" xmlns="http://www.w3.org/2000/svg"><g fill="none" fill-rule="evenodd" stroke="#000" stroke-linecap="round"><path d="m700.133 264.976 238.434 409.15-2.523 44.607-678.02 78.452L9.402 275.262l690.732-10.286z" stroke-linejoin="round" stroke-width="40"/><g stroke-width="20"><path d="m50.994 274.89 226.228 474.812 654.77-74.06m-652.705 77.987-9.576 44.784M111.157 400.426l646.718-28.058M171.554 508.364l640.779-37.352M222.329 625.263l649.888-56.033M50.994 274.889l226.228 474.813m-44.228-482.813 227.809 457.197m-57.719-450.197L632 709m-77-436 236 416" stroke-linejoin="round"/><path d="m276.279 381.539 9.526 20 25.614-1.046-9.703-19.868zm51.916 109 9.526 20 26.576-1.761-9.703-19.869zm57.775 115 9.526 20 27.59-2.516-9.703-19.868zm52.91-229.917 10.667 19.15 25.614-1.045-10.844-19.02zm58.137 104.371 10.667 19.151 26.576-1.761-10.844-19.02zm56.338 109.117 10.667 19.15 27.59-2.515-10.844-19.02zm38.614-218.92 11.715 18.372 25.614-1.046-11.892-18.24zm59.847 100.123 11.715 18.371 26.576-1.76-11.892-18.24-26.399 1.63zm59.362 103.634 11.715 18.371 27.59-2.515-11.891-18.24z" stroke-linejoin="bevel"/></g></g></svg>