<svg viewBox="0 0 960 960" xmlns="http://www.w3.org/2000/svg"><g fill="none" fill-rule="evenodd" stroke="#000" stroke-linecap="round" stroke-linejoin="round"><path d="M97.567 331.25h-5.189l-20.753 1.15-19.6 1.152c-7.495.576-14.413 4.03-19.025 9.213s-8.07 12.092-8.07 19.578l-.577 115.74-.577 116.892c0 7.486 2.883 14.395 7.495 19.578 5.188 5.758 11.53 9.213 19.024 9.789l20.177 1.727 20.753 1.728a8.007 8.007 0 0 0 5.189 0l72.637-6.334 734.442-63.34h1.153l8.071-.577c5.765-.575 10.953-2.303 14.989-4.606 5.188-2.88 8.07-6.91 8.07-11.517l-1.152-69.674-1.73-62.764c0-4.031-2.306-8.062-6.918-10.365-1.153-.576-2.882-1.728-5.765-2.303z" stroke-width="30"/><path d="m49.074 343.859 22.374-1.872 22.374-1.247h1.398c5.593 0 9.789 1.871 13.285 5.614 3.495 3.12 5.593 8.11 6.292 13.102v1.871l.7 118.537v119.783c-.7 4.991-2.797 9.982-6.293 13.102-3.496 3.119-7.691 4.99-12.586 4.99H95.22l-23.073-1.871-22.374-1.248a20.358 20.358 0 0 1-13.285-7.486c-3.496-3.743-5.593-9.358-5.593-14.973l-.7-112.921-.699-113.545c0-5.615 2.098-11.23 5.594-14.973 3.496-4.368 8.39-6.863 13.984-6.863z" stroke-width="20"/><path d="M182.088 379.013c-1.087 45.32-.544 45.32 20.109 46.339l655.502 20.369c13.044.509 14.131-1.528 14.131-20.37 0-9.674-.6-12.73-3.86-16.294l-695.122-56.523c-.543 0 9.783 12.22 9.24 26.479z" stroke-width="30"/><path d="m92.378 331.25-20.753 1.15-19.6 1.152c-7.495.576-14.413 4.03-19.025 9.213s-8.07 12.092-8.07 19.578l-.577 115.74-.577 116.892c0 7.486 2.883 14.395 7.495 19.578 5.188 5.758 11.53 9.213 19.024 9.789l20.177 1.727 20.753 1.728a8.007 8.007 0 0 0 5.189 0l72.637-6.334 734.442-63.34h1.153l8.071-.577c5.765-.575 10.953-2.303 14.989-4.606 5.188-2.88 8.07-6.91 8.07-11.517l-1.152-69.674-1.73-62.764c0-4.031-2.306-8.062-6.918-10.365-1.153-.576-2.882-1.728-5.765-2.303L97.567 331.25z" stroke-width="40"/></g></svg>