<svg viewBox="0 0 960 960" xmlns="http://www.w3.org/2000/svg"><g fill="none" fill-rule="evenodd"><g stroke="#000" stroke-linecap="round" stroke-linejoin="round"><path d="M162.734 146.682v628.437a26 26 0 0 0 8.511 19.238l146.03 132.752a26 26 0 0 0 21.127 6.506l451.987-63.86c12.827-1.813 22.363-12.79 22.363-25.745V109.734c0-13.077-9.714-24.12-22.685-25.788L335.916 25.558a26 26 0 0 0-17.678 4.115l-143.866 95.336a26 26 0 0 0-11.638 21.673z" stroke-width="40"/><path d="M326.311 24.323v911M548.355 836.8c100.404 14.111 194.588-65.455 210.366-177.717 15.777-112.261-52.827-214.707-153.232-228.818-100.404-14.11-194.588 65.456-210.366 177.718C379.346 720.244 447.95 822.689 548.355 836.8z" stroke-width="20"/><path d="M551.753 791.275c77.917 10.95 151.007-50.796 163.25-137.914 12.244-87.119-40.995-166.62-118.912-177.57s-151.007 50.796-163.25 137.914c-12.244 87.119 40.995 166.62 118.912 177.57z" stroke-width="20"/><path d="M543.554 828.547c97.305 13.646 188.581-63.298 203.872-171.86 15.29-108.56-51.196-207.629-148.501-221.275-97.305-13.645-188.581 63.299-203.871 171.86s51.195 207.63 148.5 221.275z" stroke-width="20"/></g><path d="M565.13 720.308c42.862 6.024 83.07-27.943 89.805-75.868 6.735-47.924-22.552-91.658-65.415-97.682s-83.07 27.943-89.805 75.868c-6.736 47.924 22.551 91.658 65.414 97.682z" fill="#000"/><path d="M558.68 356.924c64.114 8.596 124.255-39.873 134.33-108.258 10.074-68.385-33.733-130.79-97.846-139.386-64.114-8.596-124.255 39.873-134.33 108.258-10.074 68.385 33.733 130.79 97.846 139.386z" stroke="#000" stroke-linecap="round" stroke-linejoin="round" stroke-width="20"/><path d="M564.206 319.414c44.691 5.991 86.614-27.794 93.636-75.463 7.023-47.668-23.513-91.169-68.204-97.16-44.691-5.992-86.614 27.793-93.636 75.462-7.023 47.669 23.513 91.169 68.204 97.16z" stroke="#000" stroke-linecap="round" stroke-linejoin="round" stroke-width="20"/><path d="M556.044 348.661c62.412 8.094 120.956-37.547 130.763-101.943 9.808-64.396-32.837-123.16-95.248-131.255-62.411-8.094-120.956 37.547-130.763 101.943s32.837 123.16 95.248 131.255z" stroke="#000" stroke-linecap="round" stroke-linejoin="round" stroke-width="20"/><path d="M567.71 277.746c23.117 3.1 44.8-14.376 48.433-39.032 3.632-24.656-12.162-47.157-35.278-50.256s-44.8 14.376-48.433 39.032c-3.632 24.657 12.162 47.157 35.279 50.256z" fill="#000"/></g></svg>