<svg viewBox="0 0 960 960" xmlns="http://www.w3.org/2000/svg"><g fill="none" fill-rule="evenodd" stroke="#000" stroke-linecap="round" stroke-linejoin="round"><path d="M861.946 391.367c29.04-.574 53.308 21.976 54.863 50.98l8.228 153.432c1.591 29.67-20.246 55.426-49.776 58.709-27.279 3.033-51.852-16.622-54.885-43.901a49.697 49.697 0 0 1-.248-3.125l-7.775-163.041c-1.333-27.942 20.239-51.674 48.181-53.007.47-.022.941-.038 1.412-.047z" stroke-width="20"/><path d="M859.348 381.101c.168-.003.337.025.506.082 34.398 1.165 62.613 28.327 64.722 63.06l9.254 152.46c2.209 36.38-24.751 67.993-61.025 71.556-.784.077-1.566.14-2.346.187l.003.015a3.62 3.62 0 0 1-.97.265c-23.943 3.025-37.029-.082-46.022-2.974-20.714-6.661-36.4-25.975-38.722-49.246a57.5 57.5 0 0 1-.206-2.687l-8.4-157.662c-1.131-21.22 8.839-41.882 25.314-52.887 8.225-5.405 19.31-13.213 33.65-17.979a61.937 61.937 0 0 1 21.254-4.135c.445-.008.89-.011 1.333-.01.548-.02 1.1-.035 1.655-.045z" stroke-width="20"/><path d="M185.061 413.114c-.183-29.805-.438-80.674-.765-152.607a28.742 28.742 0 0 1 20.926-27.659l113.459-32.065c2.991-.846 6.1-1.2 9.206-1.05l406.839 19.686c15.316.741 27.353 13.375 27.353 28.709v407.147c0 15.591-12.43 28.34-28.017 28.733L323.855 694.37c-2.35.06-4.698-.17-6.993-.682l-110.09-24.595a28.716 28.716 0 0 1-18.025-12.685" stroke-width="40"/><g stroke-width="20"><path d="M122.885 393.451c35.157 0 64.074 27.695 65.592 62.82l6.444 149.158c1.537 35.594-25.35 66.03-60.862 68.893-33.621 2.71-63.075-22.347-65.786-55.969a61.075 61.075 0 0 1-.157-2.681L62.3 456.288c-1.221-33.46 24.914-61.575 58.374-62.796.737-.027 1.474-.04 2.211-.04zm734.178 84.979c12.844 4.174 26.799-3.343 31.168-16.79s-2.502-27.73-15.346-31.904c-12.845-4.174-26.8 3.344-31.169 16.79-4.369 13.447 2.502 27.731 15.347 31.905z"/><path d="M115.213 492.034c16.533 5.692 34.768-3.724 40.727-21.032 5.96-17.308-2.612-35.954-19.145-41.647s-34.767 3.723-40.727 21.031c-5.96 17.309 2.612 35.955 19.145 41.648z"/><path d="m125.194 374 .42.072c37.831 1.664 68.442 32.007 70.086 70.2l7.229 167.884c1.258 29.218-14.6 55.33-38.826 68.433 5.552.411 16.788 1.26 33.705 2.547a6.796 6.796 0 0 1 6.28 6.777 6.488 6.488 0 0 1-6.295 6.485l-102.399 3.045a143.712 143.712 0 0 1-39.412-4.3l-17.328-4.37a5.488 5.488 0 0 1-4.145-5.32 4.334 4.334 0 0 1 4.275-4.334l30.303-.411c-18.05-9.674-30.901-28.758-32.715-50.915-.08-.98-.138-1.963-.173-2.946l-6.156-172.744c-.829-23.25 10.43-45.677 28.595-57.409 10.448-6.636 26.877-16.42 47.06-20.636a68.12 68.12 0 0 1 16.64-2.058c.454 0 .907.004 1.36.012a90.24 90.24 0 0 1 1.496-.012z"/><path d="M123.655 374a1.7 1.7 0 0 1 .582.106c38.5 2.055 69.555 33.032 71.276 71.988l7.255 164.225c1.803 40.811-29.055 75.712-69.779 78.924a71.05 71.05 0 0 1-7.693.19c-24.55 2.04-40.946-1.83-50.427-4.994-23.03-7.688-40.19-29.13-42.332-54.646a62.513 62.513 0 0 1-.177-2.946l-6.316-172.744c-.85-23.25 10.7-45.677 29.334-57.409 10.399-6.438 26.574-15.84 46.438-20.245A69.706 69.706 0 0 1 120.164 374c.538 0 1.075.006 1.611.017.624-.01 1.25-.017 1.88-.017zm199.543-174.494v494.952"/><ellipse cx="559.067" cy="354.648" rx="89.767" ry="99.161"/><ellipse cx="547.57" cy="354.648" rx="61.146" ry="67.545"/><path d="m809.578 680.564-12.732-4.432a3.548 3.548 0 0 1-2.381-3.35 2.62 2.62 0 0 1 2.52-2.619c54.902-2.109 82.802-3.163 83.698-3.163.863 0 12.843 2.491 35.94 7.474a4.868 4.868 0 0 1 3.842 4.759 4.04 4.04 0 0 1-3.928 4.038l-75.85 2.109a87.257 87.257 0 0 1-31.11-4.816z"/></g></g></svg>