<svg viewBox="0 0 960 960" xmlns="http://www.w3.org/2000/svg"><g fill="none" fill-rule="evenodd"><path stroke="#004DFF" stroke-width="2" d="M353.196 124.95v738.46L66.59 846.739V178.06z"/><path stroke="#000" stroke-width="20" stroke-linecap="round" stroke-linejoin="round" d="M353.196 124.95v738.46l549.383-16.67V178.06z"/><path d="M66.59 846.74V178.06l286.606-53.11 549.383 53.11v668.68l-549.383 16.669-286.606-16.67Z" stroke="#000" stroke-width="40" stroke-linecap="round" stroke-linejoin="round"/><path d="M115 848.784h59V882c0 5.523-13.208 10-29.5 10s-29.5-4.477-29.5-10h0v-33.216Zm296 10.263V899h-.14c-1.586 5.607-16.364 10-34.36 10s-32.774-4.393-34.36-10H342v-36.84l69-3.113Zm460-19.719V878h-.116c-1.31 5.607-13.518 10-28.384 10s-27.074-4.393-28.384-10H814v-36.84l57-1.832Zm-206.638-72.245c123.568-15.172 209.39-144.338 191.689-288.5C838.35 334.42 723.829 229.854 600.26 245.026c-123.566 15.172-209.388 144.338-191.687 288.5 17.7 144.162 132.221 248.73 255.788 233.557Z" stroke="#000" stroke-width="20" stroke-linecap="round" stroke-linejoin="round"/><path d="M658.003 715.292c99.05-12.162 167.844-115.7 153.655-231.258-14.189-115.559-105.987-199.378-205.037-187.216-99.05 12.161-167.844 115.7-153.655 231.258 14.189 115.558 105.987 199.377 205.037 187.216Z" stroke="#000" stroke-width="20" stroke-linecap="round" stroke-linejoin="round"/><path d="M658.427 682.49c81.806-10.044 138.443-97.025 126.502-194.277-11.94-97.253-87.938-167.948-169.744-157.904-81.806 10.045-138.443 97.026-126.502 194.278 11.94 97.252 87.938 167.948 169.744 157.903Z" stroke="#000" stroke-width="20" stroke-linecap="round" stroke-linejoin="round"/><path d="M608.793 576.374c29.176-3.582 49.098-36.862 44.497-74.333-4.6-37.47-31.982-64.942-61.158-61.36-29.175 3.582-49.097 36.862-44.496 74.333 4.6 37.47 31.982 64.943 61.157 61.36Z" fill="#000"/></g></svg>