<svg viewBox="0 0 960 960" xmlns="http://www.w3.org/2000/svg"><g fill="none" fill-rule="evenodd"><path d="m34.544 287.55 650.426 24.42 247.935 171.88c-1.822 4.608-1.866 11.011-.13 19.208l.186.864.111.556.11.603.11.65.055.344.109.72.108.769.16 1.24.159 1.347.105.956.155 1.523.103 1.075.153 1.7.152 1.805.15 1.911.147 2.018.098 1.403.193 2.95.19 3.136.187 3.326.184 3.514.226 4.657.221 4.952.26 6.33.21 5.599.206 5.893.241 7.46.157 5.209.192 6.776.15 5.633c-3.062 1.49-23.798-8.409-28.645-11.157-4.848-2.75-9.729-8.274-16.67-9.116-6.94-.842-12.383 1.405-18.51 4.96-6.127 3.554-12.425 7.653-23.588 7.762l-7.79.076c-4.807.047-10.224-1.456-16.251-4.508l-.585-.3a35 35 0 0 0-32.243-.02l-.472.25c-6.393 3.438-12.091 5.181-17.092 5.23l-7.79.076c-4.757.047-10.098-1.45-16.025-4.49l-.594-.31a35 35 0 0 0-32.51-.062l-.475.253c-6.386 3.458-12.065 5.212-17.04 5.26l-7.789.077c-4.713.046-9.987-1.448-15.821-4.48l-.585-.31a35 35 0 0 0-32.772-.107l-.48.257c-6.376 3.48-12.038 5.243-16.986 5.291l-7.79.077c-4.669.045-9.877-1.445-15.623-4.47l-.576-.308a35 35 0 0 0-33.035-.148l-.475.257c-6.368 3.499-12.013 5.272-16.934 5.32l-7.79.076c-4.627.046-9.77-1.44-15.429-4.459l-.568-.307a35 35 0 0 0-33.293-.188l-.471.257c-6.36 3.518-11.987 5.301-16.882 5.35l-7.79.075c-7.115.07-13.732-1.774-19.483-5.104-1.05-.609-4.29-2.15-9.72-4.624h0a13 13 0 0 0-11.331.266c-13.042 6.7-21.745 10.071-26.11 10.114l-7.789.076c-6.906.068-13.328-1.694-18.933-4.89l-.523-.303a29.108 29.108 0 0 0-29.022-.352l-.429.244c-6.737 3.919-12.65 5.903-17.736 5.953l-7.79.076c-10.644.104-29.94-11.532-30.813-11.78l-.195-.061c-4.99-1.662-11.831-1.548-20.524.342l-28.693 9.722V464.322l-197.06-168.04-9.5-8.733z" stroke="#000" stroke-width="40" stroke-linecap="round" stroke-linejoin="round"/><path stroke="#000" stroke-width="40" stroke-linecap="round" stroke-linejoin="round" d="M25.508 268.255v78.646l95.662 29.943m94.573 99.111 721.84 15.336"/><path fill="#000" d="m684.33 286.685 43.163-11.697h21.237v63l-64.4-42.3z"/></g></svg>