<svg xmlns="http://www.w3.org/2000/svg" viewBox="0 0 960 960"><g fill="none" fill-rule="evenodd"><path d="M27.904 423.762 30.21 526.06a20 20 0 0 0 13.657 18.518l354.985 118.61a100 100 0 0 0 62.883.164l444.06-145.789a20 20 0 0 0 13.762-19.002v-104.14a20 20 0 0 0-15.41-19.467l-355.191-83.753a100 100 0 0 0-46.748.204L43.139 403.886a20 20 0 0 0-15.235 19.876z" stroke="#000" stroke-width="40" stroke-linecap="round" stroke-linejoin="round"/><path d="M27.542 407.707 394.24 523.66a100 100 0 0 0 59.93.116L919.556 378.59h0" stroke="#000" stroke-width="20" stroke-linecap="round" stroke-linejoin="round"/><path d="M752.05 470.298v29.93a5 5 0 0 0 1.814 3.854l14.532 12.008a5 5 0 0 0 4.682.917l71.02-22.274a5 5 0 0 0 2.883-2.358l12.212-22.164a5 5 0 0 0 .62-2.412v-29.594a5 5 0 0 0-6.56-4.75l-97.763 32.092a5 5 0 0 0-3.44 4.75zm-217.576 67.148v29.566a9 9 0 0 0 3.365 7.017l14.304 11.488a9 9 0 0 0 8.26 1.592l79.58-24.256a9 9 0 0 0 5.205-4.17l13.059-23.034a9 9 0 0 0 1.17-4.439v-27.88a9 9 0 0 0-11.735-8.575L540.74 528.872a9 9 0 0 0-6.265 8.574z" fill="#000"/><path d="M263.943 346.781c-10.142 0-162.99-47.524-236.401-47.524" stroke="#000" stroke-width="40" stroke-linecap="round" stroke-linejoin="round"/></g></svg>