<svg viewBox="0 0 960 960" xmlns="http://www.w3.org/2000/svg"><g fill="none" fill-rule="evenodd" stroke="#000" stroke-linejoin="round"><path d="M124.094 27.215c6.909-6.055 16.116-9.474 25.978-8.856l639.53 48.454a35.905 35.905 0 0 1 23.425 11.15 35.916 35.916 0 0 1 9.851 24.253l.001 27.195.286.165a36.084 36.084 0 0 1 7.316 5.636l.36.365a35.92 35.92 0 0 1 10.18 23.76l14.733 620.66a35.906 35.906 0 0 1-8.72 24.356 35.917 35.917 0 0 1-23.051 12.25l-1.102.115v17.92a35.913 35.913 0 0 1-8.939 23.743 35.924 35.924 0 0 1-22.63 11.983l-621.12 68.28-29.527-5.989a35.932 35.932 0 0 1-20.463-12.191 35.941 35.941 0 0 1-8.376-22.566l-.004-843.61a36 36 0 0 1 .103-2.72c.741-9.784 5.329-18.358 12.169-24.353z" stroke-width="40"/><g stroke-linecap="round" stroke-width="20"><path d="M821.879 91.863c0-8.37-6.452-15.326-14.8-15.955L181.223 28.805c-8.812-.663-16.493 5.943-17.156 14.755a17.76 17.76 0 0 0-.045 1.333l7.156 864.911c.073 8.836 7.295 15.94 16.131 15.868.537 0 1.073-.037 1.607-.095l618.701-67.632c8.116-.887 14.262-7.742 14.262-15.906"/><path d="M259.342 105.77h-19.88c-8.812-.646-16.48 5.974-17.127 14.787-.032.435-.043.87-.043 1.307l6.068 714.992c.075 8.837 7.299 15.939 16.135 15.865.521 0 32.92.055 33.438 0"/><path d="m244.627 122.19 20.916 715.082c.258 8.832 7.628 15.783 16.46 15.525a16 16 0 0 0 1.187-.08l538.228-55.952c8.297-.862 14.54-7.954 14.341-16.293L821.042 160.31c-.196-8.245-6.627-14.991-14.853-15.58l-544.426-38.966c-8.814-.631-16.471 6.003-17.102 14.817a16 16 0 0 0-.034 1.61z"/></g></g></svg>