<svg viewBox="0 0 960 960" xmlns="http://www.w3.org/2000/svg"><g fill="none" fill-rule="evenodd"><path d="M571.749 334.492c15.826 11.606 30.822 27.012 42.448 42.983 26.216 35.564 41.147 79.365 37.062 118.254-.423 4.032-1.21 8.657-2.231 13.286 9.362-13.646 12.39-32.134 9.608-52.98-.85-6.367 7.194-9.726 11.216-4.703 5.948 7.403 12.352 20.384 16.352 32.362 12.394 36.91 3.37 78.76-21.417 110.305-14.596 18.827-33.508 34.014-55.045 42.915-24.951 10.454-52.428 11.896-81.322 2.7-21.23-6.889-41.406-21.892-54.847-41.81-15.495-23.183-21.321-51.205-15.164-81.156 2.079-10.086 5.472-19.442 10.157-28.614 3.58-6.992 7.635-13.437 13.233-21.36l1.174-1.647c1.771-2.458 6.75-9.29 8.658-11.952l2.638-3.708 1.375-1.948.627-.897c5.763-8.28 9.222-14.366 11.966-21.727 2.517-6.74 3.5-11.782 3.52-17.154.007-2.116-.127-4.355-.417-7.207l-.094-.894c-.175-1.606-.762-6.419-1.052-8.807l-.286-2.424-.126-1.124c-.576-5.234 4.541-8.9 9.04-6.48 4.72 2.531 10.007 9.382 13.87 16.457 6.39 11.663 9.99 25.318 10.881 39.57l.036.602.436-.997c14.158-32.81 6.827-73.92-18.532-100.793a51.789 51.789 0 0 0-.882-.92c-1.976-2.01-3.995-3.774-6.63-5.873l-3.284-2.59-.564-.456c-.969-.793-1.68-1.43-2.31-2.095-4.046-4.288-1.441-11.338 4.158-11.24 18.124.331 37.134 8.323 55.748 22.122zm-10.86 153.513c-3.855-1.32-7.41 2.704-5.772 6.531 2.784 6.494 3.04 12.92 1.058 18.718a24.705 24.705 0 0 1-10.04 12.774l-.19.12-.286.178a72.257 72.257 0 0 1-3.933 2.251l-.736.39-.5.263-.351.182-3.203 1.643-.743.387-.507.267-.256.137c-6.198 3.323-9.911 6.157-13.935 11.166-1.78 2.22-3.482 4.769-5.147 7.721-10.333 18.404-9.471 39.785 3.87 51.469 8.267 7.186 17.494 12.003 27.69 13.152 13.338 1.486 26.898-3.496 40.146-15.873 14.094-13.053 17.211-36.866 10.428-61.695-6.539-24.047-20.943-44.12-37.593-49.781z" fill="#000"/><g stroke="#000" stroke-linejoin="round"><path d="M492.505 865.885c191.11 20.086 364.164-136.118 386.527-348.891C901.395 304.22 764.6 115.45 573.49 95.364 382.38 75.276 209.327 231.48 186.964 444.253 164.6 657.029 301.396 845.8 492.505 865.885z" stroke-linecap="round" stroke-width="20"/><path d="M665.693 202.53c-26.056-12.241-54.285-20.329-84.108-23.463-39.681-4.17-78.424.822-114.502 13.419" stroke-linecap="round" stroke-width="40"/><path d="M479.514 913.375c214.667 22.562 409.052-152.896 434.172-391.898S785.15 70.436 570.482 47.874C355.815 25.31 161.429 200.77 136.309 439.77c-25.12 239.002 128.538 451.041 343.205 473.604z" stroke-linecap="round" stroke-width="20"/><path d="M476.862 22.59c14.044.019 36.637.935 67.777 2.773l.656.751 1.054.034a376.74 376.74 0 0 1 23.83 1.591l2.393.244C685.62 39.865 782.747 101.455 848.2 191.775c64.805 89.428 98.488 207.062 85.378 331.793-12.967 123.372-69.27 230.438-149.828 304.363-81.494 74.783-187.752 115.699-299.533 105.986-44.194-4.091-72.336-7.126-84.547-9.066-7.956-1.264-17.66-3.11-27.37-5.097l-1.587-.326-1.586-.328-2.108-.44-1.4-.295c-14.675-3.092-28.403-6.262-34.841-7.87-97.21-24.285-179.267-86.96-234.143-172.137C42.817 654.823 15.18 549.642 25.256 438.37l.703-7.196c11.052-105.3 54.369-196.698 117.387-266.153 66.079-72.828 153.84-121.527 248.994-136.98 12.09-1.963 43.365-5.319 83.122-5.45z" stroke-width="40"/></g></g></svg>