<svg viewBox="0 0 960 960" xmlns="http://www.w3.org/2000/svg"><g fill="none" fill-rule="evenodd"><g stroke="#000" stroke-linejoin="round"><ellipse cx="479.5" cy="403.779" rx="425.291" ry="208.779" stroke-linecap="round" stroke-width="20"/><path d="M342.275 676.156c44.16 7.468 91.506 11.518 140.758 11.518 240.93 0 436.242-96.935 436.242-216.511" stroke-linecap="round" stroke-width="20"/><path d="M479.5 175c120.986 0 230.434 24.333 309.691 63.263 42.061 20.66 75.773 45.521 98.876 72.918C912.18 339.775 925 371.233 925 404c0 2.34-.066 4.673-.196 6.998L925 547.723v.777c0 33.356-12.518 65.354-35.97 94.503-22.642 28.144-55.694 53.717-96.973 75.07C714.08 758.41 606.23 783.99 486.66 784.971l-7.119.029c-121.104.006-230.654-25.222-309.985-65.586-42.046-21.394-75.748-47.123-98.844-75.494C46.782 614.525 34 582.204 34 548.5c0-.276 0-.553.003-.829L34 403.781c.058-32.747 12.92-64.184 37.064-92.755 23.127-27.368 56.845-52.202 98.898-72.838C249.206 199.302 358.592 175 479.5 175z" stroke-width="40"/><ellipse cx="479.5" cy="397.151" rx="364.535" ry="178.953" stroke-linecap="round" stroke-width="20"/></g><path d="M479.5 260.174c141.675 0 256.525 56.381 256.525 125.93 0 69.55-114.85 125.93-256.525 125.93s-256.525-56.38-256.525-125.93c0-69.549 114.85-125.93 256.525-125.93zm0 24.303c-111.848 0-202.52 44.511-202.52 99.418 0 54.908 90.672 99.419 202.52 99.419s202.52-44.511 202.52-99.419c0-54.907-90.672-99.418-202.52-99.418z" fill="#000"/><ellipse cx="479.5" cy="383.895" fill="#000" rx="49.709" ry="26.512"/><path d="M339 753V599.345l21.288-32.714M584 224l13-19" stroke="#000" stroke-linecap="round" stroke-linejoin="round" stroke-width="20"/><path d="M255.871 801.286s51.503-7.527 77.783-18.17m-38.891 89.226s68.665-38.976 83.359-77.313m162.59 95.614s-46.256-57.277-60.95-95.614m-50.841 10.243c-7.91 30.005-14.68 60.5-25.272 82.025m137.063-95.571c28.468 22.796 49.576 36.676 63.326 41.64m315.599-450.721c8.805-2.252 17.248-4.787 24.017-7.528m-51.017-41.472c14.298-5.685 28.007-12.082 39-19M864.02 297.78c6.722-3.227 13.021-6.613 18.617-10.135" stroke="#000" stroke-linecap="round" stroke-linejoin="round" stroke-width="40"/></g></svg>