<svg viewBox="0 0 960 960" xmlns="http://www.w3.org/2000/svg"><g fill="none" fill-rule="evenodd"><g stroke="#000" stroke-linejoin="round"><path d="m265.258 23.12 571.865 37.058 10.337 144.478v703.28l-581.713 29.21-155.23-70.216V104.415z" stroke-width="40"/><path d="m269.58 916.928 1.955-732.536-1.956-140.95M827.46 205.37l-555.925-20.978" stroke-linecap="round" stroke-width="20"/></g><path d="m482 184.939 14.267-30.02a14 14 0 0 1 13.2-7.98l106.776 4.243a14 14 0 0 1 12.77 9.693l9.698 30.082zM671.232 99l3.789 59.56L789.86 164l-3.227-58.08z" fill="#000"/><path d="M225.667 43.442v869.195m0-73.092 45.868 16.197 571.12-25.654" stroke="#000" stroke-linecap="round" stroke-linejoin="round" stroke-width="20"/></g></svg>