<svg viewBox="0 0 960 960" xmlns="http://www.w3.org/2000/svg"><g fill="none" fill-rule="evenodd"><g stroke="#000" stroke-linejoin="round"><path d="m265.258 23.12 571.865 37.058 10.337 144.478v703.28l-581.713 29.21-155.23-70.216V104.415z" stroke-width="40"/><path d="m269.58 916.928 1.955-732.536-1.956-140.95M827.46 205.37l-555.925-20.978" stroke-linecap="round" stroke-width="20"/></g><g fill="#000"><path d="M566 236c126.473 0 229 109.466 229 244.5S692.473 725 566 725c-1.504 0-3.005-.015-4.502-.046l-.711.013L557 725c-126.473 0-229-109.466-229-244.5S430.527 236 557 236c1.504 0 3.005.015 4.502.046l.711-.013zm6 65c-93.101 0-168.438 80.435-168.438 179.5S478.9 660 572 660s168.438-80.435 168.438-179.5S665.1 301 572 301zm0 10c87.427 0 158.438 75.817 158.438 169.5S659.427 650 572 650c-8.29 0-16.434-.682-24.382-1.996l-.23-.004c91.128 0 165-74.768 165-167s-73.872-167-165-167c-1.899 0-3.79.032-5.674.097A149.004 149.004 0 0 1 572 311z"/><ellipse cx="563.595" cy="125" rx="29.971" ry="32"/><path d="m647.921 93 4.533 71.263 137.408 6.51L786 101.279zM337 113.917v34.529l108.602 5.272v-33.397z"/></g></g></svg>