<svg viewBox="0 0 960 960" xmlns="http://www.w3.org/2000/svg"><g fill="none" fill-rule="evenodd" stroke="#000" stroke-linejoin="round"><path d="M231 20.073 692 42.25v27.747l49.213 25.773L692 600.531V886.79l-461 54.786z" stroke-width="40"/><g stroke-linecap="round" stroke-width="20"><path d="m641.966 842.619-362.712 43.045V71.452l362.712 17.449m-35.471 64.579v403.493"/><path d="m279.254 526.891 30.672-443.86 373.31 5.023 37.046 19.403-71.93 737.854-369.098 47.466z"/><path d="m279.254 892.777 57.448-791.894 383.58 6.574M309.926 83.032l26.776 17.85"/><path d="m373.97 146.336-57.79 699.531 295.932-38.526L674.3 151.215z"/><path d="m322.012 792.636 266.445-26.401 20.997 36.523m-20.997-36.523L642 152.868"/></g></g></svg>