<svg viewBox="0 0 960 960" xmlns="http://www.w3.org/2000/svg"><g fill="none" fill-rule="evenodd"><path d="m24 40.703 596 37.46V107h318v768.396l-318-6.232v34.469L24 917.47z" stroke="#000" stroke-linejoin="round" stroke-width="40"/><path d="m178.24 67.802 29.126 16.908v780.001l-28.112 19.733-123.77-12.99V94.479z" stroke="#000" stroke-linecap="round" stroke-linejoin="round" stroke-width="20"/><path d="m208.547 119.56 353.489 17.084v700.772l-355 10.256M927.57 116.85v747.79l-341-6.886V116.85z" stroke="#000" stroke-linecap="round" stroke-linejoin="round" stroke-width="20"/><path d="M876.003 808.438h-241V173.14h241z" stroke="#000" stroke-linecap="round" stroke-linejoin="round" stroke-width="20"/><path d="M892.136 425.601v110h17v-110z" fill="#000"/><path d="m559.124 824.644-31-9.991v-672.24l31-5.77m-30.877 677.963-320.95 9.579M176.574 78.398v795.71m-23.559-47.396-68.569-2.97V139.256l68.569-17.463zm424.29-150.334v68.275m0-524.275v68.275M92 146l.411 668.967" stroke="#000" stroke-linejoin="round" stroke-linecap="round" stroke-width="20"/></g></svg>