<svg viewBox="0 0 960 960" xmlns="http://www.w3.org/2000/svg"><g fill="none" fill-rule="evenodd" stroke="#000" stroke-linejoin="round"><path d="m59.047 116.064 483.82 14.348L672.216 361.91l269.216 178.65-25.702 79.89h-94.774l60.368 107.504-25.763 60.705L330.3 815.942 29.246 182.606z" stroke-width="40"/><g stroke-linecap="round" stroke-width="20"><path d="m71.83 136.452 295.5 621.644 505.608-28.266M337 810l30.33-51.904"/><path d="m567.926 310.01-63.514-116.547L145 183l87.397 196.73L404.654 695 766 673.474l-33.49-61.454m-54.629-99.677-27.024-49.384"/><path d="m329.818 553.654 87.374 60.174 483.962-6.676 16.6-58.303-488.551.571-162.295-108.595m150.853 173.26 11.442-64.665M166.592 227.098l313.548 6.539 38.507 74.774m-38.507-74.774 24.732-39.74M204.104 306.19l366.7 5.764 195.531 127.313"/><path d="M227.507 366.17 463.5 511.865h342.277L548.662 345.212l-326.839-4.897"/><path d="M262.086 385.79h10.098l271.754 6.91 186.316 119.165M547.996 350.742l-.26 38.643"/></g></g></svg>